<?xml version="1.0" standalone="no"?>
<!DOCTYPE svg PUBLIC "-//W3C//DTD SVG 1.1//EN" "http://www.w3.org/Graphics/SVG/1.1/DTD/svg11.dtd" >
<svg xmlns="http://www.w3.org/2000/svg" xmlns:xlink="http://www.w3.org/1999/xlink" version="1.1">
<metadata>
Created by FontForge 20170731 at Mon Apr  4 15:24:49 2016
 By Aleksey,,,
Copyright 2010 The Amirim Project Authors, with Reserved Font Name 'Source'. Source is a trademark of Adobe Systems Incorporated in the United States and/or other countries.
</metadata>
<defs>
<font id="Assistant-ExtraLight" horiz-adv-x="472" >
  <font-face 
    font-family="Assistant ExtraLight"
    font-weight="275"
    font-stretch="normal"
    units-per-em="1000"
    panose-1="0 0 3 0 0 0 0 0 0 0"
    ascent="800"
    descent="-200"
    x-height="478"
    cap-height="660"
    bbox="-452 -250 1108 1021"
    underline-thickness="50"
    underline-position="-150"
    unicode-range="U+0020-FB4B"
  />
<missing-glyph horiz-adv-x="624" 
d="M96 660h432v-660h-432v660zM314 366l54 92l94 168h-302l94 -168l56 -92h4zM288 340l-154 270v-536zM488 610l-152 -270l152 -266v536zM476 32l-100 176l-62 106h-4l-64 -106l-102 -176h332z" />
    <glyph glyph-name="fi" unicode="fi" horiz-adv-x="474" 
d="M130 592v-114h114v-28h-114v-450h-30v450h-66v24l66 4v118q0 69 29 103.5t81 34.5q31 0 66 -16l-10 -26q-28 14 -58 14q-78 0 -78 -114zM348 478h30v-478h-30v478zM341 610q-9 10 -9 26q0 15 9 24.5t23 9.5t23 -9.5t9 -24.5q0 -16 -9 -26t-23 -10t-23 10z" />
    <glyph glyph-name="fl" unicode="fl" horiz-adv-x="482" 
d="M130 592v-114h114v-28h-114v-450h-30v450h-66v24l66 4v118q0 69 29 103.5t81 34.5q31 0 66 -16l-10 -26q-28 14 -58 14q-78 0 -78 -114zM348 52v670h30v-676q0 -15 5.5 -22.5t14.5 -7.5q8 0 18 2l6 -26q-16 -4 -26 -4q-48 0 -48 64z" />
    <glyph glyph-name=".notdef" horiz-adv-x="624" 
d="M96 660h432v-660h-432v660zM314 366l54 92l94 168h-302l94 -168l56 -92h4zM288 340l-154 270v-536zM488 610l-152 -270l152 -266v536zM476 32l-100 176l-62 106h-4l-64 -106l-102 -176h332z" />
    <glyph glyph-name=".null" horiz-adv-x="0" 
 />
    <glyph glyph-name="nonmarkingreturn" horiz-adv-x="333" 
 />
    <glyph glyph-name="space" unicode=" " horiz-adv-x="200" 
 />
    <glyph glyph-name="exclam" unicode="!" horiz-adv-x="248" 
d="M108 608v62h32v-62l-4 -436h-24zM99 -1.5q-11 10.5 -11 27.5q0 19 11 29.5t25 10.5q15 0 25.5 -10.5t10.5 -29.5q0 -17 -11 -27.5t-25 -10.5t-25 10.5z" />
    <glyph glyph-name="quotedbl" unicode="&#x22;" horiz-adv-x="336" 
d="M84 634v60h38v-60l-6 -140h-26zM212 634v60h38v-60l-6 -140h-26z" />
    <glyph glyph-name="numbersign" unicode="#" 
d="M120 218h-84v28h88l22 178h-90v28h92l26 198h28l-26 -198h156l26 198h28l-26 -198h82v-28h-84l-22 -178h86v-28h-90l-26 -218h-28l26 218h-156l-26 -218h-28zM308 246l22 178h-156l-22 -178h156z" />
    <glyph glyph-name="dollar" unicode="$" 
d="M368.5 36q-43.5 -43 -110.5 -48v-98h-30v99q-49 3 -91.5 25t-74.5 52l18 22q76 -72 164 -72q65 0 100.5 36t35.5 94q0 49 -20 82t-48.5 52.5t-78.5 44.5q-48 24 -77 43.5t-48.5 51.5t-19.5 80q0 62 39.5 104t100.5 47v99h30v-98q45 -3 75.5 -20.5t60.5 -49.5l-20 -20
q-33 33 -60.5 47.5t-71.5 14.5q-53 0 -87.5 -35t-34.5 -87q0 -41 18 -68.5t43.5 -44.5t71.5 -40q52 -25 83.5 -46.5t53.5 -59t22 -95.5q0 -69 -43.5 -112z" />
    <glyph glyph-name="percent" unicode="%" horiz-adv-x="798" 
d="M78.5 312q-36.5 54 -36.5 154q0 98 36.5 152t101.5 54t101.5 -54t36.5 -152q0 -100 -36.5 -154t-101.5 -54t-101.5 54zM566 672h32l-370 -684h-32zM259 332.5q29 48.5 29 133.5t-29 132.5t-79 47.5t-79 -47.5t-29 -132.5t29 -133.5t79 -48.5t79 48.5zM516.5 42
q-36.5 54 -36.5 154q0 98 36.5 152t101.5 54t101.5 -54t36.5 -152q0 -100 -36.5 -154t-101.5 -54t-101.5 54zM697 62.5q29 48.5 29 133.5t-29 132.5t-79 47.5t-79 -47.5t-29 -132.5t29 -133.5t79 -48.5t79 48.5z" />
    <glyph glyph-name="ampersand" unicode="&#x26;" horiz-adv-x="562" 
d="M538 -12q-63 24 -137 86q-39 -41 -82 -63.5t-95 -22.5q-50 0 -93 22t-68 62.5t-25 93.5q0 57 35.5 101.5t101.5 94.5q-45 92 -45 166q0 63 36.5 103.5t93.5 40.5q49 0 76.5 -32.5t27.5 -83.5q0 -39 -21 -73t-50.5 -59.5t-82.5 -66.5q34 -65 84 -128.5t105 -113.5
q71 88 109 227h30q-42 -149 -118 -245q70 -58 130 -81zM199 380q45 34 72 58t45 53t18 63q0 37 -18.5 63.5t-57.5 26.5q-45 0 -71.5 -33t-26.5 -81q0 -65 39 -150zM380 93q-57 53 -107.5 116.5t-85.5 129.5q-56 -44 -86.5 -83.5t-30.5 -87.5q0 -45 21 -79.5t57 -53.5t78 -19
q80 0 154 77z" />
    <glyph glyph-name="quotesingle" unicode="'" horiz-adv-x="208" 
d="M84 634v60h38v-60l-6 -140h-26z" />
    <glyph glyph-name="parenleft" unicode="(" horiz-adv-x="270" 
d="M124 40.5q-34 110.5 -34 237.5t34 237.5t98 214.5l18 -12q-60 -94 -91 -207t-31 -233t31 -233t91 -207l-18 -12q-64 104 -98 214.5z" />
    <glyph glyph-name="parenright" unicode=")" horiz-adv-x="270" 
d="M30 -162q60 94 91 207t31 233t-31 233t-91 207l18 12q64 -104 98 -214.5t34 -237.5t-34 -237.5t-98 -214.5z" />
    <glyph glyph-name="asterisk" unicode="*" horiz-adv-x="386" 
d="M108 494l54 86l-88 34l8 24l92 -26l6 100h26l6 -98l92 24l8 -24l-88 -34l54 -86l-22 -16l-62 82l-64 -82z" />
    <glyph glyph-name="plus" unicode="+" 
d="M220 316h-186v28h186v204h32v-204h186v-28h-186v-204h-32v204z" />
    <glyph glyph-name="comma" unicode="," horiz-adv-x="208" 
d="M140 49q12 -17 12 -45q0 -49 -25.5 -89t-66.5 -65l-12 24q32 19 51.5 50t20.5 71q-4 -1 -12 -1q-16 0 -26 9.5t-10 26.5t10.5 26.5t25.5 9.5q20 0 32 -17z" />
    <glyph glyph-name="hyphen" unicode="-" horiz-adv-x="294" 
d="M40 264h216v-30h-216v30z" />
    <glyph glyph-name="period" unicode="." horiz-adv-x="208" 
d="M79 -1.5q-11 10.5 -11 27.5q0 19 11 29.5t25 10.5q15 0 25.5 -10.5t10.5 -29.5q0 -17 -11 -27.5t-25 -10.5t-25 10.5z" />
    <glyph glyph-name="slash" unicode="/" horiz-adv-x="360" 
d="M328 710h30l-320 -870h-30z" />
    <glyph glyph-name="zero" unicode="0" 
d="M98 75q-48 87 -48 247q0 159 48 244.5t138 85.5t138 -85.5t48 -244.5q0 -160 -48 -247t-138 -87t-138 87zM349 96q41 80 41 226t-41 224t-113 78t-113 -78t-41 -224t41 -226t113 -80t113 80z" />
    <glyph glyph-name="one" unicode="1" horiz-adv-x="434" 
d="M55 28h152v552h-114v22q72 11 118 38h26v-612h142v-28h-324v28z" />
    <glyph glyph-name="two" unicode="2" 
d="M42 20q120 124 186 200t100 138.5t34 117.5q0 66 -36.5 107t-109.5 41q-43 0 -82.5 -23t-71.5 -63l-22 20q39 44 82 69t96 25q83 0 129.5 -47.5t46.5 -128.5q0 -62 -35 -126.5t-93 -131.5t-178 -194q72 4 108 4h230v-28h-384v20z" />
    <glyph glyph-name="three" unicode="3" 
d="M114.5 13q-46.5 25 -84.5 65l20 22q35 -38 77.5 -61t104.5 -23q68 0 112 41.5t44 108.5q0 72 -56.5 114t-173.5 42v30q107 0 156.5 40.5t49.5 105.5q0 57 -37 91.5t-99 34.5q-43 0 -82 -20t-68 -52l-20 22q78 78 170 78q73 0 120.5 -41t47.5 -111q0 -61 -34 -101.5
t-90 -58.5v-4q63 -13 105.5 -57.5t42.5 -110.5q0 -54 -25 -95t-68 -63t-97 -22q-69 0 -115.5 25z" />
    <glyph glyph-name="four" unicode="4" 
d="M440 196h-98v-196h-30v196h-296v16l306 428h20v-416h98v-28zM312 224v252q0 50 4 106h-4q-5 -8 -13 -19.5t-14 -20.5q-18 -25 -25 -36l-202 -282h254z" />
    <glyph glyph-name="five" unicode="5" 
d="M110.5 11.5q-45.5 23.5 -84.5 62.5l20 22q35 -37 76.5 -58.5t103.5 -21.5q44 0 82 23t61 65t23 94q0 81 -44.5 127.5t-119.5 46.5q-35 0 -62.5 -11t-59.5 -33l-26 16l24 296h286v-28h-258l-22 -246q28 17 56.5 26.5t63.5 9.5q86 0 140 -51t54 -151q0 -65 -28.5 -113
t-74.5 -73.5t-97 -25.5q-68 0 -113.5 23.5z" />
    <glyph glyph-name="six" unicode="6" 
d="M382 333q46 -51 46 -147q0 -56 -23 -101t-62 -71t-85 -26q-96 0 -150 79t-54 221q0 190 65 277t167 87q75 0 128 -60l-20 -22q-21 27 -49.5 40.5t-60.5 13.5q-87 0 -142 -79t-56 -252q35 43 78 67t88 24q84 0 130 -51zM329 39q31 23 49 61.5t18 85.5q0 77 -36 123.5
t-110 46.5q-38 0 -81 -24.5t-82 -76.5q6 -110 49 -174.5t124 -64.5q38 0 69 23z" />
    <glyph glyph-name="seven" unicode="7" 
d="M244 335q45 139 144 277h-344v28h386v-18q-76 -101 -118.5 -195.5t-61.5 -194t-24 -232.5h-34q7 196 52 335z" />
    <glyph glyph-name="eight" unicode="8" 
d="M137.5 11q-45.5 23 -71.5 63.5t-26 89.5q0 60 38.5 108t91.5 76v4q-40 26 -66 62.5t-26 83.5q0 44 21.5 79t58.5 55t82 20q79 0 124.5 -46.5t45.5 -119.5q0 -48 -28.5 -92.5t-63.5 -73.5v-4q53 -33 82.5 -68.5t29.5 -93.5q0 -46 -24 -84t-67 -60t-99 -22q-57 0 -102.5 23
zM378 486q0 58 -37 98t-101 40q-57 0 -93.5 -36t-36.5 -90q0 -45 24.5 -76t60.5 -50.5t93 -41.5q90 71 90 156zM323 34.5q36 18.5 55.5 50t19.5 69.5q0 48 -27.5 80.5t-66 52t-110.5 47.5q-122 -70 -122 -170q0 -41 21.5 -74.5t60 -53.5t86.5 -20q47 0 83 18.5z" />
    <glyph glyph-name="nine" unicode="9" 
d="M364 573q54 -79 54 -221q0 -190 -65 -277t-167 -87q-76 0 -128 60l20 22q21 -27 49.5 -40.5t60.5 -13.5q87 0 142 79t56 252q-35 -43 -78 -67t-88 -24q-84 0 -130 51t-46 147q0 56 23 101t62 71t85 26q96 0 150 -79zM303 308.5q43 24.5 82 76.5q-6 110 -49 174.5
t-124 64.5q-38 0 -69 -23t-49 -61.5t-18 -85.5q0 -77 36 -123.5t110 -46.5q38 0 81 24.5z" />
    <glyph glyph-name="colon" unicode=":" horiz-adv-x="208" 
d="M79 388.5q-11 10.5 -11 27.5q0 19 11 29.5t25 10.5q15 0 25.5 -10.5t10.5 -29.5q0 -17 -11 -27.5t-25 -10.5t-25 10.5zM79 -1.5q-11 10.5 -11 27.5q0 19 11 29.5t25 10.5q15 0 25.5 -10.5t10.5 -29.5q0 -17 -11 -27.5t-25 -10.5t-25 10.5z" />
    <glyph glyph-name="semicolon" unicode=";" horiz-adv-x="208" 
d="M79 388.5q-11 10.5 -11 27.5q0 19 11 29.5t25 10.5q15 0 25.5 -10.5t10.5 -29.5q0 -17 -11 -27.5t-25 -10.5t-25 10.5zM140 49q12 -17 12 -45q0 -49 -25.5 -89t-66.5 -65l-12 24q32 19 51.5 50t20.5 71q-4 -1 -12 -1q-16 0 -26 9.5t-10 26.5t10.5 26.5t25.5 9.5
q20 0 32 -17z" />
    <glyph glyph-name="less" unicode="&#x3c;" 
d="M34 314v36l404 162v-32l-372 -146v-4l372 -146v-32z" />
    <glyph glyph-name="equal" unicode="=" 
d="M34 444h404v-28h-404v28zM34 244h404v-28h-404v28z" />
    <glyph glyph-name="greater" unicode="&#x3e;" 
d="M34 184l372 146v4l-372 146v32l404 -162v-36l-404 -162v32z" />
    <glyph glyph-name="question" unicode="?" horiz-adv-x="394" 
d="M162 202q0 51 20 90t59 90q35 46 52 77.5t17 70.5q0 52 -30.5 88t-89.5 36q-38 0 -73.5 -17.5t-60.5 -48.5l-20 18q69 76 156 76q70 0 110 -43t40 -107q0 -42 -18 -76.5t-56 -85.5q-39 -51 -58.5 -88.5t-19.5 -84.5q0 -7 2 -25h-28q-2 20 -2 30zM157 -1.5
q-11 10.5 -11 27.5q0 19 11 29.5t25 10.5q15 0 25.5 -10.5t10.5 -29.5q0 -17 -11 -27.5t-25 -10.5t-25 10.5z" />
    <glyph glyph-name="at" unicode="@" horiz-adv-x="802" 
d="M211 -100.5q-75 41.5 -117 119t-42 183.5q0 125 53.5 222t143 150.5t193.5 53.5q94 0 163.5 -38.5t107 -109t37.5 -164.5q0 -80 -27 -138.5t-68 -89t-83 -30.5q-41 0 -66 19t-28 57h-2q-31 -33 -60.5 -51.5t-61.5 -18.5q-48 0 -80 35t-32 99q0 49 22.5 101t64 86.5
t97.5 34.5q54 0 84 -48h2l8 40h26l-34 -184q-9 -37 -9 -66q0 -76 71 -76q33 0 67 27.5t56.5 79.5t22.5 121q0 87 -34.5 151.5t-98 99.5t-147.5 35q-93 0 -175.5 -49.5t-132.5 -140t-50 -206.5q0 -96 37.5 -168t106 -111t158.5 -39t170 50l14 -24q-84 -54 -186 -54
q-96 0 -171 41.5zM470 162l32 178q-19 30 -36.5 41t-41.5 11q-45 0 -79.5 -29t-53.5 -73.5t-19 -89.5q0 -56 23 -82t61 -26q53 0 114 70z" />
    <glyph glyph-name="A" unicode="A" horiz-adv-x="520" 
d="M394 236h-269l-83 -236h-32l236 660h28l236 -660h-34zM384 264l-46 132q-53 151 -76 230h-4q-23 -79 -76 -230l-47 -132h249z" />
    <glyph glyph-name="B" unicode="B" horiz-adv-x="574" 
d="M100 660h172q101 0 157.5 -40.5t56.5 -119.5q0 -53 -27 -91t-77 -53v-4q68 -11 107 -52t39 -108q0 -93 -65 -142.5t-179 -49.5h-184v660zM252 366q202 0 202 132q0 72 -48.5 103t-147.5 31h-126v-266h120zM272 28q107 0 165.5 40t58.5 122q0 74 -58 111t-166 37h-140
v-310h140z" />
    <glyph glyph-name="C" unicode="C" horiz-adv-x="562" 
d="M186 30.5q-62 42.5 -96 120.5t-34 181t34.5 180t97.5 118.5t146 41.5q53 0 96 -22t72 -56l-20 -22q-28 33 -65.5 51.5t-82.5 18.5q-75 0 -130 -38t-84.5 -107.5t-29.5 -164.5q0 -94 29 -165t83.5 -110t127.5 -39q52 0 93 20.5t79 63.5l20 -20q-40 -46 -86 -70t-108 -24
q-80 0 -142 42.5z" />
    <glyph glyph-name="D" unicode="D" horiz-adv-x="600" 
d="M100 660h148q148 0 222 -87.5t74 -240.5t-74 -242.5t-222 -89.5h-148v660zM244 28q135 0 200.5 83t65.5 221t-65.5 219t-200.5 81h-112v-604h112z" />
    <glyph glyph-name="E" unicode="E" horiz-adv-x="510" 
d="M100 660h354v-28h-322v-266h270v-28h-270v-310h332v-28h-364v660z" />
    <glyph glyph-name="F" unicode="F" horiz-adv-x="470" 
d="M100 660h352v-28h-320v-278h270v-28h-270v-326h-32v660z" />
    <glyph glyph-name="G" unicode="G" horiz-adv-x="600" 
d="M188 30.5q-63 42.5 -97.5 120.5t-34.5 181t35.5 180t101 118.5t151.5 41.5q102 0 176 -78l-20 -22q-63 70 -156 70q-78 0 -135.5 -38t-88 -108t-30.5 -164q0 -95 29.5 -166t85 -109.5t131.5 -38.5q48 0 90.5 14.5t67.5 39.5v218h-164v28h196v-256q-31 -34 -80.5 -54
t-111.5 -20q-83 0 -146 42.5z" />
    <glyph glyph-name="H" unicode="H" horiz-adv-x="634" 
d="M100 660h32v-294h370v294h32v-660h-32v338h-370v-338h-32v660z" />
    <glyph glyph-name="I" unicode="I" horiz-adv-x="232" 
d="M100 660h32v-660h-32v660z" />
    <glyph glyph-name="J" unicode="J" horiz-adv-x="456" 
d="M108 12.5q-40 24.5 -64 69.5l26 16q25 -43 56.5 -61.5t75.5 -18.5q63 0 93.5 39t30.5 121v482h32v-486q0 -84 -38 -135t-120 -51q-52 0 -92 24.5z" />
    <glyph glyph-name="K" unicode="K" horiz-adv-x="550" 
d="M100 660h32v-380h2l336 380h40l-212 -242l240 -418h-38l-226 394l-142 -160v-234h-32v660z" />
    <glyph glyph-name="L" unicode="L" horiz-adv-x="460" 
d="M100 660h32v-632h310v-28h-342v660z" />
    <glyph glyph-name="M" unicode="M" horiz-adv-x="698" 
d="M100 660h52l142 -400l54 -150h4q18 50 26 75l26 75l142 400h52v-660h-32v460q0 64 4 172h-4l-51 -146l-149 -412h-34l-150 412l-52 146h-4q4 -108 4 -172v-460h-30v660z" />
    <glyph glyph-name="N" unicode="N" horiz-adv-x="632" 
d="M100 660h34l292 -484l76 -130h4q-4 128 -4 186v428h30v-660h-34l-292 484l-76 130h-4q4 -124 4 -180v-434h-30v660z" />
    <glyph glyph-name="O" unicode="O" horiz-adv-x="648" 
d="M185.5 30.5q-60.5 42.5 -95 121t-34.5 180.5t34 179t95 119t139 42t139 -42t95 -119t34 -179t-34.5 -180.5t-95 -121t-138.5 -42.5t-138.5 42.5zM446.5 57q53.5 39 82.5 110t29 165t-29 164t-82 108t-123 38t-123 -38t-82 -108t-29 -164t29 -165t82.5 -110t122.5 -39
t122.5 39z" />
    <glyph glyph-name="P" unicode="P" horiz-adv-x="542" 
d="M100 660h158q117 0 176.5 -42t59.5 -138q0 -93 -60 -140.5t-172 -47.5h-130v-292h-32v660zM250 320q108 0 159 38t51 122t-51 118t-163 34h-114v-312h118z" />
    <glyph glyph-name="Q" unicode="Q" horiz-adv-x="648" 
d="M582 -112l8 -30q-40 -10 -76 -10q-77 0 -131.5 38.5t-78.5 102.5q-73 5 -129 49t-87.5 120t-31.5 174q0 102 34 179t95 119t139 42t139 -42t95 -119t34 -179q0 -99 -32 -175t-89 -120t-130 -48q22 -52 67 -80.5t108 -28.5q34 0 66 8zM119.5 166.5q29.5 -71.5 82.5 -111
t122 -39.5t122 39.5t82.5 111t29.5 165.5t-29 164t-82 108t-123 38t-123 -38t-82 -108t-29 -164t29.5 -165.5z" />
    <glyph glyph-name="R" unicode="R" horiz-adv-x="534" 
d="M466 0l-186 312h-148v-312h-32v660h182q212 0 212 -170q0 -78 -47 -123t-131 -53l188 -314h-38zM270 340q93 0 141.5 37.5t48.5 112.5q0 76 -47.5 109t-142.5 33h-138v-292h138z" />
    <glyph glyph-name="S" unicode="S" horiz-adv-x="516" 
d="M48 88l22 22q37 -43 88 -67.5t110 -24.5q79 0 126.5 39.5t47.5 102.5q0 41 -15.5 68t-40.5 43t-66 35l-102 46q-59 27 -96.5 62t-37.5 100q0 46 24 82t66.5 56t95.5 20q56 0 102 -22t78 -56l-20 -22q-30 33 -70.5 51.5t-89.5 18.5q-69 0 -111.5 -34.5t-42.5 -91.5
q0 -38 17.5 -64t41 -40.5t57.5 -29.5l102 -46q44 -20 73.5 -40.5t48 -53t18.5 -80.5q0 -50 -25.5 -89.5t-72.5 -62t-108 -22.5q-134 0 -220 100z" />
    <glyph glyph-name="T" unicode="T" horiz-adv-x="520" 
d="M244 632h-214v28h460v-28h-214v-632h-32v632z" />
    <glyph glyph-name="U" unicode="U" horiz-adv-x="630" 
d="M159.5 47q-61.5 59 -61.5 199v414h32v-406q0 -127 51.5 -181.5t132.5 -54.5q83 0 135.5 54.5t52.5 181.5v406h30v-414q0 -140 -62.5 -199t-155.5 -59t-154.5 59z" />
    <glyph glyph-name="V" unicode="V" horiz-adv-x="482" 
d="M6 660h34l128 -396l18 -57q28 -89 54 -166h4q26 77 54 166l18 57l128 396h32l-218 -660h-32z" />
    <glyph glyph-name="W" unicode="W" horiz-adv-x="764" 
d="M30 660h34l88 -400l48 -216h4q16 72 52 216l108 400h36l108 -400l54 -216h4q16 72 23 108l23 108l88 400h32l-152 -660h-32l-128 474l-18 74l-18 74h-4q-10 -42 -19 -74q-4 -14 -9 -32.5t-10 -41.5l-126 -474h-32z" />
    <glyph glyph-name="X" unicode="X" horiz-adv-x="470" 
d="M218 342l-186 318h34l116 -204l54 -88h4q35 63 50 88l116 204h32l-186 -320l200 -340h-34l-122 212q-34 57 -42 70l-20 34h-4l-58 -104l-122 -212h-32z" />
    <glyph glyph-name="Y" unicode="Y" horiz-adv-x="436" 
d="M202 272l-198 388h34l106 -214l18 -36q22 -46 54 -106h4l14 25q45 83 60 117l106 214h32l-198 -388v-272h-32v272z" />
    <glyph glyph-name="Z" unicode="Z" horiz-adv-x="538" 
d="M52 18l392 614h-358v28h398v-18l-392 -614h396v-28h-436v18z" />
    <glyph glyph-name="bracketleft" unicode="[" horiz-adv-x="270" 
d="M100 708h152v-22h-128v-816h128v-22h-152v860z" />
    <glyph glyph-name="backslash" unicode="\" horiz-adv-x="360" 
d="M2 710h30l320 -870h-30z" />
    <glyph glyph-name="bracketright" unicode="]" horiz-adv-x="270" 
d="M18 -130h128v816h-128v22h152v-860h-152v22z" />
    <glyph glyph-name="asciicircum" unicode="^" 
d="M218 670h36l150 -378h-32l-82 214l-52 132h-4l-52 -132l-82 -214h-32z" />
    <glyph glyph-name="underscore" unicode="_" horiz-adv-x="500" 
d="M12 -82h476v-32h-476v32z" />
    <glyph glyph-name="grave" unicode="`" horiz-adv-x="532" 
d="M162 724l24 20l132 -154l-18 -16z" />
    <glyph glyph-name="a" unicode="a" horiz-adv-x="486" 
d="M99 20q-39 32 -39 97q0 79 74.5 121t239.5 60q2 70 -24 117t-94 47q-46 0 -86.5 -17.5t-69.5 -40.5l-16 24q32 24 77.5 43t96.5 19q78 0 112 -49.5t34 -130.5v-310h-26l-4 64h-2q-95 -76 -174 -76q-60 0 -99 32zM283 36q41 20 91 62v174q-154 -18 -218 -54.5t-64 -99.5
q0 -52 30.5 -77t77.5 -25q42 0 83 20z" />
    <glyph glyph-name="b" unicode="b" horiz-adv-x="538" 
d="M201.5 4q-38.5 16 -73.5 44h-2l-4 -48h-26v722h30v-214l-2 -96q93 78 170 78q95 0 143.5 -65t48.5 -179q0 -78 -28.5 -137t-77 -90t-106.5 -31q-34 0 -72.5 16zM367.5 45.5q40.5 29.5 63.5 82t23 118.5q0 98 -39 157t-123 59q-73 0 -166 -84v-296q39 -34 79 -50t71 -16
q51 0 91.5 29.5z" />
    <glyph glyph-name="c" unicode="c" horiz-adv-x="446" 
d="M158 18q-49 30 -76.5 86.5t-27.5 133.5t29 134.5t78 87.5t107 30q45 0 78 -16.5t62 -43.5l-20 -22q-58 54 -120 54q-51 0 -92.5 -28.5t-65.5 -79.5t-24 -116t22.5 -115.5t64 -78.5t95.5 -28q72 0 134 58l18 -22q-71 -64 -152 -64q-61 0 -110 30z" />
    <glyph glyph-name="d" unicode="d" horiz-adv-x="540" 
d="M107 53q-53 65 -53 185q0 75 29 132.5t78 88.5t107 31q41 0 74 -14.5t74 -45.5l-2 90v202h30v-722h-26l-4 64h-2q-76 -76 -160 -76q-92 0 -145 65zM333.5 37q38.5 21 80.5 63v296q-40 35 -75 50.5t-73 15.5q-50 0 -91.5 -30t-65 -81.5t-23.5 -112.5q0 -101 44 -161.5
t124 -60.5q41 0 79.5 21z" />
    <glyph glyph-name="e" unicode="e" horiz-adv-x="478" 
d="M438 238h-352q0 -67 24.5 -117.5t67.5 -77.5t96 -27q71 0 132 44l14 -26q-37 -22 -68.5 -34t-79.5 -12q-60 0 -110 30.5t-79 87t-29 132.5q0 75 29 132.5t76 88.5t101 31q84 0 132 -57.5t48 -162.5q0 -20 -2 -32zM410 266q0 96 -40 146t-110 50q-42 0 -79.5 -22
t-63 -66.5t-30.5 -107.5h323z" />
    <glyph glyph-name="f" unicode="f" horiz-adv-x="252" 
d="M130 592v-114h114v-28h-114v-450h-30v450h-66v24l66 4v118q0 69 29 103.5t81 34.5q31 0 66 -16l-10 -26q-28 14 -58 14q-78 0 -78 -114z" />
    <glyph glyph-name="g" unicode="g" horiz-adv-x="480" 
d="M106.5 -197.5q-52.5 36.5 -52.5 97.5q0 31 19.5 62.5t52.5 55.5v4q-19 11 -30.5 30.5t-11.5 45.5q0 29 16 51.5t36 36.5v4q-25 22 -42.5 57t-17.5 75q0 47 21.5 85.5t59.5 60.5t83 22q34 0 62 -12h160v-28h-116q26 -22 42 -55.5t16 -72.5q0 -47 -22 -86t-59.5 -61.5
t-82.5 -22.5q-21 0 -43.5 6t-38.5 16q-20 -16 -31 -33.5t-11 -40.5q0 -66 94 -66h106q79 0 116.5 -26t37.5 -82q0 -41 -27.5 -77.5t-78 -59.5t-114.5 -23q-91 0 -143.5 36.5zM305.5 198q30.5 18 48.5 50.5t18 73.5q0 62 -38.5 101t-93.5 39q-56 0 -94 -38.5t-38 -101.5
q0 -41 18 -73.5t48.5 -50.5t65.5 -18t65.5 18zM349.5 -187.5q42.5 18.5 65.5 48.5t23 63q0 41 -29 59.5t-87 18.5h-110q-23 0 -58 8q-34 -23 -51 -51t-17 -57q0 -49 44 -78.5t122 -29.5q55 0 97.5 18.5z" />
    <glyph glyph-name="h" unicode="h" horiz-adv-x="522" 
d="M96 722h30v-322q44 44 83 67t85 23q74 0 109 -44.5t35 -137.5v-308h-30v304q0 81 -27.5 119.5t-88.5 38.5q-43 0 -79.5 -22.5t-86.5 -73.5v-366h-30v722z" />
    <glyph glyph-name="i" unicode="i" horiz-adv-x="222" 
d="M96 478h30v-478h-30v478zM89 610q-9 10 -9 26q0 15 9 24.5t23 9.5t23 -9.5t9 -24.5q0 -16 -9 -26t-23 -10t-23 10z" />
    <glyph glyph-name="j" unicode="j" horiz-adv-x="222" 
d="M135 660.5q9 -9.5 9 -24.5q0 -16 -9 -26t-23 -10t-23 10t-9 26q0 15 9 24.5t23 9.5t23 -9.5zM96 478h30v-580q0 -68 -24 -100t-74 -32q-14 0 -30.5 3.5t-27.5 8.5l8 26q30 -10 52 -10q39 0 52.5 27.5t13.5 80.5v576z" />
    <glyph glyph-name="k" unicode="k" horiz-adv-x="452" 
d="M96 722h30v-548h2l248 304h36l-154 -188l182 -290h-34l-166 266l-114 -134v-132h-30v722z" />
    <glyph glyph-name="l" unicode="l" horiz-adv-x="230" 
d="M96 52v670h30v-676q0 -15 5.5 -22.5t14.5 -7.5q8 0 18 2l6 -26q-16 -4 -26 -4q-48 0 -48 64z" />
    <glyph glyph-name="m" unicode="m" horiz-adv-x="806" 
d="M96 478h26l4 -76h2q35 40 75 64t77 24q105 0 132 -100q90 100 164 100q71 0 106.5 -45t35.5 -137v-308h-30v304q0 80 -28 119t-86 39q-35 0 -72 -23.5t-80 -72.5v-366h-30v304q0 80 -28 119t-86 39q-68 0 -152 -96v-366h-30v478z" />
    <glyph glyph-name="n" unicode="n" horiz-adv-x="526" 
d="M96 478h26l4 -76h2q43 43 81.5 65.5t84.5 22.5q74 0 109 -44.5t35 -137.5v-308h-30v304q0 81 -27.5 119.5t-88.5 38.5q-43 0 -79.5 -22.5t-86.5 -73.5v-366h-30v478z" />
    <glyph glyph-name="o" unicode="o" horiz-adv-x="532" 
d="M159.5 18q-48.5 30 -77 87t-28.5 133q0 77 28.5 134.5t77 87.5t106.5 30t106.5 -30t77 -87.5t28.5 -134.5q0 -76 -28.5 -133t-77 -87t-106.5 -30t-106.5 30zM358 44q41 28 64.5 78.5t23.5 115.5t-23.5 116t-64.5 79.5t-92 28.5t-92 -28.5t-64.5 -79.5t-23.5 -116
t23.5 -115.5t64.5 -78.5t92 -28t92 28z" />
    <glyph glyph-name="p" unicode="p" horiz-adv-x="540" 
d="M96 478h26l4 -62h2q93 74 166 74q95 0 143.5 -65t48.5 -179q0 -78 -28.5 -137t-77 -90t-106.5 -31q-66 0 -148 60v-270h-30v700zM367.5 45.5q40.5 29.5 63.5 82t23 118.5q0 98 -39 157t-123 59q-70 0 -166 -84v-296q41 -34 80 -50t70 -16q51 0 91.5 29.5z" />
    <glyph glyph-name="q" unicode="q" horiz-adv-x="540" 
d="M414 -32l2 98q-82 -78 -164 -78q-92 0 -145 65t-53 185q0 75 29 132.5t78 88.5t107 31q41 0 73 -14t71 -42h2l4 44h26v-700h-30v190zM333.5 37q38.5 21 80.5 63v296q-40 35 -75 50.5t-73 15.5q-50 0 -91.5 -30t-65 -81.5t-23.5 -112.5q0 -101 44 -161.5t124 -60.5
q41 0 79.5 21z" />
    <glyph glyph-name="r" unicode="r" horiz-adv-x="306" 
d="M96 478h26l4 -90h2q26 47 60.5 74.5t75.5 27.5q26 0 46 -10l-8 -28q-13 5 -21 6.5t-21 1.5q-36 0 -71.5 -31t-62.5 -97v-332h-30v478z" />
    <glyph glyph-name="s" unicode="s" horiz-adv-x="400" 
d="M113 6q-44 18 -79 48l20 24q35 -30 71 -46t85 -16q57 0 89.5 29.5t32.5 72.5t-32.5 67.5t-87.5 44.5q-51 18 -81.5 32.5t-52.5 40t-22 63.5q0 52 40 88t110 36q35 0 70.5 -13t61.5 -35l-18 -24q-28 21 -55 32.5t-61 11.5q-56 0 -86 -27.5t-30 -66.5q0 -27 16 -45.5
t38.5 -30t61.5 -26.5q9 -4 59 -22t75.5 -49t25.5 -75q0 -36 -18.5 -66t-54 -48t-83.5 -18q-51 0 -95 18z" />
    <glyph glyph-name="t" unicode="t" horiz-adv-x="302" 
d="M131 23.5q-25 35.5 -25 102.5v324h-76v24l76 4l4 140h26v-140h142v-28h-142v-328q0 -52 17.5 -79t66.5 -27q26 0 62 16l10 -26q-50 -18 -74 -18q-62 0 -87 35.5z" />
    <glyph glyph-name="u" unicode="u" horiz-adv-x="524" 
d="M123 32.5q-35 44.5 -35 137.5v308h30v-304q0 -81 27.5 -119.5t88.5 -38.5q44 0 81 24t83 80v358h30v-478h-26l-4 82h-2q-39 -46 -78 -70t-86 -24q-74 0 -109 44.5z" />
    <glyph glyph-name="v" unicode="v" horiz-adv-x="422" 
d="M12 478h34l114 -310q19 -55 50 -136h4q31 81 50 136l114 310h32l-180 -478h-36z" />
    <glyph glyph-name="w" unicode="w" horiz-adv-x="672" 
d="M24 478h34l92 -322l11 -39q21 -79 23 -87h4l12 42l24 84l92 322h42l92 -322l24 -84l12 -42h4l12 42l24 84l90 322h32l-140 -478h-42l-90 312q-4 14 -19 68q-10 39 -19 68h-4q-24 -92 -40 -138l-88 -310h-38z" />
    <glyph glyph-name="x" unicode="x" horiz-adv-x="392" 
d="M178 250l-150 228h34l82 -128q16 -26 52 -78h4q18 26 26 39l26 39l80 128h32l-150 -230l164 -248h-34l-90 138q-25 42 -58 88h-4l-36 -54q-19 -30 -22 -34l-88 -138h-32z" />
    <glyph glyph-name="y" unicode="y" horiz-adv-x="424" 
d="M20 -212l8 28q20 -8 40 -8q43 0 75 36.5t53 99.5l14 44l-198 490h34l122 -314l14 -35q29 -74 40 -99h4q10 26 17 47.5t13 37.5q3 9 16 49l108 314h32l-192 -546q-21 -65 -59.5 -109.5t-94.5 -44.5q-26 0 -46 10z" />
    <glyph glyph-name="z" unicode="z" horiz-adv-x="396" 
d="M26 16l294 434h-262v28h302v-16l-294 -434h304v-28h-344v16z" />
    <glyph glyph-name="braceleft" unicode="{" horiz-adv-x="270" 
d="M139.5 -125q-25.5 27 -25.5 99q0 38 4 108q4 68 4 102q0 82 -86 82v24q86 0 86 80q0 35 -4 105t-4 107q0 72 25.5 99t82.5 27h30v-22h-32q-46 0 -63 -25.5t-17 -82.5q0 -47 3 -92q0 -15 1.5 -46.5t1.5 -57.5q0 -45 -10.5 -69t-37.5 -33v-4q27 -9 37.5 -33.5t10.5 -68.5
q0 -26 -1.5 -57.5t-1.5 -46.5q-3 -45 -3 -92q0 -57 17 -82.5t63 -25.5h32v-22h-30q-57 0 -82.5 27z" />
    <glyph glyph-name="bar" unicode="|" horiz-adv-x="220" 
d="M96 750h28v-1000h-28v1000z" />
    <glyph glyph-name="braceright" unicode="}" horiz-adv-x="270" 
d="M18 -130h32q46 0 63 25.5t17 82.5q0 47 -3 92q0 15 -1.5 46.5t-1.5 57.5q0 44 10.5 68.5t37.5 33.5v4q-27 9 -37.5 33t-10.5 69q0 26 1.5 57.5t1.5 46.5q3 45 3 92q0 57 -17 82.5t-63 25.5h-32v22h30q57 0 82.5 -27t25.5 -99q0 -37 -4 -107t-4 -105q0 -80 86 -80v-24
q-86 0 -86 -82q0 -34 4 -102q4 -70 4 -108q0 -72 -25.5 -99t-82.5 -27h-30v22z" />
    <glyph glyph-name="asciitilde" unicode="~" 
d="M276 283q-23 13 -54 38q-26 21 -43 31t-35 10q-24 0 -43.5 -14.5t-36.5 -49.5l-22 12q19 39 46.5 59.5t57.5 20.5q27 0 50 -13t54 -38q26 -21 43 -31t35 -10q24 0 43.5 14.5t36.5 49.5l22 -14q-19 -38 -46.5 -58t-57.5 -20q-27 0 -50 13z" />
    <glyph glyph-name="uni00A0" unicode="&#xa0;" horiz-adv-x="198" 
 />
    <glyph glyph-name="exclamdown" unicode="&#xa1;" horiz-adv-x="248" 
d="M99 423q-11 11 -11 29q0 17 11 27.5t25 10.5t25 -10.5t11 -27.5q0 -18 -10.5 -29t-25.5 -11q-14 0 -25 11zM108 -130l4 436h24l4 -436v-62h-32v62z" />
    <glyph glyph-name="cent" unicode="&#xa2;" 
d="M280 84v-110h-28v111q-85 8 -137.5 68t-52.5 159q0 67 25.5 116t68.5 77t96 34v113h28v-112q43 -1 75 -17t61 -43l-18 -20q-54 51 -118 52v-400q70 1 130 56l18 -20q-70 -63 -148 -64zM137 175q43 -54 115 -62v397q-69 -8 -113.5 -62.5t-44.5 -135.5q0 -83 43 -137z" />
    <glyph glyph-name="sterling" unicode="&#xa3;" 
d="M418 28v-28h-360v18q54 31 80 84t26 116q0 36 -10 78h-100v26l66 2h26l-9 30q-13 47 -19 74.5t-6 57.5q0 77 44 121.5t120 44.5q86 0 140 -70l-22 -20q-24 29 -52.5 45.5t-67.5 16.5q-62 0 -96 -39t-34 -97q0 -29 6 -55.5t18 -70.5q9 -29 11 -38h167v-28h-161
q9 -36 9 -78q0 -63 -19 -106t-57 -80v-4h300z" />
    <glyph glyph-name="currency" unicode="&#xa4;" 
d="M32 140l66 68q-38 51 -38 120q0 72 38 123l-66 69l20 22l66 -69q23 23 53.5 35t64.5 12q33 0 63.5 -12t54.5 -35l66 69l20 -22l-67 -69q39 -52 39 -123q0 -67 -38 -120l66 -68l-20 -22l-66 68q-23 -23 -54 -35.5t-64 -12.5q-34 0 -64.5 12.5t-54.5 35.5l-65 -68z
M308 186.5q33 20.5 52.5 57.5t19.5 84t-19.5 84.5t-52.5 58.5t-72 21t-72 -21t-52.5 -58.5t-19.5 -84.5t19.5 -84t52.5 -57.5t72 -20.5t72 20.5z" />
    <glyph glyph-name="yen" unicode="&#xa5;" 
d="M220 168h-168v28h168v74h-168v28h156l-176 342h34l100 -202q44 -88 68 -138h4l31 62q30 59 39 76l100 202h32l-178 -342h158v-28h-170v-74h170v-28h-170v-168h-30v168z" />
    <glyph glyph-name="brokenbar" unicode="&#xa6;" horiz-adv-x="220" 
d="M96 750h28v-476h-28v476zM96 222h28v-472h-28v472z" />
    <glyph glyph-name="section" unicode="&#xa7;" 
d="M397.5 208q-22.5 -29 -64.5 -51q35 -35 35 -85q0 -34 -19 -61.5t-50.5 -43t-66.5 -15.5q-89 0 -156 60l22 22q28 -27 58.5 -40.5t75.5 -13.5q47 0 76.5 26.5t29.5 63.5q0 32 -17.5 54t-43 36.5t-69.5 32.5q-52 22 -82.5 40t-52 48t-21.5 75q0 46 23.5 76.5t66.5 54.5
q-34 32 -34 81q0 28 14.5 53.5t43.5 42t72 16.5q72 0 134 -52l-18 -22q-28 23 -54 34.5t-62 11.5q-50 0 -75 -24t-25 -58q0 -30 17 -51.5t42 -35.5t67 -32q50 -21 81.5 -39.5t53 -49.5t21.5 -78t-22.5 -76zM370.5 218.5q19.5 22.5 19.5 63.5q0 38 -19 64t-47 42.5t-75 36.5
q-60 26 -84 43q-42 -23 -62.5 -47.5t-20.5 -62.5q0 -36 19 -61t46 -40.5t74 -35.5q6 -3 35.5 -16t52.5 -29q42 20 61.5 42.5z" />
    <glyph glyph-name="dieresis" unicode="&#xa8;" horiz-adv-x="532" 
d="M157 611.5q-9 9.5 -9 22.5q0 14 9 23t23 9q13 0 22.5 -9t9.5 -23q0 -13 -9.5 -22.5t-22.5 -9.5q-14 0 -23 9.5zM329.5 611.5q-9.5 9.5 -9.5 22.5q0 14 9.5 23t22.5 9q14 0 23 -9t9 -23q0 -13 -9 -22.5t-23 -9.5q-13 0 -22.5 9.5z" />
    <glyph glyph-name="copyright" unicode="&#xa9;" horiz-adv-x="740" 
d="M211 30q-73 42 -116 118t-43 174q0 97 43 172.5t116 116.5t159 41t159 -41t116 -116.5t43 -172.5q0 -98 -43 -174t-116 -118t-159 -42t-159 42zM513 53q66 39 105.5 109.5t39.5 159.5q0 88 -39.5 157.5t-105.5 108t-143 38.5t-143 -38.5t-105.5 -108t-39.5 -157.5
q0 -89 39.5 -159.5t105.5 -109.5t143 -39t143 39zM288 147.5q-39 23.5 -62.5 68.5t-23.5 106q0 56 24.5 98.5t65 65t88.5 22.5q37 0 64.5 -13.5t53.5 -40.5l-18 -22q-25 24 -48.5 35t-53.5 11q-62 0 -102 -43t-40 -113q0 -77 38.5 -122.5t101.5 -45.5t120 52l16 -22
q-32 -30 -62.5 -45t-75.5 -15q-47 0 -86 23.5z" />
    <glyph glyph-name="ordfeminine" unicode="&#xaa;" horiz-adv-x="334" 
d="M70.5 425.5q-26.5 23.5 -26.5 66.5q0 52 49.5 79.5t158.5 38.5q0 46 -16 72t-56 26q-29 0 -59.5 -12t-50.5 -26l-12 22q24 16 56.5 29t67.5 13q54 0 76 -31.5t22 -90.5v-202h-22l-6 40h-4q-56 -48 -108 -48q-43 0 -69.5 23.5zM252 480v108q-96 -10 -137 -33t-41 -61
q0 -33 19 -49.5t53 -16.5q51 0 106 52z" />
    <glyph glyph-name="guillemotleft" unicode="&#xab;" horiz-adv-x="388" 
d="M42 238v28l138 164l20 -18l-124 -160l124 -162l-20 -16zM176 238v28l138 164l20 -18l-124 -160l124 -162l-20 -16z" />
    <glyph glyph-name="logicalnot" unicode="&#xac;" 
d="M406 316h-372v28h404v-232h-32v204z" />
    <glyph glyph-name="uni00AD" unicode="&#xad;" horiz-adv-x="294" 
d="M40 264h216v-30h-216v30z" />
    <glyph glyph-name="registered" unicode="&#xae;" horiz-adv-x="392" 
d="M106 350q-41 24 -65.5 68t-24.5 100q0 57 24.5 101t65.5 68.5t90 24.5t90 -24.5t65.5 -68.5t24.5 -101q0 -56 -24.5 -100t-65.5 -68t-90 -24t-90 24zM272.5 373.5q34.5 21.5 55 59.5t20.5 85t-20.5 85.5t-55 60.5t-76.5 22t-76.5 -22t-55 -60.5t-20.5 -85.5t20.5 -85
t55 -59.5t76.5 -21.5t76.5 21.5zM130 626h66q33 0 54.5 -14.5t21.5 -49.5q0 -19 -11.5 -35t-28.5 -21l50 -88h-34l-40 78h-50v-78h-28v208zM188 522q54 0 54 38q0 40 -50 40h-34v-78h30z" />
    <glyph glyph-name="macron" unicode="&#xaf;" horiz-adv-x="532" 
d="M146 636h240v-28h-240v28z" />
    <glyph glyph-name="degree" unicode="&#xb0;" horiz-adv-x="304" 
d="M75 485q-33 31 -33 83q0 53 32.5 84.5t77.5 31.5t77.5 -31.5t32.5 -84.5q0 -52 -33 -83t-77 -31t-77 31zM211 505q23 25 23 63q0 39 -23 64.5t-59 25.5t-59 -25.5t-23 -64.5q0 -38 23 -63t59 -25t59 25z" />
    <glyph glyph-name="plusminus" unicode="&#xb1;" 
d="M220 312h-186v28h186v208h32v-208h186v-28h-186v-210h-32v210zM34 28h404v-28h-404v28z" />
    <glyph glyph-name="acute" unicode="&#xb4;" horiz-adv-x="532" 
d="M214 590l132 154l24 -20l-138 -150z" />
    <glyph glyph-name="paragraph" unicode="&#xb6;" horiz-adv-x="498" 
d="M107.5 299q-65.5 49 -65.5 155t61 156t169 50h44v-410h-26q-117 0 -182.5 49zM370 660h32v-740h-32v740z" />
    <glyph glyph-name="periodcentered" unicode="&#xb7;" horiz-adv-x="208" 
d="M79 294.5q-11 10.5 -11 27.5q0 19 11 29.5t25 10.5q15 0 25.5 -10.5t10.5 -29.5q0 -17 -11 -27.5t-25 -10.5t-25 10.5z" />
    <glyph glyph-name="cedilla" unicode="&#xb8;" horiz-adv-x="532" 
d="M186 -190q63 4 88.5 17t25.5 37q0 22 -18.5 34t-59.5 18l40 86h28l-30 -68q34 -8 52 -24t18 -44q0 -73 -138 -82z" />
    <glyph glyph-name="ordmasculine" unicode="&#xba;" horiz-adv-x="358" 
d="M75 447q-41 45 -41 121q0 77 41 121.5t103 44.5t103 -44.5t41 -121.5q0 -76 -41 -121t-103 -45t-103 45zM260.5 467q31.5 39 31.5 101q0 63 -31.5 101.5t-82.5 38.5t-82.5 -38.5t-31.5 -101.5q0 -62 31.5 -101t82.5 -39t82.5 39z" />
    <glyph glyph-name="guillemotright" unicode="&#xbb;" horiz-adv-x="388" 
d="M54 90l124 162l-124 160l20 18l138 -164v-28l-138 -164zM188 90l124 162l-124 160l20 18l138 -164v-28l-138 -164z" />
    <glyph glyph-name="onequarter" unicode="&#xbc;" horiz-adv-x="758" 
d="M578 672l-370 -684h-32l370 684h32zM158 270v330h-82v22q52 11 84 38h26v-390h-28zM708 118h-58v-118h-28v118h-176v16l182 256h22v-246h58v-26zM622 144v94l4 102h-4l-58 -84l-78 -112h136z" />
    <glyph glyph-name="onehalf" unicode="&#xbd;" horiz-adv-x="778" 
d="M522 672h32l-370 -684h-32zM158 600h-82v22q52 11 84 38h26v-390h-28v330zM476 20q78 73 117.5 115t59 76t19.5 67q0 45 -24.5 71.5t-65.5 26.5q-27 0 -51.5 -18t-42.5 -46l-20 18q17 30 49 51t67 21q54 0 86 -31t32 -91q0 -38 -19 -73.5t-50 -70t-93 -94.5l-16 -16h202
v-26h-250v20z" />
    <glyph glyph-name="threequarters" unicode="&#xbe;" horiz-adv-x="778" 
d="M268 288.5q-36 -30.5 -92 -30.5q-42 0 -77 21.5t-57 52.5l24 18q19 -29 48.5 -47.5t63.5 -18.5q41 0 68.5 23.5t27.5 64.5q0 40 -38.5 62t-105.5 22v24q59 0 93.5 26t34.5 62q0 35 -24 56.5t-64 21.5q-23 0 -47.5 -14.5t-44.5 -39.5l-20 18q21 28 50.5 45t63.5 17
q50 0 83 -27.5t33 -74.5q0 -36 -21.5 -61.5t-56.5 -38.5q39 -7 66.5 -32.5t27.5 -65.5q0 -53 -36 -83.5zM628 672l-370 -684h-32l370 684h32zM728 118h-58v-118h-28v118h-176v16l182 256h22v-246h58v-26zM642 144v94l4 102h-4l-58 -84l-78 -112h136z" />
    <glyph glyph-name="questiondown" unicode="&#xbf;" horiz-adv-x="394" 
d="M187 423q-11 11 -11 29q0 17 11 27.5t25 10.5t25 -10.5t11 -27.5q0 -18 -10.5 -29t-25.5 -11q-14 0 -25 11zM92 -161q-40 43 -40 107q0 42 18 76.5t56 85.5q39 51 58.5 88.5t19.5 84.5q0 7 -2 25h28q2 -20 2 -30q0 -51 -20 -90t-59 -90q-35 -46 -52 -77.5t-17 -70.5
q0 -52 30.5 -88t89.5 -36q38 0 73.5 17.5t60.5 48.5l20 -18q-69 -76 -156 -76q-70 0 -110 43z" />
    <glyph glyph-name="Agrave" unicode="&#xc0;" horiz-adv-x="520" 
d="M394 236h-269l-83 -236h-32l236 660h28l236 -660h-34zM384 264l-46 132q-53 151 -76 230h-4q-23 -79 -76 -230l-47 -132h249zM156 822l22 24l118 -120l-14 -16z" />
    <glyph glyph-name="Aacute" unicode="&#xc1;" horiz-adv-x="520" 
d="M394 236h-269l-83 -236h-32l236 660h28l236 -660h-34zM384 264l-46 132q-53 151 -76 230h-4q-23 -79 -76 -230l-47 -132h249zM224 726l118 120l22 -24l-126 -112z" />
    <glyph glyph-name="Acircumflex" unicode="&#xc2;" horiz-adv-x="520" 
d="M394 236h-269l-83 -236h-32l236 660h28l236 -660h-34zM384 264l-46 132q-53 151 -76 230h-4q-23 -79 -76 -230l-47 -132h249zM130 726l116 114h28l116 -114l-14 -16l-114 100h-4l-114 -100z" />
    <glyph glyph-name="Atilde" unicode="&#xc3;" horiz-adv-x="520" 
d="M394 236h-269l-83 -236h-32l236 660h28l236 -660h-34zM384 264l-46 132q-53 151 -76 230h-4q-23 -79 -76 -230l-47 -132h249zM291 733.5q-19 11.5 -43 34.5q-21 19 -34.5 27.5t-31.5 8.5q-23 0 -39 -22t-19 -58l-24 2q2 45 23.5 75.5t58.5 30.5q28 0 47 -11.5t43 -34.5
q21 -19 34.5 -27.5t31.5 -8.5q23 0 38 21.5t20 58.5l24 -2q-2 -45 -23.5 -75.5t-58.5 -30.5q-28 0 -47 11.5z" />
    <glyph glyph-name="Adieresis" unicode="&#xc4;" horiz-adv-x="520" 
d="M394 236h-269l-83 -236h-32l236 660h28l236 -660h-34zM384 264l-46 132q-53 151 -76 230h-4q-23 -79 -76 -230l-47 -132h249zM141 736.5q-9 8.5 -9 23.5t9 23.5t23 8.5t23 -8.5t9 -23.5t-9 -23.5t-23 -8.5t-23 8.5zM333 736.5q-9 8.5 -9 23.5t9 23.5t23 8.5t23 -8.5
t9 -23.5t-9 -23.5t-23 -8.5t-23 8.5z" />
    <glyph glyph-name="Aring" unicode="&#xc5;" horiz-adv-x="520" 
d="M394 236h-269l-83 -236h-32l236 660h28l236 -660h-34zM384 264l-46 132q-53 151 -76 230h-4q-23 -79 -76 -230l-47 -132h249zM200 723.5q-24 23.5 -24 60.5q0 38 24 61t60 23q35 0 59.5 -23.5t24.5 -60.5t-24.5 -60.5t-59.5 -23.5q-36 0 -60 23.5zM301.5 738.5
q16.5 16.5 16.5 45.5q0 28 -17 45t-41 17q-26 0 -43 -17t-17 -45q0 -30 17 -46t43 -16q25 0 41.5 16.5z" />
    <glyph glyph-name="AE" unicode="&#xc6;" horiz-adv-x="804" 
d="M758 28v-28h-344v226h-227l-127 -226h-34l372 660h350v-28h-302v-266h250v-28h-250v-310h312zM414 254v376h-4q-79 -143 -130 -238l-77 -138h211z" />
    <glyph glyph-name="Ccedilla" unicode="&#xc7;" horiz-adv-x="562" 
d="M186 30.5q-62 42.5 -96 120.5t-34 181t34.5 180t97.5 118.5t146 41.5q53 0 96 -22t72 -56l-20 -22q-28 33 -65.5 51.5t-82.5 18.5q-75 0 -130 -38t-84.5 -107.5t-29.5 -164.5q0 -94 29 -165t83.5 -110t127.5 -39q52 0 93 20.5t79 63.5l20 -20q-40 -46 -86 -70t-108 -24
q-80 0 -142 42.5z" />
    <glyph glyph-name="Egrave" unicode="&#xc8;" horiz-adv-x="510" 
d="M100 660h354v-28h-322v-266h270v-28h-270v-310h332v-28h-364v660zM178 822l22 24l118 -120l-14 -16z" />
    <glyph glyph-name="Eacute" unicode="&#xc9;" horiz-adv-x="510" 
d="M100 660h354v-28h-322v-266h270v-28h-270v-310h332v-28h-364v660zM246 726l118 120l22 -24l-126 -112z" />
    <glyph glyph-name="Ecircumflex" unicode="&#xca;" horiz-adv-x="510" 
d="M100 660h354v-28h-322v-266h270v-28h-270v-310h332v-28h-364v660zM152 726l116 114h28l116 -114l-14 -16l-114 100h-4l-114 -100z" />
    <glyph glyph-name="Edieresis" unicode="&#xcb;" horiz-adv-x="510" 
d="M100 660h354v-28h-322v-266h270v-28h-270v-310h332v-28h-364v660zM163 736.5q-9 8.5 -9 23.5t9 23.5t23 8.5t23 -8.5t9 -23.5t-9 -23.5t-23 -8.5t-23 8.5zM355 736.5q-9 8.5 -9 23.5t9 23.5t23 8.5t23 -8.5t9 -23.5t-9 -23.5t-23 -8.5t-23 8.5z" />
    <glyph glyph-name="Igrave" unicode="&#xcc;" horiz-adv-x="232" 
d="M100 660h32v-660h-32v660zM12 822l22 24l118 -120l-14 -16z" />
    <glyph glyph-name="Iacute" unicode="&#xcd;" horiz-adv-x="232" 
d="M100 660h32v-660h-32v660zM80 726l118 120l22 -24l-126 -112z" />
    <glyph glyph-name="Icircumflex" unicode="&#xce;" horiz-adv-x="232" 
d="M100 660h32v-660h-32v660zM-14 726l116 114h28l116 -114l-14 -16l-114 100h-4l-114 -100z" />
    <glyph glyph-name="Idieresis" unicode="&#xcf;" horiz-adv-x="232" 
d="M100 660h32v-660h-32v660zM-3 736.5q-9 8.5 -9 23.5t9 23.5t23 8.5t23 -8.5t9 -23.5t-9 -23.5t-23 -8.5t-23 8.5zM189 736.5q-9 8.5 -9 23.5t9 23.5t23 8.5t23 -8.5t9 -23.5t-9 -23.5t-23 -8.5t-23 8.5z" />
    <glyph glyph-name="Eth" unicode="&#xd0;" horiz-adv-x="620" 
d="M490 572.5q74 -87.5 74 -240.5t-74 -242.5t-222 -89.5h-148v336h-82v26l82 2v296h148q148 0 222 -87.5zM464.5 111q65.5 83 65.5 221t-65.5 219t-200.5 81h-112v-268h168v-28h-168v-308h112q135 0 200.5 83z" />
    <glyph glyph-name="Ntilde" unicode="&#xd1;" horiz-adv-x="632" 
d="M100 660h34l292 -484l76 -130h4q-4 128 -4 186v428h30v-660h-34l-292 484l-76 130h-4q4 -124 4 -180v-434h-30v660zM353 733.5q-19 11.5 -43 34.5q-21 19 -34.5 27.5t-31.5 8.5q-23 0 -39 -22t-19 -58l-24 2q2 45 23.5 75.5t58.5 30.5q28 0 47 -11.5t43 -34.5
q21 -19 34.5 -27.5t31.5 -8.5q23 0 38 21.5t20 58.5l24 -2q-2 -45 -23.5 -75.5t-58.5 -30.5q-28 0 -47 11.5z" />
    <glyph glyph-name="Ograve" unicode="&#xd2;" horiz-adv-x="648" 
d="M185.5 30.5q-60.5 42.5 -95 121t-34.5 180.5t34 179t95 119t139 42t139 -42t95 -119t34 -179t-34.5 -180.5t-95 -121t-138.5 -42.5t-138.5 42.5zM446.5 57q53.5 39 82.5 110t29 165t-29 164t-82 108t-123 38t-123 -38t-82 -108t-29 -164t29 -165t82.5 -110t122.5 -39
t122.5 39zM220 822l22 24l118 -120l-14 -16z" />
    <glyph glyph-name="Oacute" unicode="&#xd3;" horiz-adv-x="648" 
d="M185.5 30.5q-60.5 42.5 -95 121t-34.5 180.5t34 179t95 119t139 42t139 -42t95 -119t34 -179t-34.5 -180.5t-95 -121t-138.5 -42.5t-138.5 42.5zM446.5 57q53.5 39 82.5 110t29 165t-29 164t-82 108t-123 38t-123 -38t-82 -108t-29 -164t29 -165t82.5 -110t122.5 -39
t122.5 39zM288 726l118 120l22 -24l-126 -112z" />
    <glyph glyph-name="Ocircumflex" unicode="&#xd4;" horiz-adv-x="648" 
d="M185.5 30.5q-60.5 42.5 -95 121t-34.5 180.5t34 179t95 119t139 42t139 -42t95 -119t34 -179t-34.5 -180.5t-95 -121t-138.5 -42.5t-138.5 42.5zM446.5 57q53.5 39 82.5 110t29 165t-29 164t-82 108t-123 38t-123 -38t-82 -108t-29 -164t29 -165t82.5 -110t122.5 -39
t122.5 39zM194 726l116 114h28l116 -114l-14 -16l-114 100h-4l-114 -100z" />
    <glyph glyph-name="Otilde" unicode="&#xd5;" horiz-adv-x="648" 
d="M185.5 30.5q-60.5 42.5 -95 121t-34.5 180.5t34 179t95 119t139 42t139 -42t95 -119t34 -179t-34.5 -180.5t-95 -121t-138.5 -42.5t-138.5 42.5zM446.5 57q53.5 39 82.5 110t29 165t-29 164t-82 108t-123 38t-123 -38t-82 -108t-29 -164t29 -165t82.5 -110t122.5 -39
t122.5 39zM355 733.5q-19 11.5 -43 34.5q-21 19 -34.5 27.5t-31.5 8.5q-23 0 -39 -22t-19 -58l-24 2q2 45 23.5 75.5t58.5 30.5q28 0 47 -11.5t43 -34.5q21 -19 34.5 -27.5t31.5 -8.5q23 0 38 21.5t20 58.5l24 -2q-2 -45 -23.5 -75.5t-58.5 -30.5q-28 0 -47 11.5z" />
    <glyph glyph-name="Odieresis" unicode="&#xd6;" horiz-adv-x="648" 
d="M185.5 30.5q-60.5 42.5 -95 121t-34.5 180.5t34 179t95 119t139 42t139 -42t95 -119t34 -179t-34.5 -180.5t-95 -121t-138.5 -42.5t-138.5 42.5zM446.5 57q53.5 39 82.5 110t29 165t-29 164t-82 108t-123 38t-123 -38t-82 -108t-29 -164t29 -165t82.5 -110t122.5 -39
t122.5 39zM205 736.5q-9 8.5 -9 23.5t9 23.5t23 8.5t23 -8.5t9 -23.5t-9 -23.5t-23 -8.5t-23 8.5zM397 736.5q-9 8.5 -9 23.5t9 23.5t23 8.5t23 -8.5t9 -23.5t-9 -23.5t-23 -8.5t-23 8.5z" />
    <glyph glyph-name="multiply" unicode="&#xd7;" 
d="M52 160l164 170l-164 170l20 22l164 -172l164 172l20 -22l-164 -170l164 -170l-20 -22l-164 172l-164 -172z" />
    <glyph glyph-name="Oslash" unicode="&#xd8;" horiz-adv-x="648" 
d="M577 470.5q19 -62.5 19 -138.5q0 -102 -34.5 -180.5t-95 -121t-138.5 -42.5q-54 0 -100 21t-82 60l-66 -89l-22 16l70 95q-68 95 -68 241q0 102 34 179t95 119t139 42q51 0 96 -19t80 -54l60 81l22 -16l-64 -86q36 -45 55 -107.5zM148 118l337 455q-61 69 -157 69
q-70 0 -123 -38t-82 -108t-29 -164q0 -128 54 -214zM450.5 57q53.5 39 82.5 110t29 165q0 67 -15.5 122.5t-43.5 96.5l-338 -456q31 -37 72.5 -57t90.5 -20q69 0 122.5 39z" />
    <glyph glyph-name="Ugrave" unicode="&#xd9;" horiz-adv-x="630" 
d="M159.5 47q-61.5 59 -61.5 199v414h32v-406q0 -127 51.5 -181.5t132.5 -54.5q83 0 135.5 54.5t52.5 181.5v406h30v-414q0 -140 -62.5 -199t-155.5 -59t-154.5 59zM210 822l22 24l118 -120l-14 -16z" />
    <glyph glyph-name="Uacute" unicode="&#xda;" horiz-adv-x="630" 
d="M159.5 47q-61.5 59 -61.5 199v414h32v-406q0 -127 51.5 -181.5t132.5 -54.5q83 0 135.5 54.5t52.5 181.5v406h30v-414q0 -140 -62.5 -199t-155.5 -59t-154.5 59zM278 726l118 120l22 -24l-126 -112z" />
    <glyph glyph-name="Ucircumflex" unicode="&#xdb;" horiz-adv-x="630" 
d="M159.5 47q-61.5 59 -61.5 199v414h32v-406q0 -127 51.5 -181.5t132.5 -54.5q83 0 135.5 54.5t52.5 181.5v406h30v-414q0 -140 -62.5 -199t-155.5 -59t-154.5 59zM184 726l116 114h28l116 -114l-14 -16l-114 100h-4l-114 -100z" />
    <glyph glyph-name="Udieresis" unicode="&#xdc;" horiz-adv-x="630" 
d="M159.5 47q-61.5 59 -61.5 199v414h32v-406q0 -127 51.5 -181.5t132.5 -54.5q83 0 135.5 54.5t52.5 181.5v406h30v-414q0 -140 -62.5 -199t-155.5 -59t-154.5 59zM195 736.5q-9 8.5 -9 23.5t9 23.5t23 8.5t23 -8.5t9 -23.5t-9 -23.5t-23 -8.5t-23 8.5zM387 736.5
q-9 8.5 -9 23.5t9 23.5t23 8.5t23 -8.5t9 -23.5t-9 -23.5t-23 -8.5t-23 8.5z" />
    <glyph glyph-name="Yacute" unicode="&#xdd;" horiz-adv-x="436" 
d="M202 272l-198 388h34l106 -214l18 -36q22 -46 54 -106h4l14 25q45 83 60 117l106 214h32l-198 -388v-272h-32v272zM182 726l118 120l22 -24l-126 -112z" />
    <glyph glyph-name="Thorn" unicode="&#xde;" horiz-adv-x="556" 
d="M100 660h32v-120h140q115 0 173.5 -42t58.5 -138q0 -93 -60 -140.5t-172 -47.5h-140v-172h-32v660zM260 200q108 0 159 38t51 122q0 85 -50 118.5t-160 33.5h-128v-312h128z" />
    <glyph glyph-name="germandbls" unicode="&#xdf;" horiz-adv-x="530" 
d="M226 40l18 24q29 -25 56.5 -36.5t59.5 -11.5q51 0 79.5 31t28.5 75q0 35 -14.5 58t-36 37.5t-57.5 32.5t-56.5 32t-35 37t-14.5 57t13 58.5t40 58.5q24 30 36.5 53.5t12.5 53.5q0 47 -26 75.5t-74 28.5q-61 0 -95.5 -45t-34.5 -135v-524h-30v538q0 90 44.5 142t117.5 52
q59 0 94.5 -36.5t35.5 -93.5q0 -37 -14 -64t-41 -61q-24 -30 -35.5 -51t-11.5 -48q0 -37 23 -57.5t71 -44.5q39 -20 62.5 -36.5t40.5 -44.5t17 -71q0 -58 -40 -97t-100 -39q-75 0 -134 52z" />
    <glyph glyph-name="agrave" unicode="&#xe0;" horiz-adv-x="486" 
d="M99 20q-39 32 -39 97q0 79 74.5 121t239.5 60q2 70 -24 117t-94 47q-46 0 -86.5 -17.5t-69.5 -40.5l-16 24q32 24 77.5 43t96.5 19q78 0 112 -49.5t34 -130.5v-310h-26l-4 64h-2q-95 -76 -174 -76q-60 0 -99 32zM283 36q41 20 91 62v174q-154 -18 -218 -54.5t-64 -99.5
q0 -52 30.5 -77t77.5 -25q42 0 83 20zM156 724l24 20l132 -154l-18 -16z" />
    <glyph glyph-name="aacute" unicode="&#xe1;" horiz-adv-x="486" 
d="M99 20q-39 32 -39 97q0 79 74.5 121t239.5 60q2 70 -24 117t-94 47q-46 0 -86.5 -17.5t-69.5 -40.5l-16 24q32 24 77.5 43t96.5 19q78 0 112 -49.5t34 -130.5v-310h-26l-4 64h-2q-95 -76 -174 -76q-60 0 -99 32zM283 36q41 20 91 62v174q-154 -18 -218 -54.5t-64 -99.5
q0 -52 30.5 -77t77.5 -25q42 0 83 20zM208 590l132 154l24 -20l-138 -150z" />
    <glyph glyph-name="acircumflex" unicode="&#xe2;" horiz-adv-x="486" 
d="M99 20q-39 32 -39 97q0 79 74.5 121t239.5 60q2 70 -24 117t-94 47q-46 0 -86.5 -17.5t-69.5 -40.5l-16 24q32 24 77.5 43t96.5 19q78 0 112 -49.5t34 -130.5v-310h-26l-4 64h-2q-95 -76 -174 -76q-60 0 -99 32zM283 36q41 20 91 62v174q-154 -18 -218 -54.5t-64 -99.5
q0 -52 30.5 -77t77.5 -25q42 0 83 20zM128 590l118 146h28l118 -146l-18 -16l-112 130h-4l-112 -130z" />
    <glyph glyph-name="atilde" unicode="&#xe3;" horiz-adv-x="486" 
d="M99 20q-39 32 -39 97q0 79 74.5 121t239.5 60q2 70 -24 117t-94 47q-46 0 -86.5 -17.5t-69.5 -40.5l-16 24q32 24 77.5 43t96.5 19q78 0 112 -49.5t34 -130.5v-310h-26l-4 64h-2q-95 -76 -174 -76q-60 0 -99 32zM283 36q41 20 91 62v174q-154 -18 -218 -54.5t-64 -99.5
q0 -52 30.5 -77t77.5 -25q42 0 83 20zM291 594q-19 14 -43 41q-20 23 -34 34t-32 11q-27 0 -40.5 -27t-15.5 -71l-26 2q9 122 84 122q27 0 46 -14t42 -41q20 -23 34 -34t33 -11q26 0 39.5 27.5t15.5 70.5l26 -2q-9 -122 -83 -122q-27 0 -46 14z" />
    <glyph glyph-name="adieresis" unicode="&#xe4;" horiz-adv-x="486" 
d="M99 20q-39 32 -39 97q0 79 74.5 121t239.5 60q2 70 -24 117t-94 47q-46 0 -86.5 -17.5t-69.5 -40.5l-16 24q32 24 77.5 43t96.5 19q78 0 112 -49.5t34 -130.5v-310h-26l-4 64h-2q-95 -76 -174 -76q-60 0 -99 32zM283 36q41 20 91 62v174q-154 -18 -218 -54.5t-64 -99.5
q0 -52 30.5 -77t77.5 -25q42 0 83 20zM151 611.5q-9 9.5 -9 22.5q0 14 9 23t23 9q13 0 22.5 -9t9.5 -23q0 -13 -9.5 -22.5t-22.5 -9.5q-14 0 -23 9.5zM323.5 611.5q-9.5 9.5 -9.5 22.5q0 14 9.5 23t22.5 9q14 0 23 -9t9 -23q0 -13 -9 -22.5t-23 -9.5q-13 0 -22.5 9.5z" />
    <glyph glyph-name="aring" unicode="&#xe5;" horiz-adv-x="486" 
d="M99 20q-39 32 -39 97q0 79 74.5 121t239.5 60q2 70 -24 117t-94 47q-46 0 -86.5 -17.5t-69.5 -40.5l-16 24q32 24 77.5 43t96.5 19q78 0 112 -49.5t34 -130.5v-310h-26l-4 64h-2q-95 -76 -174 -76q-60 0 -99 32zM283 36q41 20 91 62v174q-154 -18 -218 -54.5t-64 -99.5
q0 -52 30.5 -77t77.5 -25q42 0 83 20zM194 572.5q-26 26.5 -26 67.5q0 42 26 68t66 26t66 -26t26 -68q0 -41 -26 -67.5t-66 -26.5t-66 26.5zM308.5 588q19.5 20 19.5 52t-19.5 52t-48.5 20t-48.5 -20t-19.5 -52t19.5 -52t48.5 -20t48.5 20z" />
    <glyph glyph-name="ae" unicode="&#xe6;" horiz-adv-x="784" 
d="M107 20q-39 32 -39 96q0 79 74 121.5t234 60.5q2 70 -24 117t-94 47q-42 0 -82 -17.5t-68 -40.5l-16 24q32 23 76 42.5t92 19.5q58 0 93.5 -33.5t46.5 -92.5q26 58 71.5 92t98.5 34q83 0 129.5 -57t46.5 -163q0 -20 -2 -32h-338q-1 -63 22 -113.5t64.5 -79.5t91.5 -29
q38 0 68 11.5t60 32.5l14 -26q-38 -23 -67 -34.5t-77 -11.5q-60 0 -100.5 28t-71.5 74q-46 -46 -102.5 -74t-101.5 -28q-60 0 -99 32zM716 264q0 97 -38.5 147.5t-107.5 50.5q-42 0 -77.5 -25.5t-58.5 -70.5t-28 -102h310zM303 43q53 27 95 73q-10 22 -16 56.5t-6 71.5v28
q-148 -18 -212 -54.5t-64 -99.5q0 -52 30.5 -77t77.5 -25q42 0 95 27z" />
    <glyph glyph-name="ccedilla" unicode="&#xe7;" horiz-adv-x="446" 
d="M312 -90q18 -16 18 -44q0 -73 -138 -82l-6 26q63 4 88.5 17t25.5 37q0 22 -18.5 34t-59.5 18l34 72q-58 3 -104 33.5t-72 86t-26 130.5q0 77 29 134.5t78 87.5t107 30q45 0 78 -16.5t62 -43.5l-20 -22q-58 54 -120 54q-51 0 -92.5 -28.5t-65.5 -79.5t-24 -116
t22.5 -115.5t64 -78.5t95.5 -28q72 0 134 58l18 -22q-63 -58 -136 -63l-24 -55q34 -8 52 -24z" />
    <glyph glyph-name="egrave" unicode="&#xe8;" horiz-adv-x="478" 
d="M438 238h-352q0 -67 24.5 -117.5t67.5 -77.5t96 -27q71 0 132 44l14 -26q-37 -22 -68.5 -34t-79.5 -12q-60 0 -110 30.5t-79 87t-29 132.5q0 75 29 132.5t76 88.5t101 31q84 0 132 -57.5t48 -162.5q0 -20 -2 -32zM410 266q0 96 -40 146t-110 50q-42 0 -79.5 -22
t-63 -66.5t-30.5 -107.5h323zM156 724l24 20l132 -154l-18 -16z" />
    <glyph glyph-name="eacute" unicode="&#xe9;" horiz-adv-x="478" 
d="M438 238h-352q0 -67 24.5 -117.5t67.5 -77.5t96 -27q71 0 132 44l14 -26q-37 -22 -68.5 -34t-79.5 -12q-60 0 -110 30.5t-79 87t-29 132.5q0 75 29 132.5t76 88.5t101 31q84 0 132 -57.5t48 -162.5q0 -20 -2 -32zM410 266q0 96 -40 146t-110 50q-42 0 -79.5 -22
t-63 -66.5t-30.5 -107.5h323zM208 590l132 154l24 -20l-138 -150z" />
    <glyph glyph-name="ecircumflex" unicode="&#xea;" horiz-adv-x="478" 
d="M438 238h-352q0 -67 24.5 -117.5t67.5 -77.5t96 -27q71 0 132 44l14 -26q-37 -22 -68.5 -34t-79.5 -12q-60 0 -110 30.5t-79 87t-29 132.5q0 75 29 132.5t76 88.5t101 31q84 0 132 -57.5t48 -162.5q0 -20 -2 -32zM410 266q0 96 -40 146t-110 50q-42 0 -79.5 -22
t-63 -66.5t-30.5 -107.5h323zM128 590l118 146h28l118 -146l-18 -16l-112 130h-4l-112 -130z" />
    <glyph glyph-name="edieresis" unicode="&#xeb;" horiz-adv-x="478" 
d="M438 238h-352q0 -67 24.5 -117.5t67.5 -77.5t96 -27q71 0 132 44l14 -26q-37 -22 -68.5 -34t-79.5 -12q-60 0 -110 30.5t-79 87t-29 132.5q0 75 29 132.5t76 88.5t101 31q84 0 132 -57.5t48 -162.5q0 -20 -2 -32zM410 266q0 96 -40 146t-110 50q-42 0 -79.5 -22
t-63 -66.5t-30.5 -107.5h323zM151 611.5q-9 9.5 -9 22.5q0 14 9 23t23 9q13 0 22.5 -9t9.5 -23q0 -13 -9.5 -22.5t-22.5 -9.5q-14 0 -23 9.5zM323.5 611.5q-9.5 9.5 -9.5 22.5q0 14 9.5 23t22.5 9q14 0 23 -9t9 -23q0 -13 -9 -22.5t-23 -9.5q-13 0 -22.5 9.5z" />
    <glyph glyph-name="igrave" unicode="&#xec;" horiz-adv-x="222" 
d="M96 478h30v-478h-30v478zM8 724l24 20l132 -154l-18 -16z" />
    <glyph glyph-name="iacute" unicode="&#xed;" horiz-adv-x="222" 
d="M96 478h30v-478h-30v478zM60 590l132 154l24 -20l-138 -150z" />
    <glyph glyph-name="icircumflex" unicode="&#xee;" horiz-adv-x="222" 
d="M96 478h30v-478h-30v478zM-20 590l118 146h28l118 -146l-18 -16l-112 130h-4l-112 -130z" />
    <glyph glyph-name="idieresis" unicode="&#xef;" horiz-adv-x="222" 
d="M96 478h30v-478h-30v478zM3 611.5q-9 9.5 -9 22.5q0 14 9 23t23 9q13 0 22.5 -9t9.5 -23q0 -13 -9.5 -22.5t-22.5 -9.5q-14 0 -23 9.5zM175.5 611.5q-9.5 9.5 -9.5 22.5q0 14 9.5 23t22.5 9q14 0 23 -9t9 -23q0 -13 -9 -22.5t-23 -9.5q-13 0 -22.5 9.5z" />
    <glyph glyph-name="eth" unicode="&#xf0;" horiz-adv-x="532" 
d="M329 607q64 -65 99.5 -152t35.5 -205q0 -79 -25 -138.5t-70 -91.5t-103 -32q-53 0 -100 28t-75.5 80.5t-28.5 121.5q0 65 26 115.5t73 78.5t109 28q44 0 83 -20t70 -59q-13 74 -43.5 130.5t-76.5 102.5l-141 -74l-12 22l133 70q-46 41 -127 88l16 22q82 -45 138 -96
l142 74l12 -22zM390.5 81.5q41.5 65.5 41.5 168.5q0 35 -3 65q-37 55 -76.5 76t-84.5 21q-55 0 -94.5 -26.5t-59.5 -71t-20 -96.5q0 -58 23 -104t62.5 -72t86.5 -26q83 0 124.5 65.5z" />
    <glyph glyph-name="ntilde" unicode="&#xf1;" horiz-adv-x="526" 
d="M96 478h26l4 -76h2q43 43 81.5 65.5t84.5 22.5q74 0 109 -44.5t35 -137.5v-308h-30v304q0 81 -27.5 119.5t-88.5 38.5q-43 0 -79.5 -22.5t-86.5 -73.5v-366h-30v478zM309 594q-19 14 -43 41q-20 23 -34 34t-32 11q-27 0 -40.5 -27t-15.5 -71l-26 2q9 122 84 122
q27 0 46 -14t42 -41q20 -23 34 -34t33 -11q26 0 39.5 27.5t15.5 70.5l26 -2q-9 -122 -83 -122q-27 0 -46 14z" />
    <glyph glyph-name="ograve" unicode="&#xf2;" horiz-adv-x="532" 
d="M159.5 18q-48.5 30 -77 87t-28.5 133q0 77 28.5 134.5t77 87.5t106.5 30t106.5 -30t77 -87.5t28.5 -134.5q0 -76 -28.5 -133t-77 -87t-106.5 -30t-106.5 30zM358 44q41 28 64.5 78.5t23.5 115.5t-23.5 116t-64.5 79.5t-92 28.5t-92 -28.5t-64.5 -79.5t-23.5 -116
t23.5 -115.5t64.5 -78.5t92 -28t92 28zM162 724l24 20l132 -154l-18 -16z" />
    <glyph glyph-name="oacute" unicode="&#xf3;" horiz-adv-x="532" 
d="M159.5 18q-48.5 30 -77 87t-28.5 133q0 77 28.5 134.5t77 87.5t106.5 30t106.5 -30t77 -87.5t28.5 -134.5q0 -76 -28.5 -133t-77 -87t-106.5 -30t-106.5 30zM358 44q41 28 64.5 78.5t23.5 115.5t-23.5 116t-64.5 79.5t-92 28.5t-92 -28.5t-64.5 -79.5t-23.5 -116
t23.5 -115.5t64.5 -78.5t92 -28t92 28zM214 590l132 154l24 -20l-138 -150z" />
    <glyph glyph-name="ocircumflex" unicode="&#xf4;" horiz-adv-x="532" 
d="M159.5 18q-48.5 30 -77 87t-28.5 133q0 77 28.5 134.5t77 87.5t106.5 30t106.5 -30t77 -87.5t28.5 -134.5q0 -76 -28.5 -133t-77 -87t-106.5 -30t-106.5 30zM358 44q41 28 64.5 78.5t23.5 115.5t-23.5 116t-64.5 79.5t-92 28.5t-92 -28.5t-64.5 -79.5t-23.5 -116
t23.5 -115.5t64.5 -78.5t92 -28t92 28zM134 590l118 146h28l118 -146l-18 -16l-112 130h-4l-112 -130z" />
    <glyph glyph-name="otilde" unicode="&#xf5;" horiz-adv-x="532" 
d="M159.5 18q-48.5 30 -77 87t-28.5 133q0 77 28.5 134.5t77 87.5t106.5 30t106.5 -30t77 -87.5t28.5 -134.5q0 -76 -28.5 -133t-77 -87t-106.5 -30t-106.5 30zM358 44q41 28 64.5 78.5t23.5 115.5t-23.5 116t-64.5 79.5t-92 28.5t-92 -28.5t-64.5 -79.5t-23.5 -116
t23.5 -115.5t64.5 -78.5t92 -28t92 28zM297 594q-19 14 -43 41q-20 23 -34 34t-32 11q-27 0 -40.5 -27t-15.5 -71l-26 2q9 122 84 122q27 0 46 -14t42 -41q20 -23 34 -34t33 -11q26 0 39.5 27.5t15.5 70.5l26 -2q-9 -122 -83 -122q-27 0 -46 14z" />
    <glyph glyph-name="odieresis" unicode="&#xf6;" horiz-adv-x="532" 
d="M159.5 18q-48.5 30 -77 87t-28.5 133q0 77 28.5 134.5t77 87.5t106.5 30t106.5 -30t77 -87.5t28.5 -134.5q0 -76 -28.5 -133t-77 -87t-106.5 -30t-106.5 30zM358 44q41 28 64.5 78.5t23.5 115.5t-23.5 116t-64.5 79.5t-92 28.5t-92 -28.5t-64.5 -79.5t-23.5 -116
t23.5 -115.5t64.5 -78.5t92 -28t92 28zM157 611.5q-9 9.5 -9 22.5q0 14 9 23t23 9q13 0 22.5 -9t9.5 -23q0 -13 -9.5 -22.5t-22.5 -9.5q-14 0 -23 9.5zM329.5 611.5q-9.5 9.5 -9.5 22.5q0 14 9.5 23t22.5 9q14 0 23 -9t9 -23q0 -13 -9 -22.5t-23 -9.5q-13 0 -22.5 9.5z" />
    <glyph glyph-name="divide" unicode="&#xf7;" 
d="M213 484q-9 10 -9 26q0 15 9 24.5t23 9.5t23 -9.5t9 -24.5q0 -16 -9 -26t-23 -10t-23 10zM34 344h404v-28h-404v28zM213 124q-9 10 -9 26q0 15 9 24.5t23 9.5t23 -9.5t9 -24.5q0 -16 -9 -26t-23 -10t-23 10z" />
    <glyph glyph-name="oslash" unicode="&#xf8;" horiz-adv-x="532" 
d="M427 409q51 -67 51 -171q0 -76 -28.5 -133t-77 -87t-106.5 -30q-40 0 -76.5 15t-64.5 43l-57 -68l-22 18l60 72q-52 68 -52 170q0 77 28.5 134.5t77 87.5t106.5 30q40 0 76.5 -15t65.5 -44l56 67l22 -18zM126 93l262 314q-50 55 -122 55q-51 0 -92 -28.5t-64.5 -79.5
t-23.5 -116q0 -86 40 -145zM406 384l-262 -314q51 -54 122 -54q51 0 92 28t64.5 78.5t23.5 115.5q0 85 -40 146z" />
    <glyph glyph-name="ugrave" unicode="&#xf9;" horiz-adv-x="524" 
d="M123 32.5q-35 44.5 -35 137.5v308h30v-304q0 -81 27.5 -119.5t88.5 -38.5q44 0 81 24t83 80v358h30v-478h-26l-4 82h-2q-39 -46 -78 -70t-86 -24q-74 0 -109 44.5zM158 724l24 20l132 -154l-18 -16z" />
    <glyph glyph-name="uacute" unicode="&#xfa;" horiz-adv-x="524" 
d="M123 32.5q-35 44.5 -35 137.5v308h30v-304q0 -81 27.5 -119.5t88.5 -38.5q44 0 81 24t83 80v358h30v-478h-26l-4 82h-2q-39 -46 -78 -70t-86 -24q-74 0 -109 44.5zM210 590l132 154l24 -20l-138 -150z" />
    <glyph glyph-name="ucircumflex" unicode="&#xfb;" horiz-adv-x="524" 
d="M123 32.5q-35 44.5 -35 137.5v308h30v-304q0 -81 27.5 -119.5t88.5 -38.5q44 0 81 24t83 80v358h30v-478h-26l-4 82h-2q-39 -46 -78 -70t-86 -24q-74 0 -109 44.5zM130 590l118 146h28l118 -146l-18 -16l-112 130h-4l-112 -130z" />
    <glyph glyph-name="udieresis" unicode="&#xfc;" horiz-adv-x="524" 
d="M123 32.5q-35 44.5 -35 137.5v308h30v-304q0 -81 27.5 -119.5t88.5 -38.5q44 0 81 24t83 80v358h30v-478h-26l-4 82h-2q-39 -46 -78 -70t-86 -24q-74 0 -109 44.5zM153 611.5q-9 9.5 -9 22.5q0 14 9 23t23 9q13 0 22.5 -9t9.5 -23q0 -13 -9.5 -22.5t-22.5 -9.5
q-14 0 -23 9.5zM325.5 611.5q-9.5 9.5 -9.5 22.5q0 14 9.5 23t22.5 9q14 0 23 -9t9 -23q0 -13 -9 -22.5t-23 -9.5q-13 0 -22.5 9.5z" />
    <glyph glyph-name="yacute" unicode="&#xfd;" horiz-adv-x="424" 
d="M20 -212l8 28q20 -8 40 -8q43 0 75 36.5t53 99.5l14 44l-198 490h34l122 -314l14 -35q29 -74 40 -99h4q10 26 17 47.5t13 37.5q3 9 16 49l108 314h32l-192 -546q-21 -65 -59.5 -109.5t-94.5 -44.5q-26 0 -46 10zM172 590l132 154l24 -20l-138 -150z" />
    <glyph glyph-name="thorn" unicode="&#xfe;" horiz-adv-x="540" 
d="M96 722h30v-306q45 34 86 54t82 20q95 0 143.5 -65t48.5 -179q0 -78 -28.5 -137t-77 -90t-106.5 -31q-66 0 -148 60v-270h-30v944zM367.5 45.5q40.5 29.5 63.5 82t23 118.5q0 98 -39 157t-123 59q-70 0 -166 -84v-296q41 -34 80 -50t70 -16q51 0 91.5 29.5z" />
    <glyph glyph-name="ydieresis" unicode="&#xff;" horiz-adv-x="424" 
d="M20 -212l8 28q20 -8 40 -8q43 0 75 36.5t53 99.5l14 44l-198 490h34l122 -314l14 -35q29 -74 40 -99h4q10 26 17 47.5t13 37.5q3 9 16 49l108 314h32l-192 -546q-21 -65 -59.5 -109.5t-94.5 -44.5q-26 0 -46 10zM115 611.5q-9 9.5 -9 22.5q0 14 9 23t23 9q13 0 22.5 -9
t9.5 -23q0 -13 -9.5 -22.5t-22.5 -9.5q-14 0 -23 9.5zM287.5 611.5q-9.5 9.5 -9.5 22.5q0 14 9.5 23t22.5 9q14 0 23 -9t9 -23q0 -13 -9 -22.5t-23 -9.5q-13 0 -22.5 9.5z" />
    <glyph glyph-name="Amacron" unicode="&#x100;" horiz-adv-x="520" 
d="M394 236h-269l-83 -236h-32l236 660h28l236 -660h-34zM384 264l-46 132q-53 151 -76 230h-4q-23 -79 -76 -230l-47 -132h249zM140 774h240v-28h-240v28z" />
    <glyph glyph-name="amacron" unicode="&#x101;" horiz-adv-x="486" 
d="M99 20q-39 32 -39 97q0 79 74.5 121t239.5 60q2 70 -24 117t-94 47q-46 0 -86.5 -17.5t-69.5 -40.5l-16 24q32 24 77.5 43t96.5 19q78 0 112 -49.5t34 -130.5v-310h-26l-4 64h-2q-95 -76 -174 -76q-60 0 -99 32zM283 36q41 20 91 62v174q-154 -18 -218 -54.5t-64 -99.5
q0 -52 30.5 -77t77.5 -25q42 0 83 20zM140 636h240v-28h-240v28z" />
    <glyph glyph-name="Abreve" unicode="&#x102;" horiz-adv-x="520" 
d="M394 236h-269l-83 -236h-32l236 660h28l236 -660h-34zM384 264l-46 132q-53 151 -76 230h-4q-23 -79 -76 -230l-47 -132h249zM167 749q-33 37 -39 85l26 4q6 -43 32.5 -71.5t73.5 -28.5t73.5 28.5t32.5 71.5l26 -4q-6 -48 -39 -85t-93 -37t-93 37z" />
    <glyph glyph-name="abreve" unicode="&#x103;" horiz-adv-x="486" 
d="M99 20q-39 32 -39 97q0 79 74.5 121t239.5 60q2 70 -24 117t-94 47q-46 0 -86.5 -17.5t-69.5 -40.5l-16 24q32 24 77.5 43t96.5 19q78 0 112 -49.5t34 -130.5v-310h-26l-4 64h-2q-95 -76 -174 -76q-60 0 -99 32zM283 36q41 20 91 62v174q-154 -18 -218 -54.5t-64 -99.5
q0 -52 30.5 -77t77.5 -25q42 0 83 20zM156.5 614q-35.5 44 -42.5 102l26 4q7 -50 37.5 -87t82.5 -37t82.5 37t37.5 87l26 -4q-7 -58 -42.5 -102t-103.5 -44t-103.5 44z" />
    <glyph glyph-name="Ccaron" unicode="&#x10c;" horiz-adv-x="562" 
d="M186 30.5q-62 42.5 -96 120.5t-34 181t34.5 180t97.5 118.5t146 41.5q53 0 96 -22t72 -56l-20 -22q-28 33 -65.5 51.5t-82.5 18.5q-75 0 -130 -38t-84.5 -107.5t-29.5 -164.5q0 -94 29 -165t83.5 -110t127.5 -39q52 0 93 20.5t79 63.5l20 -20q-40 -46 -86 -70t-108 -24
q-80 0 -142 42.5zM188 824l14 16l114 -100h4l114 100l14 -16l-116 -114h-28z" />
    <glyph glyph-name="ccaron" unicode="&#x10d;" horiz-adv-x="446" 
d="M158 18q-49 30 -76.5 86.5t-27.5 133.5t29 134.5t78 87.5t107 30q45 0 78 -16.5t62 -43.5l-20 -22q-58 54 -120 54q-51 0 -92.5 -28.5t-65.5 -79.5t-24 -116t22.5 -115.5t64 -78.5t95.5 -28q72 0 134 58l18 -22q-71 -64 -152 -64q-61 0 -110 30zM136 718l18 16l112 -130
h4l112 130l18 -16l-118 -146h-28z" />
    <glyph glyph-name="Emacron" unicode="&#x112;" horiz-adv-x="510" 
d="M100 660h354v-28h-322v-266h270v-28h-270v-310h332v-28h-364v660zM162 774h240v-28h-240v28z" />
    <glyph glyph-name="emacron" unicode="&#x113;" horiz-adv-x="478" 
d="M438 238h-352q0 -67 24.5 -117.5t67.5 -77.5t96 -27q71 0 132 44l14 -26q-37 -22 -68.5 -34t-79.5 -12q-60 0 -110 30.5t-79 87t-29 132.5q0 75 29 132.5t76 88.5t101 31q84 0 132 -57.5t48 -162.5q0 -20 -2 -32zM410 266q0 96 -40 146t-110 50q-42 0 -79.5 -22
t-63 -66.5t-30.5 -107.5h323zM140 636h240v-28h-240v28z" />
    <glyph glyph-name="Ebreve" unicode="&#x114;" horiz-adv-x="510" 
d="M100 660h354v-28h-322v-266h270v-28h-270v-310h332v-28h-364v660zM189 749q-33 37 -39 85l26 4q6 -43 32.5 -71.5t73.5 -28.5t73.5 28.5t32.5 71.5l26 -4q-6 -48 -39 -85t-93 -37t-93 37z" />
    <glyph glyph-name="ebreve" unicode="&#x115;" horiz-adv-x="478" 
d="M438 238h-352q0 -67 24.5 -117.5t67.5 -77.5t96 -27q71 0 132 44l14 -26q-37 -22 -68.5 -34t-79.5 -12q-60 0 -110 30.5t-79 87t-29 132.5q0 75 29 132.5t76 88.5t101 31q84 0 132 -57.5t48 -162.5q0 -20 -2 -32zM410 266q0 96 -40 146t-110 50q-42 0 -79.5 -22
t-63 -66.5t-30.5 -107.5h323zM156.5 614q-35.5 44 -42.5 102l26 4q7 -50 37.5 -87t82.5 -37t82.5 37t37.5 87l26 -4q-7 -58 -42.5 -102t-103.5 -44t-103.5 44z" />
    <glyph glyph-name="Eogonek" unicode="&#x118;" horiz-adv-x="510" 
d="M358.5 -181.5q-22.5 20.5 -22.5 59.5q0 36 20.5 69t51.5 53h-308v660h354v-28h-322v-266h270v-28h-270v-310h332v-28h-2q-36 -8 -66 -42.5t-30 -77.5q0 -26 15.5 -40t36.5 -14q24 0 44 14l14 -20q-11 -9 -28 -15.5t-32 -6.5q-35 0 -57.5 20.5z" />
    <glyph glyph-name="eogonek" unicode="&#x119;" horiz-adv-x="478" 
d="M297.5 -181.5q-21.5 20.5 -21.5 59.5q0 34 19.5 66t44.5 54q-27 -10 -68 -10q-60 0 -110 30.5t-79 87t-29 132.5q0 75 29 132.5t76 88.5t101 31q84 0 132 -57.5t48 -162.5q0 -20 -2 -32h-352q0 -64 23.5 -114.5t66 -79t98.5 -28.5q71 0 132 44l14 -26q-62 -46 -88 -82.5
t-26 -71.5q0 -26 14.5 -40t35.5 -14q24 0 44 14l14 -20q-11 -9 -28 -15.5t-32 -6.5q-35 0 -56.5 20.5zM410 266q0 96 -40 146t-110 50q-43 0 -81 -24t-63 -68.5t-30 -103.5h324z" />
    <glyph glyph-name="Gdotaccent" unicode="&#x120;" horiz-adv-x="600" 
d="M188 30.5q-63 42.5 -97.5 120.5t-34.5 181t35.5 180t101 118.5t151.5 41.5q102 0 176 -78l-20 -22q-63 70 -156 70q-78 0 -135.5 -38t-88 -108t-30.5 -164q0 -95 29.5 -166t85 -109.5t131.5 -38.5q48 0 90.5 14.5t67.5 39.5v218h-164v28h196v-256q-31 -34 -80.5 -54
t-111.5 -20q-83 0 -146 42.5zM318 734q-10 10 -10 26q0 15 10 24.5t24 9.5t24 -9.5t10 -24.5q0 -16 -10 -26t-24 -10t-24 10z" />
    <glyph glyph-name="gdotaccent" unicode="&#x121;" horiz-adv-x="480" 
d="M106.5 -197.5q-52.5 36.5 -52.5 97.5q0 31 19.5 62.5t52.5 55.5v4q-19 11 -30.5 30.5t-11.5 45.5q0 29 16 51.5t36 36.5v4q-25 22 -42.5 57t-17.5 75q0 47 21.5 85.5t59.5 60.5t83 22q34 0 62 -12h160v-28h-116q26 -22 42 -55.5t16 -72.5q0 -47 -22 -86t-59.5 -61.5
t-82.5 -22.5q-21 0 -43.5 6t-38.5 16q-20 -16 -31 -33.5t-11 -40.5q0 -66 94 -66h106q79 0 116.5 -26t37.5 -82q0 -41 -27.5 -77.5t-78 -59.5t-114.5 -23q-91 0 -143.5 36.5zM305.5 198q30.5 18 48.5 50.5t18 73.5q0 62 -38.5 101t-93.5 39q-56 0 -94 -38.5t-38 -101.5
q0 -41 18 -73.5t48.5 -50.5t65.5 -18t65.5 18zM349.5 -187.5q42.5 18.5 65.5 48.5t23 63q0 41 -29 59.5t-87 18.5h-110q-23 0 -58 8q-34 -23 -51 -51t-17 -57q0 -49 44 -78.5t122 -29.5q55 0 97.5 18.5zM225 610q-9 10 -9 26q0 15 9 24.5t23 9.5t23 -9.5t9 -24.5
q0 -16 -9 -26t-23 -10t-23 10z" />
    <glyph glyph-name="Hbar" unicode="&#x126;" horiz-adv-x="666" 
d="M628 496h-74v-496h-32v338h-370v-338h-32v496h-82v24l82 4v136h32v-136h370v136h32v-136h74v-28zM522 496h-370v-130h370v130z" />
    <glyph glyph-name="hbar" unicode="&#x127;" horiz-adv-x="522" 
d="M403 413.5q35 -44.5 35 -137.5v-276h-30v272q0 81 -27.5 119.5t-88.5 38.5q-43 0 -79.5 -22.5t-86.5 -73.5v-334h-30v584h-78v24l78 4v110h30v-110h192v-28h-192v-216q44 44 83 67t85 23q74 0 109 -44.5z" />
    <glyph glyph-name="Imacron" unicode="&#x12a;" horiz-adv-x="232" 
d="M100 660h32v-660h-32v660zM-4 774h240v-28h-240v28z" />
    <glyph glyph-name="imacron" unicode="&#x12b;" horiz-adv-x="222" 
d="M96 478h30v-478h-30v478zM-8 636h240v-28h-240v28z" />
    <glyph glyph-name="dotlessi" unicode="&#x131;" horiz-adv-x="222" 
d="M96 478h30v-478h-30v478z" />
    <glyph glyph-name="Lslash" unicode="&#x141;" horiz-adv-x="460" 
d="M446 28v-28h-342v264l-82 -44l-14 24l96 50v366h32v-352l190 100l14 -24l-204 -106v-250h310z" />
    <glyph glyph-name="lslash" unicode="&#x142;" horiz-adv-x="230" 
d="M164 18l6 -26q-16 -4 -26 -4q-48 0 -48 64v324l-68 -44l-14 22l82 54v314h30v-296l58 40l14 -22l-72 -50v-348q0 -15 5.5 -22.5t14.5 -7.5q8 0 18 2z" />
    <glyph glyph-name="Omacron" unicode="&#x14c;" horiz-adv-x="648" 
d="M185.5 30.5q-60.5 42.5 -95 121t-34.5 180.5t34 179t95 119t139 42t139 -42t95 -119t34 -179t-34.5 -180.5t-95 -121t-138.5 -42.5t-138.5 42.5zM446.5 57q53.5 39 82.5 110t29 165t-29 164t-82 108t-123 38t-123 -38t-82 -108t-29 -164t29 -165t82.5 -110t122.5 -39
t122.5 39zM204 774h240v-28h-240v28z" />
    <glyph glyph-name="omacron" unicode="&#x14d;" horiz-adv-x="532" 
d="M159.5 18q-48.5 30 -77 87t-28.5 133q0 77 28.5 134.5t77 87.5t106.5 30t106.5 -30t77 -87.5t28.5 -134.5q0 -76 -28.5 -133t-77 -87t-106.5 -30t-106.5 30zM358 44q41 28 64.5 78.5t23.5 115.5t-23.5 116t-64.5 79.5t-92 28.5t-92 -28.5t-64.5 -79.5t-23.5 -116
t23.5 -115.5t64.5 -78.5t92 -28t92 28zM146 636h240v-28h-240v28z" />
    <glyph glyph-name="Obreve" unicode="&#x14e;" horiz-adv-x="648" 
d="M185.5 30.5q-60.5 42.5 -95 121t-34.5 180.5t34 179t95 119t139 42t139 -42t95 -119t34 -179t-34.5 -180.5t-95 -121t-138.5 -42.5t-138.5 42.5zM446.5 57q53.5 39 82.5 110t29 165t-29 164t-82 108t-123 38t-123 -38t-82 -108t-29 -164t29 -165t82.5 -110t122.5 -39
t122.5 39zM231 749q-33 37 -39 85l26 4q6 -43 32.5 -71.5t73.5 -28.5t73.5 28.5t32.5 71.5l26 -4q-6 -48 -39 -85t-93 -37t-93 37z" />
    <glyph glyph-name="obreve" unicode="&#x14f;" horiz-adv-x="532" 
d="M159.5 18q-48.5 30 -77 87t-28.5 133q0 77 28.5 134.5t77 87.5t106.5 30t106.5 -30t77 -87.5t28.5 -134.5q0 -76 -28.5 -133t-77 -87t-106.5 -30t-106.5 30zM358 44q41 28 64.5 78.5t23.5 115.5t-23.5 116t-64.5 79.5t-92 28.5t-92 -28.5t-64.5 -79.5t-23.5 -116
t23.5 -115.5t64.5 -78.5t92 -28t92 28zM162.5 614q-35.5 44 -42.5 102l26 4q7 -50 37.5 -87t82.5 -37t82.5 37t37.5 87l26 -4q-7 -58 -42.5 -102t-103.5 -44t-103.5 44z" />
    <glyph glyph-name="OE" unicode="&#x152;" horiz-adv-x="828" 
d="M134.5 90q-78.5 90 -78.5 242t78.5 240t231.5 88h406v-28h-302v-266h250v-28h-250v-310h312v-28h-416q-153 0 -231.5 90zM438 28v604h-68q-140 0 -210 -81.5t-70 -218.5q0 -138 70 -221t210 -83h68z" />
    <glyph glyph-name="oe" unicode="&#x153;" horiz-adv-x="852" 
d="M158.5 18q-47.5 30 -76 87t-28.5 133q0 77 28.5 134.5t76 87.5t103.5 30q61 0 113 -39t77 -111q26 70 74 110t108 40q84 0 132 -57.5t48 -162.5q0 -20 -2 -32h-344q-1 -63 22.5 -113.5t65 -79.5t92.5 -29q71 0 132 44l14 -26q-37 -22 -68.5 -34t-79.5 -12
q-65 0 -116.5 40t-77.5 108q-27 -73 -76 -110.5t-114 -37.5q-56 0 -103.5 30zM353 44q40 28 62.5 78.5t22.5 115.5t-22.5 116t-63 79.5t-90.5 28.5t-90 -28.5t-63 -79.5t-23 -116t23 -115.5t63 -78.5t90 -28q51 0 91 28zM784 264q0 97 -40.5 147.5t-109.5 50.5
q-42 0 -78 -25.5t-59.5 -70.5t-28.5 -102h316z" />
    <glyph glyph-name="Sacute" unicode="&#x15a;" horiz-adv-x="516" 
d="M48 88l22 22q37 -43 88 -67.5t110 -24.5q79 0 126.5 39.5t47.5 102.5q0 41 -15.5 68t-40.5 43t-66 35l-102 46q-59 27 -96.5 62t-37.5 100q0 46 24 82t66.5 56t95.5 20q56 0 102 -22t78 -56l-20 -22q-30 33 -70.5 51.5t-89.5 18.5q-69 0 -111.5 -34.5t-42.5 -91.5
q0 -38 17.5 -64t41 -40.5t57.5 -29.5l102 -46q44 -20 73.5 -40.5t48 -53t18.5 -80.5q0 -50 -25.5 -89.5t-72.5 -62t-108 -22.5q-134 0 -220 100zM232 726l118 120l22 -24l-126 -112z" />
    <glyph glyph-name="sacute" unicode="&#x15b;" horiz-adv-x="400" 
d="M113 6q-44 18 -79 48l20 24q35 -30 71 -46t85 -16q57 0 89.5 29.5t32.5 72.5t-32.5 67.5t-87.5 44.5q-51 18 -81.5 32.5t-52.5 40t-22 63.5q0 52 40 88t110 36q35 0 70.5 -13t61.5 -35l-18 -24q-28 21 -55 32.5t-61 11.5q-56 0 -86 -27.5t-30 -66.5q0 -27 16 -45.5
t38.5 -30t61.5 -26.5q9 -4 59 -22t75.5 -49t25.5 -75q0 -36 -18.5 -66t-54 -48t-83.5 -18q-51 0 -95 18zM154 590l132 154l24 -20l-138 -150z" />
    <glyph glyph-name="Scaron" unicode="&#x160;" horiz-adv-x="516" 
d="M48 88l22 22q37 -43 88 -67.5t110 -24.5q79 0 126.5 39.5t47.5 102.5q0 41 -15.5 68t-40.5 43t-66 35l-102 46q-59 27 -96.5 62t-37.5 100q0 46 24 82t66.5 56t95.5 20q56 0 102 -22t78 -56l-20 -22q-30 33 -70.5 51.5t-89.5 18.5q-69 0 -111.5 -34.5t-42.5 -91.5
q0 -38 17.5 -64t41 -40.5t57.5 -29.5l102 -46q44 -20 73.5 -40.5t48 -53t18.5 -80.5q0 -50 -25.5 -89.5t-72.5 -62t-108 -22.5q-134 0 -220 100zM138 824l14 16l114 -100h4l114 100l14 -16l-116 -114h-28z" />
    <glyph glyph-name="scaron" unicode="&#x161;" horiz-adv-x="400" 
d="M113 6q-44 18 -79 48l20 24q35 -30 71 -46t85 -16q57 0 89.5 29.5t32.5 72.5t-32.5 67.5t-87.5 44.5q-51 18 -81.5 32.5t-52.5 40t-22 63.5q0 52 40 88t110 36q35 0 70.5 -13t61.5 -35l-18 -24q-28 21 -55 32.5t-61 11.5q-56 0 -86 -27.5t-30 -66.5q0 -27 16 -45.5
t38.5 -30t61.5 -26.5q9 -4 59 -22t75.5 -49t25.5 -75q0 -36 -18.5 -66t-54 -48t-83.5 -18q-51 0 -95 18zM74 718l18 16l112 -130h4l112 130l18 -16l-118 -146h-28z" />
    <glyph glyph-name="Umacron" unicode="&#x16a;" horiz-adv-x="630" 
d="M159.5 47q-61.5 59 -61.5 199v414h32v-406q0 -127 51.5 -181.5t132.5 -54.5q83 0 135.5 54.5t52.5 181.5v406h30v-414q0 -140 -62.5 -199t-155.5 -59t-154.5 59zM194 774h240v-28h-240v28z" />
    <glyph glyph-name="umacron" unicode="&#x16b;" horiz-adv-x="524" 
d="M123 32.5q-35 44.5 -35 137.5v308h30v-304q0 -81 27.5 -119.5t88.5 -38.5q44 0 81 24t83 80v358h30v-478h-26l-4 82h-2q-39 -46 -78 -70t-86 -24q-74 0 -109 44.5zM142 636h240v-28h-240v28z" />
    <glyph glyph-name="Ydieresis" unicode="&#x178;" horiz-adv-x="436" 
d="M202 272l-198 388h34l106 -214l18 -36q22 -46 54 -106h4l14 25q45 83 60 117l106 214h32l-198 -388v-272h-32v272zM99 736.5q-9 8.5 -9 23.5t9 23.5t23 8.5t23 -8.5t9 -23.5t-9 -23.5t-23 -8.5t-23 8.5zM291 736.5q-9 8.5 -9 23.5t9 23.5t23 8.5t23 -8.5t9 -23.5
t-9 -23.5t-23 -8.5t-23 8.5z" />
    <glyph glyph-name="Zcaron" unicode="&#x17d;" horiz-adv-x="538" 
d="M52 18l392 614h-358v28h398v-18l-392 -614h396v-28h-436v18zM148 824l14 16l114 -100h4l114 100l14 -16l-116 -114h-28z" />
    <glyph glyph-name="zcaron" unicode="&#x17e;" horiz-adv-x="396" 
d="M26 16l294 434h-262v28h302v-16l-294 -434h304v-28h-344v16zM84 718l18 16l112 -130h4l112 130l18 -16l-118 -146h-28z" />
    <glyph glyph-name="uni018F" unicode="&#x18f;" horiz-adv-x="644" 
d="M519.5 583.5q68.5 -88.5 68.5 -251.5q0 -107 -32.5 -184.5t-93 -118.5t-142.5 -41q-80 0 -138 43t-88 119.5t-30 175.5v6h492q0 148 -59.5 230t-170.5 82q-51 0 -96.5 -18t-77.5 -50l-18 22q33 33 82.5 53.5t107.5 20.5q127 0 195.5 -88.5zM487 92.5q62 76.5 68 211.5
h-459q2 -86 30.5 -151.5t79 -101t114.5 -35.5q105 0 167 76.5z" />
    <glyph glyph-name="florin" unicode="&#x192;" 
d="M256 472l-7 -68h143v-28h-146l-30 -276q-10 -97 -44.5 -147.5t-101.5 -50.5q-33 0 -62 16l12 24q24 -12 54 -12q52 0 78 45.5t34 122.5l30 278h-98v24l66 4h35l7 66q10 97 43 149.5t95 52.5q22 0 37 -4.5t35 -13.5l-10 -26q-18 8 -31.5 12t-32.5 4q-88 0 -106 -172z" />
    <glyph glyph-name="Gcaron" unicode="&#x1e6;" horiz-adv-x="600" 
d="M188 30.5q-63 42.5 -97.5 120.5t-34.5 181t35.5 180t101 118.5t151.5 41.5q102 0 176 -78l-20 -22q-63 70 -156 70q-78 0 -135.5 -38t-88 -108t-30.5 -164q0 -95 29.5 -166t85 -109.5t131.5 -38.5q48 0 90.5 14.5t67.5 39.5v218h-164v28h196v-256q-31 -34 -80.5 -54
t-111.5 -20q-83 0 -146 42.5zM212 824l14 16l114 -100h4l114 100l14 -16l-116 -114h-28z" />
    <glyph glyph-name="gcaron" unicode="&#x1e7;" horiz-adv-x="480" 
d="M106.5 -197.5q-52.5 36.5 -52.5 97.5q0 31 19.5 62.5t52.5 55.5v4q-19 11 -30.5 30.5t-11.5 45.5q0 29 16 51.5t36 36.5v4q-25 22 -42.5 57t-17.5 75q0 47 21.5 85.5t59.5 60.5t83 22q34 0 62 -12h160v-28h-116q26 -22 42 -55.5t16 -72.5q0 -47 -22 -86t-59.5 -61.5
t-82.5 -22.5q-21 0 -43.5 6t-38.5 16q-20 -16 -31 -33.5t-11 -40.5q0 -66 94 -66h106q79 0 116.5 -26t37.5 -82q0 -41 -27.5 -77.5t-78 -59.5t-114.5 -23q-91 0 -143.5 36.5zM305.5 198q30.5 18 48.5 50.5t18 73.5q0 62 -38.5 101t-93.5 39q-56 0 -94 -38.5t-38 -101.5
q0 -41 18 -73.5t48.5 -50.5t65.5 -18t65.5 18zM349.5 -187.5q42.5 18.5 65.5 48.5t23 63q0 41 -29 59.5t-87 18.5h-110q-23 0 -58 8q-34 -23 -51 -51t-17 -57q0 -49 44 -78.5t122 -29.5q55 0 97.5 18.5zM116 718l18 16l112 -130h4l112 130l18 -16l-118 -146h-28z" />
    <glyph glyph-name="uni0250" unicode="&#x250;" horiz-adv-x="494" 
d="M128.5 40.5q-40.5 52.5 -40.5 137.5v300h26l4 -74h2q41 40 89 63t95 23q56 0 92 -29.5t36 -89.5q0 -83 -74.5 -127.5t-239.5 -63.5q-2 -67 31 -115.5t117 -48.5q43 0 81 17.5t65 40.5l16 -24q-30 -23 -73 -42.5t-91 -19.5q-95 0 -135.5 52.5zM336 264q64 39 64 106
q0 47 -27.5 69.5t-70.5 22.5q-90 0 -184 -94v-162q154 19 218 58z" />
    <glyph glyph-name="uni0254" unicode="&#x254;" horiz-adv-x="446" 
d="M26 52l18 22q62 -58 134 -58q53 0 94.5 28t64.5 78.5t23 115.5q0 66 -23 117t-62 79t-87 28q-41 0 -71.5 -14t-58.5 -40l-20 22q33 29 66.5 44.5t85.5 15.5q54 0 100 -30t74 -87t28 -135q0 -77 -28 -133.5t-77 -86.5t-109 -30q-81 0 -152 64z" />
    <glyph glyph-name="uni0259" unicode="&#x259;" horiz-adv-x="478" 
d="M91 48q-53 60 -53 170q0 22 2 34h352q0 91 -45.5 150.5t-124.5 59.5q-41 0 -74.5 -12.5t-65.5 -35.5l-14 26q34 23 70.5 36.5t85.5 13.5q58 0 103.5 -29.5t71 -86t25.5 -134.5q0 -77 -25 -134t-69.5 -87.5t-101.5 -30.5q-84 0 -137 60zM342 71.5q43 55.5 50 152.5h-324
q0 -104 43.5 -156t116.5 -52q71 0 114 55.5z" />
    <glyph glyph-name="uni025B" unicode="&#x25b;" horiz-adv-x="422" 
d="M103.5 27q-49.5 39 -49.5 101q0 50 32.5 81t77.5 43v4q-38 15 -60 45t-22 67q0 58 45 90t111 32q77 0 138 -51l-16 -23q-32 23 -61 34.5t-63 11.5q-52 0 -87 -24.5t-35 -71.5q0 -45 37 -72.5t111 -27.5h44v-28h-58q-76 0 -119 -29t-43 -80t42 -82t110 -31q42 0 75 12.5
t70 42.5l17 -24q-40 -31 -78 -45t-88 -14q-81 0 -130.5 39z" />
    <glyph glyph-name="uni0283" unicode="&#x283;" horiz-adv-x="222" 
d="M-2.5 -230.5q-16.5 3.5 -27.5 8.5l8 26q30 -10 52 -10q39 0 52.5 27.5t13.5 80.5v702q0 68 26.5 100t81.5 32q24 0 48 -12l-8 -26q-25 10 -42 10q-44 0 -60 -27.5t-16 -80.5v-702q0 -68 -24 -100t-74 -32q-14 0 -30.5 3.5z" />
    <glyph glyph-name="uni028E" unicode="&#x28e;" horiz-adv-x="424" 
d="M216 580q21 65 59.5 109.5t94.5 44.5q26 0 46 -10l-8 -28q-20 8 -40 8q-43 0 -75 -36.5t-53 -99.5l-26 -78l198 -490h-34l-122 314l-14 35q-29 74 -40 99h-4q-10 -26 -17 -47.5t-13 -37.5q-3 -9 -16 -49l-108 -314h-32z" />
    <glyph glyph-name="uni0292" unicode="&#x292;" horiz-adv-x="396" 
d="M82 -213.5q-43 20.5 -80 54.5l20 22q33 -32 72 -50.5t98 -18.5q42 0 77.5 23t57 65t21.5 94q0 77 -42 120.5t-122 43.5q-20 0 -32.5 -4t-35.5 -16l-20 26l224 304h-272v28h312v-16l-220 -300q35 7 58 7q55 0 96 -24.5t63.5 -68t22.5 -98.5q0 -65 -27 -113t-70.5 -73.5
t-92.5 -25.5q-65 0 -108 20.5z" />
    <glyph glyph-name="uni0294" unicode="&#x294;" horiz-adv-x="392" 
d="M160 330q92 48 135 100t43 124q0 69 -40 110.5t-112 41.5q-56 0 -94.5 -22t-69.5 -58l-20 22q34 38 77 62t105 24q82 0 134 -48t52 -134q0 -82 -45.5 -136.5t-134.5 -107.5v-308h-30v330z" />
    <glyph glyph-name="uni0295" unicode="&#x295;" horiz-adv-x="392" 
d="M202 308q-89 53 -134.5 107.5t-45.5 136.5q0 86 54.5 134t141.5 48q59 0 99.5 -24t72.5 -62l-20 -22q-29 36 -65.5 58t-88.5 22q-77 0 -119.5 -41.5t-42.5 -110.5q0 -72 43 -124t135 -100v-330h-30v308z" />
    <glyph glyph-name="uni02A7" unicode="&#x2a7;" horiz-adv-x="302" 
d="M297.5 -230.5q-16.5 3.5 -27.5 8.5l8 26q30 -10 52 -10q39 0 52.5 27.5t13.5 80.5v702q0 68 26.5 100t81.5 32q24 0 48 -12l-8 -26q-25 10 -42 10q-44 0 -60 -27.5t-16 -80.5v-702q0 -68 -24 -100t-74 -32q-14 0 -30.5 3.5zM131 23.5q-25 35.5 -25 102.5v324h-76v24l76 4
l4 140h26v-140h142v-28h-142v-328q0 -52 17.5 -79t66.5 -27q26 0 62 16l10 -26q-50 -18 -74 -18q-62 0 -87 35.5z" />
    <glyph glyph-name="uni02B9" unicode="&#x2b9;" horiz-adv-x="208" 
 />
    <glyph glyph-name="circumflex" unicode="&#x2c6;" horiz-adv-x="532" 
d="M134 590l118 146h28l118 -146l-18 -16l-112 130h-4l-112 -130z" />
    <glyph glyph-name="caron" unicode="&#x2c7;" horiz-adv-x="532" 
d="M134 718l18 16l112 -130h4l112 130l18 -16l-118 -146h-28z" />
    <glyph glyph-name="uni02C8" unicode="&#x2c8;" horiz-adv-x="88" 
d="M28 716h32l-6 -188h-20z" />
    <glyph glyph-name="uni02D0" unicode="&#x2d0;" horiz-adv-x="208" 
d="M56 442h96l-44 -94h-8zM100 96h8l44 -96h-96z" />
    <glyph glyph-name="breve" unicode="&#x2d8;" horiz-adv-x="532" 
d="M162.5 614q-35.5 44 -42.5 102l26 4q7 -50 37.5 -87t82.5 -37t82.5 37t37.5 87l26 -4q-7 -58 -42.5 -102t-103.5 -44t-103.5 44z" />
    <glyph glyph-name="dotaccent" unicode="&#x2d9;" horiz-adv-x="532" 
d="M243 610q-9 10 -9 26q0 15 9 24.5t23 9.5t23 -9.5t9 -24.5q0 -16 -9 -26t-23 -10t-23 10z" />
    <glyph glyph-name="ring" unicode="&#x2da;" horiz-adv-x="532" 
d="M200 572.5q-26 26.5 -26 67.5q0 42 26 68t66 26t66 -26t26 -68q0 -41 -26 -67.5t-66 -26.5t-66 26.5zM314.5 588q19.5 20 19.5 52t-19.5 52t-48.5 20t-48.5 -20t-19.5 -52t19.5 -52t48.5 -20t48.5 20z" />
    <glyph glyph-name="ogonek" unicode="&#x2db;" horiz-adv-x="532" 
 />
    <glyph glyph-name="tilde" unicode="&#x2dc;" horiz-adv-x="532" 
d="M297 594q-19 14 -43 41q-20 23 -34 34t-32 11q-27 0 -40.5 -27t-15.5 -71l-26 2q9 122 84 122q27 0 46 -14t42 -41q20 -23 34 -34t33 -11q26 0 39.5 27.5t15.5 70.5l26 -2q-9 -122 -83 -122q-27 0 -46 14z" />
    <glyph glyph-name="hungarumlaut" unicode="&#x2dd;" horiz-adv-x="532" 
d="M196 580l86 166l26 -16l-92 -160zM324 580l86 166l26 -16l-92 -160z" />
    <glyph glyph-name="gravecomb" unicode="&#x300;" horiz-adv-x="0" 
d="M-104 724l24 20l132 -154l-18 -16z" />
    <glyph glyph-name="acutecomb" unicode="&#x301;" horiz-adv-x="0" 
d="M-52 590l132 154l24 -20l-138 -150z" />
    <glyph glyph-name="uni0302" unicode="&#x302;" horiz-adv-x="0" 
d="M-132 590l118 146h28l118 -146l-18 -16l-112 130h-4l-112 -130z" />
    <glyph glyph-name="tildecomb" unicode="&#x303;" horiz-adv-x="0" 
d="M31 594q-19 14 -43 41q-20 23 -34 34t-32 11q-27 0 -40.5 -27t-15.5 -71l-26 2q9 122 84 122q27 0 46 -14t42 -41q20 -23 34 -34t33 -11q26 0 39.5 27.5t15.5 70.5l26 -2q-9 -122 -83 -122q-27 0 -46 14z" />
    <glyph glyph-name="uni0304" unicode="&#x304;" horiz-adv-x="0" 
d="M-120 636h240v-28h-240v28z" />
    <glyph glyph-name="uni0306" unicode="&#x306;" horiz-adv-x="0" 
d="M-103.5 614q-35.5 44 -42.5 102l26 4q7 -50 37.5 -87t82.5 -37t82.5 37t37.5 87l26 -4q-7 -58 -42.5 -102t-103.5 -44t-103.5 44z" />
    <glyph glyph-name="uni0307" unicode="&#x307;" horiz-adv-x="0" 
d="M-23 610q-9 10 -9 26q0 15 9 24.5t23 9.5t23 -9.5t9 -24.5q0 -16 -9 -26t-23 -10t-23 10z" />
    <glyph glyph-name="uni0308" unicode="&#x308;" horiz-adv-x="0" 
d="M-109 611.5q-9 9.5 -9 22.5q0 14 9 23t23 9q13 0 22.5 -9t9.5 -23q0 -13 -9.5 -22.5t-22.5 -9.5q-14 0 -23 9.5zM63.5 611.5q-9.5 9.5 -9.5 22.5q0 14 9.5 23t22.5 9q14 0 23 -9t9 -23q0 -13 -9 -22.5t-23 -9.5q-13 0 -22.5 9.5z" />
    <glyph glyph-name="uni030A" unicode="&#x30a;" horiz-adv-x="0" 
d="M-66 572.5q-26 26.5 -26 67.5q0 42 26 68t66 26t66 -26t26 -68q0 -41 -26 -67.5t-66 -26.5t-66 26.5zM48.5 588q19.5 20 19.5 52t-19.5 52t-48.5 20t-48.5 -20t-19.5 -52t19.5 -52t48.5 -20t48.5 20z" />
    <glyph glyph-name="uni030B" unicode="&#x30b;" horiz-adv-x="0" 
d="M-70 580l86 166l26 -16l-92 -160zM58 580l86 166l26 -16l-92 -160z" />
    <glyph glyph-name="uni030C" unicode="&#x30c;" horiz-adv-x="0" 
d="M-132 718l18 16l112 -130h4l112 130l18 -16l-118 -146h-28z" />
    <glyph glyph-name="uni031E" unicode="&#x31e;" horiz-adv-x="0" 
d="M-14 -136h-72v28h172v-28h-72v-106h-28v106z" />
    <glyph glyph-name="dotbelowcomb" unicode="&#x323;" horiz-adv-x="0" 
d="M-23 -180q-9 10 -9 26q0 15 9 24.5t23 9.5t23 -9.5t9 -24.5q0 -16 -9 -26t-23 -10t-23 10z" />
    <glyph glyph-name="uni0327" unicode="&#x327;" horiz-adv-x="0" 
d="M-80 -190q63 4 88.5 17t25.5 37q0 22 -18.5 34t-59.5 18l40 86h28l-30 -68q34 -8 52 -24t18 -44q0 -73 -138 -82z" />
    <glyph glyph-name="uni032E" unicode="&#x32e;" horiz-adv-x="0" 
d="M-103.5 -186q-35.5 44 -42.5 102l26 4q7 -50 37.5 -87t82.5 -37t82.5 37t37.5 87l26 -4q-7 -58 -42.5 -102t-103.5 -44t-103.5 44z" />
    <glyph glyph-name="uni0331" unicode="&#x331;" horiz-adv-x="0" 
d="M-120 -128h240v-28h-240v28z" />
    <glyph glyph-name="uni0361" unicode="&#x361;" horiz-adv-x="0" 
d="M-452 582q103 64 213.5 97t238.5 33t238.5 -33t213.5 -97l-12 -20q-94 60 -207 91t-233 31t-233 -31t-207 -91z" />
    <glyph glyph-name="theta" unicode="&#x3b8;" horiz-adv-x="500" 
d="M384.5 637q47.5 -97 47.5 -273q0 -195 -46.5 -285.5t-135.5 -90.5t-135.5 90.5t-46.5 285.5q0 176 47.5 273t134.5 97t134.5 -97zM173.5 668.5q-33.5 -37.5 -53 -111t-20.5 -177.5h300q-1 104 -20.5 177.5t-53 111t-76.5 37.5t-76.5 -37.5zM359 97.5q40 81.5 41 254.5
h-300q1 -173 41 -254.5t109 -81.5t109 81.5z" />
    <glyph glyph-name="pi" unicode="&#x3c0;" horiz-adv-x="546" 
d="M400.5 8q-17.5 20 -17.5 64q0 45 4 239q0 55 2 137h-219q0 -99 -7.5 -202t-22.5 -248l-32 2q34 238 34 448h-116v26l66 4h428v-30h-101q-4 -86 -6 -199.5t-2 -182.5q0 -26 11 -38t35 -12q10 0 41 6l6 -26q-11 -3 -23 -5.5t-26 -2.5q-37 0 -54.5 20z" />
    <glyph glyph-name="chi" unicode="&#x3c7;" horiz-adv-x="444" 
d="M10 -180l196 342l-190 316l30 12l174 -298h4l154 286h34l-174 -316l208 -342l-28 -12l-194 326h-4l-182 -326z" />
    <glyph glyph-name="uni05B0" unicode="&#x5b0;" horiz-adv-x="0" 
d="M83.5 -85.5q7.5 -8.5 7.5 -20.5t-7.5 -20.5t-19.5 -8.5t-20 8.5t-8 20.5t8 20.5t20 8.5t19.5 -8.5zM83.5 -176q7.5 -9 7.5 -21t-7.5 -20.5t-19.5 -8.5t-20 8.5t-8 20.5q0 11 8 20.5t20 9.5t19.5 -9z" />
    <glyph glyph-name="uni05B1" unicode="&#x5b1;" horiz-adv-x="0" 
d="M83.5 -85.5q7.5 -8.5 7.5 -20.5t-7.5 -20.5t-19.5 -8.5t-20 8.5t-8 20.5t8 20.5t20 8.5t19.5 -8.5zM187.5 -85.5q7.5 -8.5 7.5 -20.5t-7.5 -20.5t-19.5 -8.5t-20 8.5t-8 20.5t8 20.5t20 8.5t19.5 -8.5zM291.5 -85.5q7.5 -8.5 7.5 -20.5t-7.5 -20.5t-19.5 -8.5t-20 8.5
t-8 20.5t8 20.5t20 8.5t19.5 -8.5zM134.5 -176q7.5 -9 7.5 -21t-7.5 -20.5t-19.5 -8.5t-20 8.5t-8 20.5q0 11 8 20.5t20 9.5t19.5 -9zM291.5 -176q7.5 -9 7.5 -21t-7.5 -20.5t-19.5 -8.5t-20 8.5t-8 20.5q0 11 8 20.5t20 9.5t19.5 -9z" />
    <glyph glyph-name="uni05B2" unicode="&#x5b2;" horiz-adv-x="0" 
d="M280.5 -85.5q7.5 -8.5 7.5 -20.5t-7.5 -20.5t-19.5 -8.5t-20 8.5t-8 20.5t8 20.5t20 8.5t19.5 -8.5zM190 -118h-154v33h154v-33zM280.5 -176q7.5 -9 7.5 -21t-7.5 -20.5t-19.5 -8.5t-20 8.5t-8 20.5q0 11 8 20.5t20 9.5t19.5 -9z" />
    <glyph glyph-name="uni05B3" unicode="&#x5b3;" horiz-adv-x="0" 
d="M280.5 -85.5q7.5 -8.5 7.5 -20.5t-7.5 -20.5t-19.5 -8.5t-20 8.5t-8 20.5t8 20.5t20 8.5t19.5 -8.5zM190 -118h-68l8 -100h-35l8 100h-67v33h154v-33zM280.5 -176q7.5 -9 7.5 -21t-7.5 -20.5t-19.5 -8.5t-20 8.5t-8 20.5q0 11 8 20.5t20 9.5t19.5 -9z" />
    <glyph glyph-name="uni05B4" unicode="&#x5b4;" horiz-adv-x="0" 
d="M83.5 -85.5q7.5 -8.5 7.5 -20.5t-7.5 -20.5t-19.5 -8.5t-20 8.5t-8 20.5t8 20.5t20 8.5t19.5 -8.5z" />
    <glyph glyph-name="uni05B5" unicode="&#x5b5;" horiz-adv-x="0" 
d="M83.5 -85.5q7.5 -8.5 7.5 -20.5t-7.5 -20.5t-19.5 -8.5t-20 8.5t-8 20.5t8 20.5t20 8.5t19.5 -8.5zM190.5 -85.5q7.5 -8.5 7.5 -20.5t-7.5 -20.5t-19.5 -8.5t-20 8.5t-8 20.5t8 20.5t20 8.5t19.5 -8.5z" />
    <glyph glyph-name="uni05B6" unicode="&#x5b6;" horiz-adv-x="0" 
d="M83.5 -85.5q7.5 -8.5 7.5 -20.5t-7.5 -20.5t-19.5 -8.5t-20 8.5t-8 20.5t8 20.5t20 8.5t19.5 -8.5zM190.5 -85.5q7.5 -8.5 7.5 -20.5t-7.5 -20.5t-19.5 -8.5t-20 8.5t-8 20.5t8 20.5t20 8.5t19.5 -8.5zM136.5 -166.5q7.5 -8.5 7.5 -19.5q0 -12 -7.5 -21t-19.5 -9t-20 9
t-8 21q0 11 8 19.5t20 8.5t19.5 -8.5z" />
    <glyph glyph-name="uni05B7" unicode="&#x5b7;" horiz-adv-x="0" 
d="M190 -102h-154v33h154v-33z" />
    <glyph glyph-name="uni05B8" unicode="&#x5b8;" horiz-adv-x="0" 
d="M190 -102h-68l8 -100h-35l8 100h-67v33h154v-33z" />
    <glyph glyph-name="uni05B9" unicode="&#x5b9;" horiz-adv-x="0" 
d="M83.5 557.5q7.5 -8.5 7.5 -20.5t-7.5 -21t-19.5 -9t-20 9t-8 21q0 11 8 20t20 9t19.5 -8.5z" />
    <glyph glyph-name="uni05BA" unicode="&#x5ba;" horiz-adv-x="0" 
d="M44 516q-8 9 -8 21q0 11 8 20t20 9t19.5 -9t7.5 -20q0 -12 -7.5 -21t-19.5 -9t-20 9z" />
    <glyph glyph-name="uni05BB" unicode="&#x5bb;" horiz-adv-x="0" 
d="M83.5 -85.5q7.5 -8.5 7.5 -20.5t-7.5 -20.5t-19.5 -8.5t-20 8.5t-8 20.5t8 20.5t20 8.5t19.5 -8.5zM147.5 -141.5q7.5 -8.5 7.5 -20.5t-7.5 -20.5t-19.5 -8.5t-20 8.5t-8 20.5t8 20.5t20 8.5t19.5 -8.5zM211.5 -197.5q7.5 -8.5 7.5 -20.5t-7.5 -20.5t-19.5 -8.5t-20 8.5
t-8 20.5t8 20.5t20 8.5t19.5 -8.5z" />
    <glyph glyph-name="uni05BC" unicode="&#x5bc;" horiz-adv-x="0" 
d="M83.5 311.5q7.5 -8.5 7.5 -20.5t-7.5 -21t-19.5 -9t-20 9t-8 21q0 11 8 20t20 9t19.5 -8.5z" />
    <glyph glyph-name="uni05BE" unicode="&#x5be;" horiz-adv-x="306" 
d="M45 545h216v-30h-216v30z" />
    <glyph glyph-name="uni05BF" unicode="&#x5bf;" horiz-adv-x="0" 
d="M221 538h-189v30h189v-30z" />
    <glyph glyph-name="uni05C0" unicode="&#x5c0;" horiz-adv-x="212" 
d="M90 645h32v-745h-32v745z" />
    <glyph glyph-name="uni05C1" unicode="&#x5c1;" horiz-adv-x="0" 
d="M83.5 573q7.5 -9 7.5 -20q0 -12 -7.5 -21t-19.5 -9t-20 9t-8 21q0 11 8 20t20 9t19.5 -9z" />
    <glyph glyph-name="uni05C2" unicode="&#x5c2;" horiz-adv-x="0" 
d="M83.5 573q7.5 -9 7.5 -20q0 -12 -7.5 -21t-19.5 -9t-20 9t-8 21q0 11 8 20t20 9t19.5 -9z" />
    <glyph glyph-name="uni05C3" unicode="&#x5c3;" horiz-adv-x="269" 
d="M90 412l45 44l44 -44l-44 -45zM90 62l45 44l44 -44l-44 -45z" />
    <glyph glyph-name="uni05C7" unicode="&#x5c7;" horiz-adv-x="0" 
d="M126 -102h-40l12 -100h-35l12 100h-39v33h90v-33z" />
    <glyph glyph-name="uni05D0" unicode="&#x5d0;" horiz-adv-x="522" 
d="M445 0l-254 375l-119 -375h-32l108 344l25 60l-91 141h35l94 -147l109 -160l21 78l73 229h33l-108 -336l143 -209h-37z" />
    <glyph glyph-name="uni05D1" unicode="&#x5d1;" horiz-adv-x="515" 
d="M470 30v-30h-106h-304v30h304v330q0 83 -35.5 119t-99.5 36h-169v30h171q79 0 122 -43.5t43 -141.5v-330h74z" />
    <glyph glyph-name="uni05D2" unicode="&#x5d2;" horiz-adv-x="338" 
d="M256 0l-30 155q-56 -120 -182 -166l-12 28q65 25 110 66.5t76 111.5v198q0 59 -13 87t-54 35l-65 11l6 29l61 -11q56 -10 76.5 -44.5t20.5 -106.5v-196l38 -197h-32z" />
    <glyph glyph-name="uni05D3" unicode="&#x5d3;" horiz-adv-x="531" 
d="M334 398q0 74 27 117h-296v30h401v-30h-72q-28 -41 -28 -117v-398h-32v398z" />
    <glyph glyph-name="uni05D4" unicode="&#x5d4;" horiz-adv-x="528" 
d="M416 360q0 83 -35.5 119t-99.5 36h-216v30h218q79 0 122 -43.5t43 -141.5v-360h-32v360zM67 268l5 67h27v-335h-32v268z" />
    <glyph glyph-name="uni05D5" unicode="&#x5d5;" horiz-adv-x="201" 
d="M89 428l-14 117h32l14 -117v-428h-32v428z" />
    <glyph glyph-name="uni05D6" unicode="&#x5d6;" horiz-adv-x="351" 
d="M145 398q0 74 27 117h-107v30h221v-30h-81q-28 -41 -28 -117v-398h-32v398z" />
    <glyph glyph-name="uni05D7" unicode="&#x5d7;" horiz-adv-x="542" 
d="M420 493q42 -52 42 -153v-340h-32v340q0 86 -34 130.5t-101 44.5h-193v-515h-32v545h227q81 0 123 -52z" />
    <glyph glyph-name="uni05D8" unicode="&#x5d8;" horiz-adv-x="528" 
d="M55 545h32l64 -522q125 13 211 84.5t79 228.5v21q0 74 -37 116t-112 46l-50 3l2 30l52 -4q85 -7 129 -51.5t47 -132.5l1 -28q4 -116 -43 -191.5t-127.5 -112.5t-180.5 -42z" />
    <glyph glyph-name="uni05D9" unicode="&#x5d9;" horiz-adv-x="201" 
d="M89 428l-14 117h32l14 -117v-145l-1 -63l-31 -10v218z" />
    <glyph glyph-name="uni05DA" unicode="&#x5da;" horiz-adv-x="497" 
d="M385 360q0 83 -35.5 119t-99.5 36h-185v30h187q79 0 122 -43.5t43 -141.5v-560h-32v560z" />
    <glyph glyph-name="uni05DB" unicode="&#x5db;" horiz-adv-x="462" 
d="M55 30h114q196 0 196 215v55q0 215 -196 215h-114v30h114q109 0 168.5 -61t59.5 -184v-55q0 -123 -59.5 -184t-168.5 -61h-114v30z" />
    <glyph glyph-name="uni05DC" unicode="&#x5dc;" horiz-adv-x="462" 
d="M407 545v-30l-202 -515h-32l202 515h-325v202h32v-172h325z" />
    <glyph glyph-name="uni05DD" unicode="&#x5dd;" horiz-adv-x="572" 
d="M449 501.5q43 -43.5 43 -141.5v-360h-32h-358h-12v545h32h205q79 0 122 -43.5zM460 30v330q0 83 -35.5 119t-99.5 36h-203v-485h338z" />
    <glyph glyph-name="uni05DE" unicode="&#x5de;" horiz-adv-x="580" 
d="M465.5 64q-56.5 -74 -162.5 -74q-40 0 -76 8l5 29q39 -9 71 -9q92 0 139.5 66.5t47.5 196.5q0 238 -165 238q-118 0 -154 -136l-74 -383h-32l77 391l-76 154h33l59 -122q19 62 64.5 93.5t101.5 31.5q88 0 143 -60t55 -208q0 -142 -56.5 -216z" />
    <glyph glyph-name="uni05DF" unicode="&#x5df;" horiz-adv-x="201" 
d="M89 428l-14 117h32l14 -117v-628h-32v628z" />
    <glyph glyph-name="uni05E0" unicode="&#x5e0;" horiz-adv-x="359" 
d="M55 30h192v363q0 56 -23.5 85t-69.5 37l-65 11l6 29l61 -11q123 -22 123 -151v-393h-224v30z" />
    <glyph glyph-name="uni05E1" unicode="&#x5e1;" horiz-adv-x="538" 
d="M387 73.5q-102 -74.5 -265 -83.5l-64 525l-3 30h251q81 0 127 -54.5t49 -146.5l1 -28q6 -168 -96 -242.5zM371 99q87 62 80 217v21q0 77 -38.5 127.5t-110.5 50.5h-212l61 -492q133 14 220 76z" />
    <glyph glyph-name="uni05E2" unicode="&#x5e2;" horiz-adv-x="501" 
d="M441 545q0 -211 -16.5 -312t-70.5 -152.5t-174 -75.5l-136 -27l-5 27l142 28q22 4 47 11l-139 501h32l137 -491q70 27 102 80t40.5 141.5t8.5 269.5h32z" />
    <glyph glyph-name="uni05E3" unicode="&#x5e3;" horiz-adv-x="536" 
d="M405 485q50 -60 51 -183v-502h-32v500q0 110 -40 162.5t-121 52.5h-126l-22 -109q-10 -47 -10 -72q0 -36 15 -58t47 -33l-14 -26q-39 14 -58.5 41.5t-19.5 75.5q0 36 8 72l28 139h152q92 0 142 -60z" />
    <glyph glyph-name="uni05E4" unicode="&#x5e4;" horiz-adv-x="530" 
d="M91 30h138q93 0 148.5 47.5t55.5 169.5v53q0 110 -40 162.5t-121 52.5h-126l-31 -128q-9 -39 -9 -67q0 -40 21 -62.5t70 -31.5l-12 -29q-58 11 -84 40.5t-26 82.5q0 27 8 67l37 158h152q92 0 142 -60t51 -183v-55q0 -247 -236 -247h-138v30z" />
    <glyph glyph-name="uni05E5" unicode="&#x5e5;" horiz-adv-x="421" 
d="M233 121l110 -321h-35l-253 745h34l130 -381l145 381h32z" />
    <glyph glyph-name="uni05E6" unicode="&#x5e6;" horiz-adv-x="488" 
d="M443 0h-35h-363v30h345l-318 515h35l162 -264l116 264h34l-132 -292z" />
    <glyph glyph-name="uni05E7" unicode="&#x5e7;" horiz-adv-x="521" 
d="M204 30q58 8 98 27.5t69 72.5t36 151l20 234h-367v30h401l-2 -30l-20 -234q-7 -144 -72.5 -209t-157.5 -72zM68 288l5 67h27v-555h-32v488z" />
    <glyph glyph-name="uni05E8" unicode="&#x5e8;" horiz-adv-x="462" 
d="M350 360q0 83 -35.5 119t-99.5 36h-165v30h167q79 0 122 -43.5t43 -141.5v-360h-32v360z" />
    <glyph glyph-name="uni05E9" unicode="&#x5e9;" horiz-adv-x="598" 
d="M430 101.5q-104 -103.5 -308 -111.5l-67 555h32l38 -309q56 32 88 63.5t48.5 75.5t18.5 112l1 55h32l-1 -55q-2 -76 -22 -126.5t-58 -86.5t-103 -70l22 -181q169 11 260 104.5t90 289.5l-1 128h32l1 -128q1 -212 -103 -315.5z" />
    <glyph glyph-name="uni05EA" unicode="&#x5ea;" horiz-adv-x="585" 
d="M25 15q61 4 87.5 37.5t25.5 94.5v398h207q79 0 122 -43.5t43 -141.5v-360h-32v360q0 83 -35.5 119t-99.5 36h-173v-367q0 -73 -33.5 -113t-106.5 -47z" />
    <glyph glyph-name="uni05F3" unicode="&#x5f3;" horiz-adv-x="175" 
d="M50 520l86 166l26 -16l-92 -160z" />
    <glyph glyph-name="uni05F4" unicode="&#x5f4;" horiz-adv-x="344" 
d="M50 520l86 166l26 -16l-92 -160zM178 520l86 166l26 -16l-92 -160z" />
    <glyph glyph-name="uni1E06" unicode="&#x1e06;" horiz-adv-x="574" 
d="M100 660h172q101 0 157.5 -40.5t56.5 -119.5q0 -53 -27 -91t-77 -53v-4q68 -11 107 -52t39 -108q0 -93 -65 -142.5t-179 -49.5h-184v660zM252 366q202 0 202 132q0 72 -48.5 103t-147.5 31h-126v-266h120zM272 28q107 0 165.5 40t58.5 122q0 74 -58 111t-166 37h-140
v-310h140zM172 -128h240v-28h-240v28z" />
    <glyph glyph-name="uni1E07" unicode="&#x1e07;" horiz-adv-x="538" 
d="M201.5 4q-38.5 16 -73.5 44h-2l-4 -48h-26v722h30v-214l-2 -96q93 78 170 78q95 0 143.5 -65t48.5 -179q0 -78 -28.5 -137t-77 -90t-106.5 -31q-34 0 -72.5 16zM367.5 45.5q40.5 29.5 63.5 82t23 118.5q0 98 -39 157t-123 59q-73 0 -166 -84v-296q39 -34 79 -50t71 -16
q51 0 91.5 29.5zM156 -128h240v-28h-240v28z" />
    <glyph glyph-name="uni1E0C" unicode="&#x1e0c;" horiz-adv-x="600" 
d="M100 660h148q148 0 222 -87.5t74 -240.5t-74 -242.5t-222 -89.5h-148v660zM244 28q135 0 200.5 83t65.5 221t-65.5 219t-200.5 81h-112v-604h112zM275 -180q-9 10 -9 26q0 15 9 24.5t23 9.5t23 -9.5t9 -24.5q0 -16 -9 -26t-23 -10t-23 10z" />
    <glyph glyph-name="uni1E0D" unicode="&#x1e0d;" horiz-adv-x="540" 
d="M107 53q-53 65 -53 185q0 75 29 132.5t78 88.5t107 31q41 0 74 -14.5t74 -45.5l-2 90v202h30v-722h-26l-4 64h-2q-76 -76 -160 -76q-92 0 -145 65zM333.5 37q38.5 21 80.5 63v296q-40 35 -75 50.5t-73 15.5q-50 0 -91.5 -30t-65 -81.5t-23.5 -112.5q0 -101 44 -161.5
t124 -60.5q41 0 79.5 21zM269 -180q-9 10 -9 26q0 15 9 24.5t23 9.5t23 -9.5t9 -24.5q0 -16 -9 -26t-23 -10t-23 10z" />
    <glyph glyph-name="uni1E0E" unicode="&#x1e0e;" horiz-adv-x="600" 
d="M100 660h148q148 0 222 -87.5t74 -240.5t-74 -242.5t-222 -89.5h-148v660zM244 28q135 0 200.5 83t65.5 221t-65.5 219t-200.5 81h-112v-604h112zM178 -128h240v-28h-240v28z" />
    <glyph glyph-name="uni1E0F" unicode="&#x1e0f;" horiz-adv-x="540" 
d="M107 53q-53 65 -53 185q0 75 29 132.5t78 88.5t107 31q41 0 74 -14.5t74 -45.5l-2 90v202h30v-722h-26l-4 64h-2q-76 -76 -160 -76q-92 0 -145 65zM333.5 37q38.5 21 80.5 63v296q-40 35 -75 50.5t-73 15.5q-50 0 -91.5 -30t-65 -81.5t-23.5 -112.5q0 -101 44 -161.5
t124 -60.5q41 0 79.5 21zM172 -128h240v-28h-240v28z" />
    <glyph glyph-name="uni1E20" unicode="&#x1e20;" horiz-adv-x="600" 
d="M188 30.5q-63 42.5 -97.5 120.5t-34.5 181t35.5 180t101 118.5t151.5 41.5q102 0 176 -78l-20 -22q-63 70 -156 70q-78 0 -135.5 -38t-88 -108t-30.5 -164q0 -95 29.5 -166t85 -109.5t131.5 -38.5q48 0 90.5 14.5t67.5 39.5v218h-164v28h196v-256q-31 -34 -80.5 -54
t-111.5 -20q-83 0 -146 42.5zM222 774h240v-28h-240v28z" />
    <glyph glyph-name="uni1E21" unicode="&#x1e21;" horiz-adv-x="480" 
d="M106.5 -197.5q-52.5 36.5 -52.5 97.5q0 31 19.5 62.5t52.5 55.5v4q-19 11 -30.5 30.5t-11.5 45.5q0 29 16 51.5t36 36.5v4q-25 22 -42.5 57t-17.5 75q0 47 21.5 85.5t59.5 60.5t83 22q34 0 62 -12h160v-28h-116q26 -22 42 -55.5t16 -72.5q0 -47 -22 -86t-59.5 -61.5
t-82.5 -22.5q-21 0 -43.5 6t-38.5 16q-20 -16 -31 -33.5t-11 -40.5q0 -66 94 -66h106q79 0 116.5 -26t37.5 -82q0 -41 -27.5 -77.5t-78 -59.5t-114.5 -23q-91 0 -143.5 36.5zM305.5 198q30.5 18 48.5 50.5t18 73.5q0 62 -38.5 101t-93.5 39q-56 0 -94 -38.5t-38 -101.5
q0 -41 18 -73.5t48.5 -50.5t65.5 -18t65.5 18zM349.5 -187.5q42.5 18.5 65.5 48.5t23 63q0 41 -29 59.5t-87 18.5h-110q-23 0 -58 8q-34 -23 -51 -51t-17 -57q0 -49 44 -78.5t122 -29.5q55 0 97.5 18.5zM128 636h240v-28h-240v28z" />
    <glyph glyph-name="uni1E24" unicode="&#x1e24;" horiz-adv-x="634" 
d="M100 660h32v-294h370v294h32v-660h-32v338h-370v-338h-32v660zM293 -180q-9 10 -9 26q0 15 9 24.5t23 9.5t23 -9.5t9 -24.5q0 -16 -9 -26t-23 -10t-23 10z" />
    <glyph glyph-name="uni1E25" unicode="&#x1e25;" horiz-adv-x="522" 
d="M96 722h30v-322q44 44 83 67t85 23q74 0 109 -44.5t35 -137.5v-308h-30v304q0 81 -27.5 119.5t-88.5 38.5q-43 0 -79.5 -22.5t-86.5 -73.5v-366h-30v722zM257 -180q-9 10 -9 26q0 15 9 24.5t23 9.5t23 -9.5t9 -24.5q0 -16 -9 -26t-23 -10t-23 10z" />
    <glyph glyph-name="uni1E2A" unicode="&#x1e2a;" horiz-adv-x="634" 
d="M100 660h32v-294h370v294h32v-660h-32v338h-370v-338h-32v660zM212.5 -186q-35.5 44 -42.5 102l26 4q7 -50 37.5 -87t82.5 -37t82.5 37t37.5 87l26 -4q-7 -58 -42.5 -102t-103.5 -44t-103.5 44z" />
    <glyph glyph-name="uni1E2B" unicode="&#x1e2b;" horiz-adv-x="522" 
d="M96 722h30v-322q44 44 83 67t85 23q74 0 109 -44.5t35 -137.5v-308h-30v304q0 81 -27.5 119.5t-88.5 38.5q-43 0 -79.5 -22.5t-86.5 -73.5v-366h-30v722zM176.5 -186q-35.5 44 -42.5 102l26 4q7 -50 37.5 -87t82.5 -37t82.5 37t37.5 87l26 -4q-7 -58 -42.5 -102
t-103.5 -44t-103.5 44z" />
    <glyph glyph-name="uni1E32" unicode="&#x1e32;" horiz-adv-x="550" 
d="M100 660h32v-380h2l336 380h40l-212 -242l240 -418h-38l-226 394l-142 -160v-234h-32v660zM301 -180q-9 10 -9 26q0 15 9 24.5t23 9.5t23 -9.5t9 -24.5q0 -16 -9 -26t-23 -10t-23 10z" />
    <glyph glyph-name="uni1E33" unicode="&#x1e33;" horiz-adv-x="452" 
d="M96 722h30v-548h2l248 304h36l-154 -188l182 -290h-34l-166 266l-114 -134v-132h-30v722zM229 -180q-9 10 -9 26q0 15 9 24.5t23 9.5t23 -9.5t9 -24.5q0 -16 -9 -26t-23 -10t-23 10z" />
    <glyph glyph-name="uni1E34" unicode="&#x1e34;" horiz-adv-x="550" 
d="M100 660h32v-380h2l336 380h40l-212 -242l240 -418h-38l-226 394l-142 -160v-234h-32v660zM204 -128h240v-28h-240v28z" />
    <glyph glyph-name="uni1E35" unicode="&#x1e35;" horiz-adv-x="452" 
d="M96 722h30v-548h2l248 304h36l-154 -188l182 -290h-34l-166 266l-114 -134v-132h-30v722zM132 -128h240v-28h-240v28z" />
    <glyph glyph-name="uni1E62" unicode="&#x1e62;" horiz-adv-x="516" 
d="M48 88l22 22q37 -43 88 -67.5t110 -24.5q79 0 126.5 39.5t47.5 102.5q0 41 -15.5 68t-40.5 43t-66 35l-102 46q-59 27 -96.5 62t-37.5 100q0 46 24 82t66.5 56t95.5 20q56 0 102 -22t78 -56l-20 -22q-30 33 -70.5 51.5t-89.5 18.5q-69 0 -111.5 -34.5t-42.5 -91.5
q0 -38 17.5 -64t41 -40.5t57.5 -29.5l102 -46q44 -20 73.5 -40.5t48 -53t18.5 -80.5q0 -50 -25.5 -89.5t-72.5 -62t-108 -22.5q-134 0 -220 100zM245 -180q-9 10 -9 26q0 15 9 24.5t23 9.5t23 -9.5t9 -24.5q0 -16 -9 -26t-23 -10t-23 10z" />
    <glyph glyph-name="uni1E63" unicode="&#x1e63;" horiz-adv-x="400" 
d="M113 6q-44 18 -79 48l20 24q35 -30 71 -46t85 -16q57 0 89.5 29.5t32.5 72.5t-32.5 67.5t-87.5 44.5q-51 18 -81.5 32.5t-52.5 40t-22 63.5q0 52 40 88t110 36q35 0 70.5 -13t61.5 -35l-18 -24q-28 21 -55 32.5t-61 11.5q-56 0 -86 -27.5t-30 -66.5q0 -27 16 -45.5
t38.5 -30t61.5 -26.5q9 -4 59 -22t75.5 -49t25.5 -75q0 -36 -18.5 -66t-54 -48t-83.5 -18q-51 0 -95 18zM193 -180q-9 10 -9 26q0 15 9 24.5t23 9.5t23 -9.5t9 -24.5q0 -16 -9 -26t-23 -10t-23 10z" />
    <glyph glyph-name="uni1E6C" unicode="&#x1e6c;" horiz-adv-x="520" 
d="M244 632h-214v28h460v-28h-214v-632h-32v632zM237 -180q-9 10 -9 26q0 15 9 24.5t23 9.5t23 -9.5t9 -24.5q0 -16 -9 -26t-23 -10t-23 10z" />
    <glyph glyph-name="uni1E6D" unicode="&#x1e6d;" horiz-adv-x="302" 
d="M131 23.5q-25 35.5 -25 102.5v324h-76v24l76 4l4 140h26v-140h142v-28h-142v-328q0 -52 17.5 -79t66.5 -27q26 0 62 16l10 -26q-50 -18 -74 -18q-62 0 -87 35.5zM171 -180q-9 10 -9 26q0 15 9 24.5t23 9.5t23 -9.5t9 -24.5q0 -16 -9 -26t-23 -10t-23 10z" />
    <glyph glyph-name="uni1E6E" unicode="&#x1e6e;" horiz-adv-x="520" 
d="M244 632h-214v28h460v-28h-214v-632h-32v632zM140 -128h240v-28h-240v28z" />
    <glyph glyph-name="uni1E6F" unicode="&#x1e6f;" horiz-adv-x="302" 
d="M131 23.5q-25 35.5 -25 102.5v324h-76v24l76 4l4 140h26v-140h142v-28h-142v-328q0 -52 17.5 -79t66.5 -27q26 0 62 16l10 -26q-50 -18 -74 -18q-62 0 -87 35.5zM74 -128h240v-28h-240v28z" />
    <glyph glyph-name="uni1E7E" unicode="&#x1e7e;" horiz-adv-x="482" 
d="M6 660h34l128 -396l18 -57q28 -89 54 -166h4q26 77 54 166l18 57l128 396h32l-218 -660h-32zM221 -180q-9 10 -9 26q0 15 9 24.5t23 9.5t23 -9.5t9 -24.5q0 -16 -9 -26t-23 -10t-23 10z" />
    <glyph glyph-name="uni1E7F" unicode="&#x1e7f;" horiz-adv-x="422" 
d="M12 478h34l114 -310q19 -55 50 -136h4q31 81 50 136l114 310h32l-180 -478h-36zM189 -180q-9 10 -9 26q0 15 9 24.5t23 9.5t23 -9.5t9 -24.5q0 -16 -9 -26t-23 -10t-23 10z" />
    <glyph glyph-name="uni1E92" unicode="&#x1e92;" horiz-adv-x="538" 
d="M52 18l392 614h-358v28h398v-18l-392 -614h396v-28h-436v18zM259 -180q-9 10 -9 26q0 15 9 24.5t23 9.5t23 -9.5t9 -24.5q0 -16 -9 -26t-23 -10t-23 10z" />
    <glyph glyph-name="uni1E93" unicode="&#x1e93;" horiz-adv-x="396" 
d="M26 16l294 434h-262v28h302v-16l-294 -434h304v-28h-344v16zM191 -180q-9 10 -9 26q0 15 9 24.5t23 9.5t23 -9.5t9 -24.5q0 -16 -9 -26t-23 -10t-23 10z" />
    <glyph glyph-name="uni1E94" unicode="&#x1e94;" horiz-adv-x="538" 
d="M52 18l392 614h-358v28h398v-18l-392 -614h396v-28h-436v18zM162 -128h240v-28h-240v28z" />
    <glyph glyph-name="uni1E95" unicode="&#x1e95;" horiz-adv-x="396" 
d="M26 16l294 434h-262v28h302v-16l-294 -434h304v-28h-344v16zM94 -128h240v-28h-240v28z" />
    <glyph glyph-name="uni1E96" unicode="&#x1e96;" horiz-adv-x="522" 
d="M96 722h30v-322q44 44 83 67t85 23q74 0 109 -44.5t35 -137.5v-308h-30v304q0 81 -27.5 119.5t-88.5 38.5q-43 0 -79.5 -22.5t-86.5 -73.5v-366h-30v722zM160 -128h240v-28h-240v28z" />
    <glyph glyph-name="uni1EA0" unicode="&#x1ea0;" horiz-adv-x="520" 
d="M394 236h-269l-83 -236h-32l236 660h28l236 -660h-34zM384 264l-46 132q-53 151 -76 230h-4q-23 -79 -76 -230l-47 -132h249zM237 -180q-9 10 -9 26q0 15 9 24.5t23 9.5t23 -9.5t9 -24.5q0 -16 -9 -26t-23 -10t-23 10z" />
    <glyph glyph-name="uni1EA1" unicode="&#x1ea1;" horiz-adv-x="486" 
d="M99 20q-39 32 -39 97q0 79 74.5 121t239.5 60q2 70 -24 117t-94 47q-46 0 -86.5 -17.5t-69.5 -40.5l-16 24q32 24 77.5 43t96.5 19q78 0 112 -49.5t34 -130.5v-310h-26l-4 64h-2q-95 -76 -174 -76q-60 0 -99 32zM283 36q41 20 91 62v174q-154 -18 -218 -54.5t-64 -99.5
q0 -52 30.5 -77t77.5 -25q42 0 83 20zM219 -180q-9 10 -9 26q0 15 9 24.5t23 9.5t23 -9.5t9 -24.5q0 -16 -9 -26t-23 -10t-23 10z" />
    <glyph glyph-name="uni1EB8" unicode="&#x1eb8;" horiz-adv-x="510" 
d="M100 660h354v-28h-322v-266h270v-28h-270v-310h332v-28h-364v660zM267 -180q-9 10 -9 26q0 15 9 24.5t23 9.5t23 -9.5t9 -24.5q0 -16 -9 -26t-23 -10t-23 10z" />
    <glyph glyph-name="uni1EB9" unicode="&#x1eb9;" horiz-adv-x="478" 
d="M438 238h-352q0 -67 24.5 -117.5t67.5 -77.5t96 -27q71 0 132 44l14 -26q-37 -22 -68.5 -34t-79.5 -12q-60 0 -110 30.5t-79 87t-29 132.5q0 75 29 132.5t76 88.5t101 31q84 0 132 -57.5t48 -162.5q0 -20 -2 -32zM410 266q0 96 -40 146t-110 50q-42 0 -79.5 -22
t-63 -66.5t-30.5 -107.5h323zM227 -180q-9 10 -9 26q0 15 9 24.5t23 9.5t23 -9.5t9 -24.5q0 -16 -9 -26t-23 -10t-23 10z" />
    <glyph glyph-name="uni1ECC" unicode="&#x1ecc;" horiz-adv-x="648" 
d="M185.5 30.5q-60.5 42.5 -95 121t-34.5 180.5t34 179t95 119t139 42t139 -42t95 -119t34 -179t-34.5 -180.5t-95 -121t-138.5 -42.5t-138.5 42.5zM446.5 57q53.5 39 82.5 110t29 165t-29 164t-82 108t-123 38t-123 -38t-82 -108t-29 -164t29 -165t82.5 -110t122.5 -39
t122.5 39zM301 -180q-9 10 -9 26q0 15 9 24.5t23 9.5t23 -9.5t9 -24.5q0 -16 -9 -26t-23 -10t-23 10z" />
    <glyph glyph-name="uni1ECD" unicode="&#x1ecd;" horiz-adv-x="532" 
d="M159.5 18q-48.5 30 -77 87t-28.5 133q0 77 28.5 134.5t77 87.5t106.5 30t106.5 -30t77 -87.5t28.5 -134.5q0 -76 -28.5 -133t-77 -87t-106.5 -30t-106.5 30zM358 44q41 28 64.5 78.5t23.5 115.5t-23.5 116t-64.5 79.5t-92 28.5t-92 -28.5t-64.5 -79.5t-23.5 -116
t23.5 -115.5t64.5 -78.5t92 -28t92 28zM243 -180q-9 10 -9 26q0 15 9 24.5t23 9.5t23 -9.5t9 -24.5q0 -16 -9 -26t-23 -10t-23 10z" />
    <glyph glyph-name="uni200E" unicode="&#x200e;" horiz-adv-x="0" 
d="M14 792l63 66h-191v36h191l-63 63l25 27l105 -109l-105 -108z" />
    <glyph glyph-name="uni200F" unicode="&#x200f;" horiz-adv-x="0" 
d="M-144 875l105 109l25 -26l-63 -64h193v-36h-192l62 -66l-25 -24z" />
    <glyph glyph-name="uni2010" unicode="&#x2010;" horiz-adv-x="294" 
d="M40 264h216v-30h-216v30z" />
    <glyph glyph-name="endash" unicode="&#x2013;" horiz-adv-x="480" 
d="M40 264h400v-28h-400v28z" />
    <glyph glyph-name="emdash" unicode="&#x2014;" horiz-adv-x="800" 
d="M40 264h720v-28h-720v28z" />
    <glyph glyph-name="quoteleft" unicode="&#x2018;" horiz-adv-x="208" 
d="M103 632q-15 -27 -15 -67q2 1 8 1q13 0 23.5 -8.5t10.5 -23.5q0 -16 -9.5 -25t-24.5 -9q-17 0 -27.5 15t-10.5 43q0 93 78 148l16 -18q-34 -29 -49 -56z" />
    <glyph glyph-name="quoteright" unicode="&#x2019;" horiz-adv-x="208" 
d="M139.5 685q10.5 -15 10.5 -43q0 -93 -78 -148l-16 18q34 29 49 56t15 67q-2 -1 -8 -1q-13 0 -23.5 8.5t-10.5 23.5q0 16 9.5 25t24.5 9q17 0 27.5 -15z" />
    <glyph glyph-name="quotesinglbase" unicode="&#x201a;" horiz-adv-x="208" 
d="M139.5 65q10.5 -15 10.5 -43q0 -93 -78 -148l-16 18q34 29 49 56t15 67q-2 -1 -8 -1q-13 0 -23.5 8.5t-10.5 23.5q0 16 9.5 25t24.5 9q17 0 27.5 -15z" />
    <glyph glyph-name="quotedblleft" unicode="&#x201c;" horiz-adv-x="336" 
d="M103 632q-15 -27 -15 -67q2 1 8 1q13 0 23.5 -8.5t10.5 -23.5q0 -16 -9.5 -25t-24.5 -9q-17 0 -27.5 15t-10.5 43q0 93 78 148l16 -18q-34 -29 -49 -56zM231 632q-15 -27 -15 -67q2 1 8 1q13 0 23.5 -8.5t10.5 -23.5q0 -16 -9.5 -25t-24.5 -9q-17 0 -27.5 15t-10.5 43
q0 93 78 148l16 -18q-34 -29 -49 -56z" />
    <glyph glyph-name="quotedblright" unicode="&#x201d;" horiz-adv-x="336" 
d="M139.5 685q10.5 -15 10.5 -43q0 -93 -78 -148l-16 18q34 29 49 56t15 67q-2 -1 -8 -1q-13 0 -23.5 8.5t-10.5 23.5q0 16 9.5 25t24.5 9q17 0 27.5 -15zM267.5 685q10.5 -15 10.5 -43q0 -93 -78 -148l-16 18q34 29 49 56t15 67q-2 -1 -8 -1q-13 0 -23.5 8.5t-10.5 23.5
q0 16 9.5 25t24.5 9q17 0 27.5 -15z" />
    <glyph glyph-name="quotedblbase" unicode="&#x201e;" horiz-adv-x="336" 
d="M139.5 65q10.5 -15 10.5 -43q0 -93 -78 -148l-16 18q34 29 49 56t15 67q-2 -1 -8 -1q-13 0 -23.5 8.5t-10.5 23.5q0 16 9.5 25t24.5 9q17 0 27.5 -15zM267.5 65q10.5 -15 10.5 -43q0 -93 -78 -148l-16 18q34 29 49 56t15 67q-2 -1 -8 -1q-13 0 -23.5 8.5t-10.5 23.5
q0 16 9.5 25t24.5 9q17 0 27.5 -15z" />
    <glyph glyph-name="dagger" unicode="&#x2020;" horiz-adv-x="408" 
d="M190 534l-128 -2v32l128 -2l-2 150h32l-2 -150l128 2v-32l-128 2l2 -614h-32z" />
    <glyph glyph-name="daggerdbl" unicode="&#x2021;" horiz-adv-x="408" 
d="M190 70l-128 -2v32l128 -2l-2 218l2 218l-128 -2v32l128 -2l-2 150h32l-2 -150l128 2v-32l-128 2l2 -218l-2 -218l128 2v-32l-128 2l2 -150h-32z" />
    <glyph glyph-name="bullet" unicode="&#x2022;" horiz-adv-x="272" 
d="M69 187.5q-29 29.5 -29 76.5t29 76.5t67 29.5t67 -29.5t29 -76.5t-29 -76.5t-67 -29.5t-67 29.5z" />
    <glyph glyph-name="ellipsis" unicode="&#x2026;" horiz-adv-x="1000" 
d="M141 -1.5q-11 10.5 -11 27.5q0 19 11 29.5t25 10.5q15 0 25.5 -10.5t10.5 -29.5q0 -17 -11 -27.5t-25 -10.5t-25 10.5zM475 -1.5q-11 10.5 -11 27.5q0 19 11 29.5t25 10.5q15 0 25.5 -10.5t10.5 -29.5q0 -17 -11 -27.5t-25 -10.5t-25 10.5zM809 -1.5q-11 10.5 -11 27.5
q0 19 11 29.5t25 10.5q15 0 25.5 -10.5t10.5 -29.5q0 -17 -11 -27.5t-25 -10.5t-25 10.5z" />
    <glyph glyph-name="uni202D" unicode="&#x202d;" horiz-adv-x="0" 
d="M-57 792l63 66h-162v36h160l-61 63l26 27l104 -109l-104 -108zM41 792l82 83l-82 82l25 27l105 -109l-105 -108z" />
    <glyph glyph-name="uni202E" unicode="&#x202e;" horiz-adv-x="0" 
d="M-171 914l105 107l25 -26l-80 -81l80 -83l-25 -26zM-71 914l102 107l28 -26l-63 -66h161v-34h-161l63 -64l-28 -26z" />
    <glyph glyph-name="perthousand" unicode="&#x2030;" horiz-adv-x="1150" 
d="M78.5 312q-36.5 54 -36.5 154q0 98 36.5 152t101.5 54t101.5 -54t36.5 -152q0 -100 -36.5 -154t-101.5 -54t-101.5 54zM562 672h32l-370 -684h-32zM259 332.5q29 48.5 29 133.5t-29 132.5t-79 47.5t-79 -47.5t-29 -132.5t29 -133.5t79 -48.5t79 48.5zM512.5 42
q-36.5 54 -36.5 154q0 98 36.5 152t101.5 54t101.5 -54t36.5 -152q0 -100 -36.5 -154t-101.5 -54t-101.5 54zM868.5 42q-36.5 54 -36.5 154q0 98 36.5 152t101.5 54t101.5 -54t36.5 -152q0 -100 -36.5 -154t-101.5 -54t-101.5 54zM693 62.5q29 48.5 29 133.5t-29 132.5
t-79 47.5t-79 -47.5t-29 -132.5t29 -133.5t79 -48.5t79 48.5zM1049 62.5q29 48.5 29 133.5t-29 132.5t-79 47.5t-79 -47.5t-29 -132.5t29 -133.5t79 -48.5t79 48.5z" />
    <glyph glyph-name="guilsinglleft" unicode="&#x2039;" horiz-adv-x="254" 
d="M42 238v28l138 164l20 -18l-124 -160l124 -162l-20 -16z" />
    <glyph glyph-name="guilsinglright" unicode="&#x203a;" horiz-adv-x="254" 
d="M54 90l124 162l-124 160l20 18l138 -164v-28l-138 -164z" />
    <glyph glyph-name="fraction" unicode="&#x2044;" horiz-adv-x="78" 
d="M206 672h32l-370 -684h-32z" />
    <glyph glyph-name="uni20AA" unicode="&#x20aa;" horiz-adv-x="664" 
d="M75 545h187q79 0 112 -50t33 -155v-160h-32v160q0 90 -25.5 132.5t-89.5 42.5h-153v-515h-32v545zM218 365h32v-332q125 8 193.5 47.5t96.5 119t27 217.5l-1 128h32l1 -128q1 -147 -35 -236.5t-119 -133t-227 -47.5v365z" />
    <glyph glyph-name="Euro" unicode="&#x20ac;" 
d="M468 82q-33 -46 -72 -70t-92 -24q-87 0 -143.5 70.5t-70.5 191.5h-66v24l63 4q-1 14 -1 44q0 24 1 36h-63v24l65 4q13 124 74 195t157 71q42 0 78.5 -22.5t59.5 -55.5l-22 -20q-50 70 -116 70q-83 0 -134.5 -63t-62.5 -175h287v-28h-289q-1 -12 -1 -36q0 -30 1 -44h249
v-28h-246q12 -109 59.5 -171.5t122.5 -62.5q42 0 75 20.5t65 63.5z" />
    <glyph glyph-name="uni210A" unicode="&#x210a;" horiz-adv-x="540" 
d="M92 -182l16 26q68 -51 150 -51q76 0 116 44t40 123v116q-34 -35 -75 -56.5t-87 -21.5q-92 0 -145 64t-53 182q0 74 29 130t78 86t107 30q41 0 73 -14t69 -42h2l4 44h28v-526q0 -85 -49.5 -135.5t-136.5 -50.5q-91 0 -166 52zM333.5 47q38.5 21 80.5 63v286
q-40 35 -75 50.5t-73 15.5q-50 0 -91.5 -29t-65 -79t-23.5 -110q0 -99 44 -158.5t124 -59.5q41 0 79.5 21z" />
    <glyph glyph-name="trademark" unicode="&#x2122;" horiz-adv-x="600" 
d="M112 648h-110v28h250v-28h-110v-278h-30v278zM306 676h44l54 -130l32 -88h4l32 88l52 130h44v-306h-30v170l4 96h-4l-86 -218h-30l-86 218h-4l4 -96v-170h-30v306z" />
    <glyph glyph-name="estimated" unicode="&#x212e;" horiz-adv-x="800" 
d="M222.5 33q-81.5 45 -129 122t-47.5 169t47.5 169t129 122t177.5 45t177.5 -45t129 -122t47.5 -169v-8h-574q-4 0 -4 -4v-184q0 -8 8 -20q41 -47 97.5 -73.5t120.5 -26.5q66 0 125.5 30t102.5 82h52q-51 -61 -124.5 -96.5t-157.5 -35.5q-96 0 -177.5 45zM620 334q6 0 6 6
v184q0 12 -10 22q-43 44 -98.5 69t-115.5 25q-63 0 -119 -26t-99 -72q-8 -12 -8 -22v-180q0 -6 4 -6h440z" />
    <glyph glyph-name="partialdiff" unicode="&#x2202;" horiz-adv-x="488" 
d="M399 597q53 -75 53 -235q0 -110 -30.5 -195t-87 -132t-130.5 -47q-45 0 -84 23t-62.5 65.5t-23.5 99.5q0 99 57 159.5t161 60.5q44 0 88 -20.5t79 -57.5q1 14 1 44q0 150 -44.5 216t-119.5 66q-33 0 -64.5 -14t-55.5 -40l-18 20q26 29 62.5 45.5t77.5 16.5q88 0 141 -75z
M345.5 89.5q54.5 73.5 69.5 191.5q-77 87 -165 87q-93 0 -138.5 -54.5t-45.5 -135.5q0 -47 19 -84t51 -57.5t70 -20.5q85 0 139.5 73.5z" />
    <glyph glyph-name="product" unicode="&#x220f;" horiz-adv-x="644" 
d="M96 640h452v-760h-34v732h-386v-732h-32v760z" />
    <glyph glyph-name="summation" unicode="&#x2211;" horiz-adv-x="480" 
d="M18 -94l264 354l-252 354v26h420v-28h-378v-4l248 -346l-260 -350v-4h422v-28h-464v26z" />
    <glyph glyph-name="minus" unicode="&#x2212;" 
d="M34 344h404v-28h-404v28z" />
    <glyph glyph-name="uni2215" unicode="&#x2215;" horiz-adv-x="78" 
d="M206 672h32l-370 -684h-32z" />
    <glyph glyph-name="uni2219" unicode="&#x2219;" horiz-adv-x="480" 
d="M209 294.5q-11 10.5 -11 27.5q0 19 11 29.5t25 10.5q15 0 25.5 -10.5t10.5 -29.5q0 -17 -11 -27.5t-25 -10.5t-25 10.5z" />
    <glyph glyph-name="radical" unicode="&#x221a;" horiz-adv-x="532" 
d="M134 334l-68 -32l-14 26l100 48l130 -388q6 -16 14 -48h4q4 16 5 24l5 24l194 832h30l-218 -928h-32z" />
    <glyph glyph-name="infinity" unicode="&#x221e;" horiz-adv-x="756" 
d="M459 205.5q-44 31.5 -97 94.5h-4q-6 -7 -34.5 -38.5t-66.5 -52.5t-79 -21q-36 0 -67 18.5t-50 51t-19 72.5q0 63 41 102.5t101 39.5q55 0 94.5 -31.5t79.5 -82.5h4q42 57 89 93.5t107 36.5q70 0 113 -43.5t43 -112.5q0 -44 -19 -80t-53.5 -57t-79.5 -21q-59 0 -103 31.5z
M651.5 241.5q32.5 35.5 32.5 88.5q0 57 -34 93.5t-94 36.5q-49 0 -91 -32t-87 -96q52 -67 94.5 -96.5t91.5 -29.5q55 0 87.5 35.5zM342 328q-43 56 -80.5 84t-79.5 28q-47 0 -78.5 -28.5t-31.5 -79.5t32.5 -83.5t77.5 -32.5q85 0 160 112z" />
    <glyph glyph-name="integral" unicode="&#x222b;" horiz-adv-x="286" 
d="M60 -152l6 26q16 -4 34 -4q42 0 56 44.5t14 137.5q0 47 -5.5 101.5t-17.5 164.5q-23 184 -23 256q0 102 21.5 158t78.5 56q29 0 38 -6l-6 -26q-16 4 -34 4q-40 0 -54 -45.5t-14 -138.5q0 -47 5.5 -109t16.5 -156q11 -96 16.5 -153.5t5.5 -101.5q0 -103 -21 -158.5
t-77 -55.5q-28 0 -40 6z" />
    <glyph glyph-name="approxequal" unicode="&#x2248;" 
d="M276 383q-23 13 -54 38q-26 21 -43 31t-35 10q-24 0 -43.5 -14.5t-36.5 -49.5l-22 12q19 39 46.5 59.5t57.5 20.5q27 0 50 -13t54 -38q26 -21 43 -31t35 -10q24 0 43.5 14.5t36.5 49.5l22 -14q-19 -38 -46.5 -58t-57.5 -20q-27 0 -50 13zM276 183q-23 13 -54 38
q-26 21 -43 31t-35 10q-24 0 -43.5 -14.5t-36.5 -49.5l-22 12q19 39 46.5 59.5t57.5 20.5q27 0 50 -13t54 -38q26 -21 43 -31t35 -10q24 0 43.5 14.5t36.5 49.5l22 -14q-19 -38 -46.5 -58t-57.5 -20q-27 0 -50 13z" />
    <glyph glyph-name="notequal" unicode="&#x2260;" 
d="M148 216h-114v28h132l106 172h-238v28h256l80 130h34l-80 -130h114v-28h-132l-106 -172h238v-28h-256l-80 -130h-34z" />
    <glyph glyph-name="lessequal" unicode="&#x2264;" 
d="M34 314v36l404 162v-32l-372 -146v-4l372 -146v-32zM34 28h404v-28h-404v28z" />
    <glyph glyph-name="greaterequal" unicode="&#x2265;" 
d="M34 184l372 146v4l-372 146v32l404 -162v-36l-404 -162v32zM34 28h404v-28h-404v28z" />
    <glyph glyph-name="lozenge" unicode="&#x25ca;" horiz-adv-x="492" 
d="M60 330l166 340h40l166 -340l-166 -340h-40zM248 16l70 142l80 172l-80 170l-70 144h-4l-70 -144l-80 -170l80 -172l70 -142h4z" />
    <glyph glyph-name="uni25CC" unicode="&#x25cc;" horiz-adv-x="600" 
d="M274.5 434.5q-8.5 8.5 -8.5 23.5t8.5 23.5t20.5 8.5q14 0 22.5 -8.5t8.5 -23.5t-8.5 -23.5t-22.5 -8.5q-12 0 -20.5 8.5zM168.5 408.5q-8.5 8.5 -8.5 22.5q0 16 8 24t21 8t21.5 -8t8.5 -24q0 -14 -8 -22.5t-22 -8.5q-12 0 -20.5 8.5zM381 408q-8 9 -8 23q0 15 8 23t20 8
q13 0 21.5 -8t8.5 -23q0 -14 -8 -23t-22 -9q-12 0 -20 9zM89.5 327q-8.5 9 -8.5 24t8.5 23t20.5 8q14 0 22.5 -8t8.5 -23q0 -16 -8.5 -24.5t-22.5 -8.5q-12 0 -20.5 9zM459.5 326q-8.5 9 -8.5 23t8.5 22.5t20.5 8.5q13 0 21.5 -8t8.5 -23t-8 -23.5t-22 -8.5q-12 0 -20.5 9z
M62 215.5q-8 8.5 -8 23.5t8 23t20 8q15 0 23.5 -8t8.5 -23t-9 -23.5t-23 -8.5q-12 0 -20 8.5zM486.5 215.5q-8.5 8.5 -8.5 23.5t8.5 23t21.5 8q12 0 21 -8t9 -23t-8 -23.5t-22 -8.5q-13 0 -21.5 8.5zM89.5 106q-8.5 9 -8.5 23q0 15 8 23.5t21 8.5q14 0 22.5 -8.5t8.5 -23.5
q0 -14 -8.5 -23t-22.5 -9q-12 0 -20.5 9zM459.5 106q-8.5 9 -8.5 23q0 15 8.5 23.5t20.5 8.5q13 0 21.5 -8.5t8.5 -23.5q0 -14 -8 -23t-22 -9q-12 0 -20.5 9zM168 24q-8 9 -8 25q0 14 8 21.5t21 7.5t21.5 -7.5t8.5 -21.5q0 -16 -8 -25t-22 -9q-13 0 -21 9zM381 24
q-8 9 -8 25q0 14 8 21.5t20 7.5q13 0 21.5 -7.5t8.5 -21.5q0 -16 -8 -25t-22 -9q-12 0 -20 9zM274 -3.5q-8 8.5 -8 23.5t8.5 23t20.5 8q14 0 22.5 -8t8.5 -23t-8.5 -23.5t-22.5 -8.5q-13 0 -21 8.5z" />
    <glyph glyph-name="dotlessj" unicode="&#xf6be;" horiz-adv-x="206" 
d="M-2.5 -230.5q-16.5 3.5 -27.5 8.5l8 26q30 -10 52 -10q39 0 52.5 27.5t13.5 80.5v576h30v-580q0 -68 -24 -100t-74 -32q-14 0 -30.5 3.5z" />
    <glyph glyph-name="uniFB2A" unicode="&#xfb2a;" horiz-adv-x="598" 
d="M430 101.5q-104 -103.5 -308 -111.5l-67 555h32l38 -309q56 32 88 63.5t48.5 75.5t18.5 112l1 55h32l-1 -55q-2 -76 -22 -126.5t-58 -86.5t-103 -70l22 -181q169 11 260 104.5t90 289.5l-1 128h32l1 -128q1 -212 -103 -315.5zM530.5 673q7.5 -9 7.5 -20q0 -12 -7.5 -21
t-19.5 -9t-20 9t-8 21q0 11 8 20t20 9t19.5 -9z" />
    <glyph glyph-name="uniFB2B" unicode="&#xfb2b;" horiz-adv-x="598" 
d="M430 101.5q-104 -103.5 -308 -111.5l-67 555h32l38 -309q56 32 88 63.5t48.5 75.5t18.5 112l1 55h32l-1 -55q-2 -76 -22 -126.5t-58 -86.5t-103 -70l22 -181q169 11 260 104.5t90 289.5l-1 128h32l1 -128q1 -212 -103 -315.5zM80.5 673q7.5 -9 7.5 -20q0 -12 -7.5 -21
t-19.5 -9t-20 9t-8 21q0 11 8 20t20 9t19.5 -9z" />
    <glyph glyph-name="uniFB2C" unicode="&#xfb2c;" horiz-adv-x="598" 
d="M430 101.5q-104 -103.5 -308 -111.5l-67 555h32l38 -309q56 32 88 63.5t48.5 75.5t18.5 112l1 55h32l-1 -55q-2 -76 -22 -126.5t-58 -86.5t-103 -70l22 -181q169 11 260 104.5t90 289.5l-1 128h32l1 -128q1 -212 -103 -315.5zM388.5 318.5q7.5 -8.5 7.5 -20.5t-7.5 -21
t-19.5 -9t-20 9t-8 21q0 11 8 20t20 9t19.5 -8.5zM530.5 673q7.5 -9 7.5 -20q0 -12 -7.5 -21t-19.5 -9t-20 9t-8 21q0 11 8 20t20 9t19.5 -9z" />
    <glyph glyph-name="uniFB2D" unicode="&#xfb2d;" horiz-adv-x="598" 
d="M430 101.5q-104 -103.5 -308 -111.5l-67 555h32l38 -309q56 32 88 63.5t48.5 75.5t18.5 112l1 55h32l-1 -55q-2 -76 -22 -126.5t-58 -86.5t-103 -70l22 -181q169 11 260 104.5t90 289.5l-1 128h32l1 -128q1 -212 -103 -315.5zM388.5 318.5q7.5 -8.5 7.5 -20.5t-7.5 -21
t-19.5 -9t-20 9t-8 21q0 11 8 20t20 9t19.5 -8.5zM80.5 673q7.5 -9 7.5 -20q0 -12 -7.5 -21t-19.5 -9t-20 9t-8 21q0 11 8 20t20 9t19.5 -9z" />
    <glyph glyph-name="uniFB2E" unicode="&#xfb2e;" horiz-adv-x="522" 
d="M445 0l-254 375l-119 -375h-32l108 344l25 60l-91 141h35l94 -147l109 -160l21 78l73 229h33l-108 -336l143 -209h-37zM338 -94h-154v33h154v-33z" />
    <glyph glyph-name="uniFB2F" unicode="&#xfb2f;" horiz-adv-x="522" 
d="M445 0l-254 375l-119 -375h-32l108 344l25 60l-91 141h35l94 -147l109 -160l21 78l73 229h33l-108 -336l143 -209h-37zM338 -94h-68l8 -100h-35l8 100h-67v33h154v-33z" />
    <glyph glyph-name="uniFB30" unicode="&#xfb30;" horiz-adv-x="522" 
d="M445 0l-254 375l-119 -375h-32l108 344l25 60l-91 141h35l94 -147l109 -160l21 78l73 229h33l-108 -336l143 -209h-37zM248.5 158.5q7.5 -8.5 7.5 -20.5t-7.5 -21t-19.5 -9t-20 9t-8 21q0 11 8 20t20 9t19.5 -8.5z" />
    <glyph glyph-name="uniFB31" unicode="&#xfb31;" horiz-adv-x="515" 
d="M470 30v-30h-106h-304v30h304v330q0 83 -35.5 119t-99.5 36h-169v30h171q79 0 122 -43.5t43 -141.5v-330h74zM214.5 318.5q7.5 -8.5 7.5 -20.5t-7.5 -21t-19.5 -9t-20 9t-8 21q0 11 8 20t20 9t19.5 -8.5z" />
    <glyph glyph-name="uniFB32" unicode="&#xfb32;" horiz-adv-x="338" 
d="M256 0l-30 155q-56 -120 -182 -166l-12 28q65 25 110 66.5t76 111.5v198q0 59 -13 87t-54 35l-65 11l6 29l61 -11q56 -10 76.5 -44.5t20.5 -106.5v-196l38 -197h-32zM110.5 318.5q7.5 -8.5 7.5 -20.5t-7.5 -21t-19.5 -9t-20 9t-8 21q0 11 8 20t20 9t19.5 -8.5z" />
    <glyph glyph-name="uniFB33" unicode="&#xfb33;" horiz-adv-x="531" 
d="M334 398q0 74 27 117h-296v30h401v-30h-72q-28 -41 -28 -117v-398h-32v398zM215.5 318.5q7.5 -8.5 7.5 -20.5t-7.5 -21t-19.5 -9t-20 9t-8 21q0 11 8 20t20 9t19.5 -8.5z" />
    <glyph glyph-name="uniFB34" unicode="&#xfb34;" horiz-adv-x="528" 
d="M416 360q0 83 -35.5 119t-99.5 36h-216v30h218q79 0 122 -43.5t43 -141.5v-360h-32v360zM67 268l5 67h27v-335h-32v268zM274.5 318.5q7.5 -8.5 7.5 -20.5t-7.5 -21t-19.5 -9t-20 9t-8 21q0 11 8 20t20 9t19.5 -8.5z" />
    <glyph glyph-name="uniFB35" unicode="&#xfb35;" horiz-adv-x="201" 
d="M89 428l-14 117h32l14 -117v-428h-32v428zM20.5 318.5q7.5 -8.5 7.5 -20.5t-7.5 -21t-19.5 -9t-20 9t-8 21q0 11 8 20t20 9t19.5 -8.5z" />
    <glyph glyph-name="uniFB36" unicode="&#xfb36;" horiz-adv-x="351" 
d="M145 398q0 74 27 117h-107v30h221v-30h-81q-28 -41 -28 -117v-398h-32v398zM80.5 318.5q7.5 -8.5 7.5 -20.5t-7.5 -21t-19.5 -9t-20 9t-8 21q0 11 8 20t20 9t19.5 -8.5z" />
    <glyph glyph-name="uniFB38" unicode="&#xfb38;" horiz-adv-x="528" 
d="M55 545h32l64 -522q125 13 211 84.5t79 228.5v21q0 74 -37 116t-112 46l-50 3l2 30l52 -4q85 -7 129 -51.5t47 -132.5l1 -28q4 -116 -43 -191.5t-127.5 -112.5t-180.5 -42zM288.5 318.5q7.5 -8.5 7.5 -20.5t-7.5 -21t-19.5 -9t-20 9t-8 21q0 11 8 20t20 9t19.5 -8.5z" />
    <glyph glyph-name="uniFB39" unicode="&#xfb39;" horiz-adv-x="201" 
d="M89 428l-14 117h32l14 -117v-145l-1 -63l-31 -10v218zM31.5 407.5q7.5 -8.5 7.5 -20.5t-7.5 -21t-19.5 -9t-20 9t-8 21q0 11 8 20t20 9t19.5 -8.5z" />
    <glyph glyph-name="uniFB3A" unicode="&#xfb3a;" horiz-adv-x="497" 
d="M385 360q0 83 -35.5 119t-99.5 36h-185v30h187q79 0 122 -43.5t43 -141.5v-560h-32v560zM218.5 318.5q7.5 -8.5 7.5 -20.5t-7.5 -21t-19.5 -9t-20 9t-8 21q0 11 8 20t20 9t19.5 -8.5z" />
    <glyph glyph-name="uniFB3B" unicode="&#xfb3b;" horiz-adv-x="462" 
d="M55 30h114q196 0 196 215v55q0 215 -196 215h-114v30h114q109 0 168.5 -61t59.5 -184v-55q0 -123 -59.5 -184t-168.5 -61h-114v30zM203.5 308.5q7.5 -8.5 7.5 -20.5t-7.5 -21t-19.5 -9t-20 9t-8 21q0 11 8 20t20 9t19.5 -8.5z" />
    <glyph glyph-name="uniFB3C" unicode="&#xfb3c;" horiz-adv-x="462" 
d="M407 545v-30l-202 -515h-32l202 515h-325v202h32v-172h325zM155.5 318.5q7.5 -8.5 7.5 -20.5t-7.5 -21t-19.5 -9t-20 9t-8 21q0 11 8 20t20 9t19.5 -8.5z" />
    <glyph glyph-name="uniFB3E" unicode="&#xfb3e;" horiz-adv-x="580" 
d="M465.5 64q-56.5 -74 -162.5 -74q-40 0 -76 8l5 29q39 -9 71 -9q92 0 139.5 66.5t47.5 196.5q0 238 -165 238q-118 0 -154 -136l-74 -383h-32l77 391l-76 154h33l59 -122q19 62 64.5 93.5t101.5 31.5q88 0 143 -60t55 -208q0 -142 -56.5 -216zM339.5 318.5
q7.5 -8.5 7.5 -20.5t-7.5 -21t-19.5 -9t-20 9t-8 21q0 11 8 20t20 9t19.5 -8.5z" />
    <glyph glyph-name="uniFB40" unicode="&#xfb40;" horiz-adv-x="359" 
d="M55 30h192v363q0 56 -23.5 85t-69.5 37l-65 11l6 29l61 -11q123 -22 123 -151v-393h-224v30zM129.5 318.5q7.5 -8.5 7.5 -20.5t-7.5 -21t-19.5 -9t-20 9t-8 21q0 11 8 20t20 9t19.5 -8.5z" />
    <glyph glyph-name="uniFB41" unicode="&#xfb41;" horiz-adv-x="538" 
d="M387 73.5q-102 -74.5 -265 -83.5l-64 525l-3 30h251q81 0 127 -54.5t49 -146.5l1 -28q6 -168 -96 -242.5zM371 99q87 62 80 217v21q0 77 -38.5 127.5t-110.5 50.5h-212l61 -492q133 14 220 76zM287.5 318.5q7.5 -8.5 7.5 -20.5t-7.5 -21t-19.5 -9t-20 9t-8 21q0 11 8 20
t20 9t19.5 -8.5z" />
    <glyph glyph-name="uniFB43" unicode="&#xfb43;" horiz-adv-x="536" 
d="M405 485q50 -60 51 -183v-502h-32v500q0 110 -40 162.5t-121 52.5h-126l-22 -109q-10 -47 -10 -72q0 -36 15 -58t47 -33l-14 -26q-39 14 -58.5 41.5t-19.5 75.5q0 36 8 72l28 139h152q92 0 142 -60zM307.5 318.5q7.5 -8.5 7.5 -20.5t-7.5 -21t-19.5 -9t-20 9t-8 21
q0 11 8 20t20 9t19.5 -8.5z" />
    <glyph glyph-name="uniFB44" unicode="&#xfb44;" horiz-adv-x="530" 
d="M91 30h138q93 0 148.5 47.5t55.5 169.5v53q0 110 -40 162.5t-121 52.5h-126l-31 -128q-9 -39 -9 -67q0 -40 21 -62.5t70 -31.5l-12 -29q-58 11 -84 40.5t-26 82.5q0 27 8 67l37 158h152q92 0 142 -60t51 -183v-55q0 -247 -236 -247h-138v30zM301.5 318.5
q7.5 -8.5 7.5 -20.5t-7.5 -21t-19.5 -9t-20 9t-8 21q0 11 8 20t20 9t19.5 -8.5z" />
    <glyph glyph-name="uniFB46" unicode="&#xfb46;" horiz-adv-x="488" 
d="M443 0h-35h-363v30h345l-318 515h35l162 -264l116 264h34l-132 -292zM178.5 147q-7.5 -9 -19.5 -9t-20 9t-8 21q0 11 8 20t20 9t19.5 -8.5t7.5 -20.5t-7.5 -21z" />
    <glyph glyph-name="uniFB47" unicode="&#xfb47;" horiz-adv-x="521" 
d="M204 30q58 8 98 27.5t69 72.5t36 151l20 234h-367v30h401l-2 -30l-20 -234q-7 -144 -72.5 -209t-157.5 -72zM68 288l5 67h27v-555h-32v488zM285.5 318.5q7.5 -8.5 7.5 -20.5t-7.5 -21t-19.5 -9t-20 9t-8 21q0 11 8 20t20 9t19.5 -8.5z" />
    <glyph glyph-name="uniFB48" unicode="&#xfb48;" horiz-adv-x="462" 
d="M350 360q0 83 -35.5 119t-99.5 36h-165v30h167q79 0 122 -43.5t43 -141.5v-360h-32v360zM183.5 318.5q7.5 -8.5 7.5 -20.5t-7.5 -21t-19.5 -9t-20 9t-8 21q0 11 8 20t20 9t19.5 -8.5z" />
    <glyph glyph-name="uniFB49" unicode="&#xfb49;" horiz-adv-x="598" 
d="M430 101.5q-104 -103.5 -308 -111.5l-67 555h32l38 -309q56 32 88 63.5t48.5 75.5t18.5 112l1 55h32l-1 -55q-2 -76 -22 -126.5t-58 -86.5t-103 -70l22 -181q169 11 260 104.5t90 289.5l-1 128h32l1 -128q1 -212 -103 -315.5zM388.5 318.5q7.5 -8.5 7.5 -20.5t-7.5 -21
t-19.5 -9t-20 9t-8 21q0 11 8 20t20 9t19.5 -8.5z" />
    <glyph glyph-name="uniFB4A" unicode="&#xfb4a;" horiz-adv-x="585" 
d="M25 15q61 4 87.5 37.5t25.5 94.5v398h207q79 0 122 -43.5t43 -141.5v-360h-32v360q0 83 -35.5 119t-99.5 36h-173v-367q0 -73 -33.5 -113t-106.5 -47zM338.5 318.5q7.5 -8.5 7.5 -20.5t-7.5 -21t-19.5 -9t-20 9t-8 21q0 11 8 20t20 9t19.5 -8.5z" />
    <glyph glyph-name="uniFB4B" unicode="&#xfb4b;" horiz-adv-x="201" 
d="M89 428l-14 117h32l14 -117v-428h-32v428zM98.5 657.5q7.5 -8.5 7.5 -20.5t-7.5 -21t-19.5 -9t-20 9t-8 21q0 11 8 20t20 9t19.5 -8.5z" />
    <glyph glyph-name="a.sups" horiz-adv-x="334" 
d="M70.5 425.5q-26.5 23.5 -26.5 66.5q0 52 49.5 79.5t158.5 38.5q0 46 -16 72t-56 26q-29 0 -59.5 -12t-50.5 -26l-12 22q24 16 56.5 29t67.5 13q54 0 76 -31.5t22 -90.5v-202h-22l-6 40h-4q-56 -48 -108 -48q-43 0 -69.5 23.5zM252 480v108q-96 -10 -137 -33t-41 -61
q0 -33 19 -49.5t53 -16.5q51 0 106 52z" />
    <glyph glyph-name="e.sups" horiz-adv-x="328" 
d="M74 446q-42 44 -42 122q0 50 19 87.5t51.5 58t71.5 20.5q68 0 96 -45t28 -95q0 -14 -2 -30h-234q0 -61 32.5 -98.5t87.5 -37.5q49 0 90 30l14 -22q-26 -16 -50 -25t-56 -9q-64 0 -106 44zM270 590q0 47 -23.5 82.5t-72.5 35.5q-46 0 -76 -32t-36 -86h208z" />
    <glyph glyph-name="eogonek.sups" horiz-adv-x="328" 
d="M74 446q-42 44 -42 122q0 50 19 87.5t51.5 58t71.5 20.5q68 0 96 -45t28 -95q0 -14 -2 -30h-234q0 -61 32.5 -98.5t87.5 -37.5q49 0 90 30l14 -22q-26 -16 -50 -25t-56 -9q-64 0 -106 44zM270 590q0 47 -23.5 82.5t-72.5 35.5q-46 0 -76 -32t-36 -86h208z" />
    <glyph glyph-name="j.sups" horiz-adv-x="152" 
d="M58 810q-8 8 -8 20t8 20t20 8t20 -8t8 -20t-8 -20t-20 -8t-20 8zM-0.5 260q-8.5 2 -19.5 6l8 26q15 -6 30 -6q25 0 34.5 16.5t9.5 49.5v374h28v-370q0 -51 -17.5 -74.5t-52.5 -23.5q-12 0 -20.5 2z" />
    <glyph glyph-name="o.sups" horiz-adv-x="358" 
d="M75 447q-41 45 -41 121q0 77 41 121.5t103 44.5t103 -44.5t41 -121.5q0 -76 -41 -121t-103 -45t-103 45zM260.5 467q31.5 39 31.5 101q0 63 -31.5 101.5t-82.5 38.5t-82.5 -38.5t-31.5 -101.5q0 -62 31.5 -101t82.5 -39t82.5 39z" />
    <glyph glyph-name="zero.heb" 
d="M98 75q-48 87 -48 247q0 159 48 244.5t138 85.5t138 -85.5t48 -244.5q0 -160 -48 -247t-138 -87t-138 87zM349 96q41 80 41 226t-41 224t-113 78t-113 -78t-41 -224t41 -226t113 -80t113 80z" />
    <glyph glyph-name="one.heb" 
d="M86 28h152v552h-114v22q72 11 118 38h26v-612h142v-28h-324v28z" />
    <glyph glyph-name="two.heb" 
d="M42 20q120 124 186 200t100 138.5t34 117.5q0 66 -36.5 107t-109.5 41q-43 0 -82.5 -23t-71.5 -63l-22 20q39 44 82 69t96 25q83 0 129.5 -47.5t46.5 -128.5q0 -62 -35 -126.5t-93 -131.5t-178 -194q72 4 108 4h230v-28h-384v20z" />
    <glyph glyph-name="three.heb" 
d="M114.5 13q-46.5 25 -84.5 65l20 22q35 -38 77.5 -61t104.5 -23q68 0 112 41.5t44 108.5q0 72 -56.5 114t-173.5 42v30q107 0 156.5 40.5t49.5 105.5q0 57 -37 91.5t-99 34.5q-43 0 -82 -20t-68 -52l-20 22q78 78 170 78q73 0 120.5 -41t47.5 -111q0 -61 -34 -101.5
t-90 -58.5v-4q63 -13 105.5 -57.5t42.5 -110.5q0 -54 -25 -95t-68 -63t-97 -22q-69 0 -115.5 25z" />
    <glyph glyph-name="four.heb" 
d="M440 196h-98v-196h-30v196h-296v16l306 428h20v-416h98v-28zM312 224v252q0 50 4 106h-4q-5 -8 -13 -19.5t-14 -20.5q-18 -25 -25 -36l-202 -282h254z" />
    <glyph glyph-name="five.heb" 
d="M110.5 11.5q-45.5 23.5 -84.5 62.5l20 22q35 -37 76.5 -58.5t103.5 -21.5q44 0 82 23t61 65t23 94q0 81 -44.5 127.5t-119.5 46.5q-35 0 -62.5 -11t-59.5 -33l-26 16l24 296h286v-28h-258l-22 -246q28 17 56.5 26.5t63.5 9.5q86 0 140 -51t54 -151q0 -65 -28.5 -113
t-74.5 -73.5t-97 -25.5q-68 0 -113.5 23.5z" />
    <glyph glyph-name="six.heb" 
d="M382 333q46 -51 46 -147q0 -56 -23 -101t-62 -71t-85 -26q-96 0 -150 79t-54 221q0 190 65 277t167 87q75 0 128 -60l-20 -22q-21 27 -49.5 40.5t-60.5 13.5q-87 0 -142 -79t-56 -252q35 43 78 67t88 24q84 0 130 -51zM329 39q31 23 49 61.5t18 85.5q0 77 -36 123.5
t-110 46.5q-38 0 -81 -24.5t-82 -76.5q6 -110 49 -174.5t124 -64.5q38 0 69 23z" />
    <glyph glyph-name="seven.heb" 
d="M244 335q45 139 144 277h-344v28h386v-18q-76 -101 -118.5 -195.5t-61.5 -194t-24 -232.5h-34q7 196 52 335z" />
    <glyph glyph-name="eight.heb" 
d="M137.5 11q-45.5 23 -71.5 63.5t-26 89.5q0 60 38.5 108t91.5 76v4q-40 26 -66 62.5t-26 83.5q0 44 21.5 79t58.5 55t82 20q79 0 124.5 -46.5t45.5 -119.5q0 -48 -28.5 -92.5t-63.5 -73.5v-4q53 -33 82.5 -68.5t29.5 -93.5q0 -46 -24 -84t-67 -60t-99 -22q-57 0 -102.5 23
zM378 486q0 58 -37 98t-101 40q-57 0 -93.5 -36t-36.5 -90q0 -45 24.5 -76t60.5 -50.5t93 -41.5q90 71 90 156zM323 34.5q36 18.5 55.5 50t19.5 69.5q0 48 -27.5 80.5t-66 52t-110.5 47.5q-122 -70 -122 -170q0 -41 21.5 -74.5t60 -53.5t86.5 -20q47 0 83 18.5z" />
    <glyph glyph-name="nine.heb" 
d="M364 573q54 -79 54 -221q0 -190 -65 -277t-167 -87q-76 0 -128 60l20 22q21 -27 49.5 -40.5t60.5 -13.5q87 0 142 79t56 252q-35 -43 -78 -67t-88 -24q-84 0 -130 51t-46 147q0 56 23 101t62 71t85 26q96 0 150 -79zM303 308.5q43 24.5 82 76.5q-6 110 -49 174.5
t-124 64.5q-38 0 -69 -23t-49 -61.5t-18 -85.5q0 -77 36 -123.5t110 -46.5q38 0 81 24.5z" />
    <glyph glyph-name="zero.lat" 
d="M98 75q-48 87 -48 247q0 159 48 244.5t138 85.5t138 -85.5t48 -244.5q0 -160 -48 -247t-138 -87t-138 87zM349 96q41 80 41 226t-41 224t-113 78t-113 -78t-41 -224t41 -226t113 -80t113 80z" />
    <glyph glyph-name="one.lat" 
d="M86 28h152v552h-114v22q72 11 118 38h26v-612h142v-28h-324v28z" />
    <glyph glyph-name="two.lat" 
d="M42 20q120 124 186 200t100 138.5t34 117.5q0 66 -36.5 107t-109.5 41q-43 0 -82.5 -23t-71.5 -63l-22 20q39 44 82 69t96 25q83 0 129.5 -47.5t46.5 -128.5q0 -62 -35 -126.5t-93 -131.5t-178 -194q72 4 108 4h230v-28h-384v20z" />
    <glyph glyph-name="three.lat" 
d="M114.5 13q-46.5 25 -84.5 65l20 22q35 -38 77.5 -61t104.5 -23q68 0 112 41.5t44 108.5q0 72 -56.5 114t-173.5 42v30q107 0 156.5 40.5t49.5 105.5q0 57 -37 91.5t-99 34.5q-43 0 -82 -20t-68 -52l-20 22q78 78 170 78q73 0 120.5 -41t47.5 -111q0 -61 -34 -101.5
t-90 -58.5v-4q63 -13 105.5 -57.5t42.5 -110.5q0 -54 -25 -95t-68 -63t-97 -22q-69 0 -115.5 25z" />
    <glyph glyph-name="four.lat" 
d="M440 196h-98v-196h-30v196h-296v16l306 428h20v-416h98v-28zM312 224v252q0 50 4 106h-4q-5 -8 -13 -19.5t-14 -20.5q-18 -25 -25 -36l-202 -282h254z" />
    <glyph glyph-name="five.lat" 
d="M110.5 11.5q-45.5 23.5 -84.5 62.5l20 22q35 -37 76.5 -58.5t103.5 -21.5q44 0 82 23t61 65t23 94q0 81 -44.5 127.5t-119.5 46.5q-35 0 -62.5 -11t-59.5 -33l-26 16l24 296h286v-28h-258l-22 -246q28 17 56.5 26.5t63.5 9.5q86 0 140 -51t54 -151q0 -65 -28.5 -113
t-74.5 -73.5t-97 -25.5q-68 0 -113.5 23.5z" />
    <glyph glyph-name="six.lat" 
d="M382 333q46 -51 46 -147q0 -56 -23 -101t-62 -71t-85 -26q-96 0 -150 79t-54 221q0 190 65 277t167 87q75 0 128 -60l-20 -22q-21 27 -49.5 40.5t-60.5 13.5q-87 0 -142 -79t-56 -252q35 43 78 67t88 24q84 0 130 -51zM329 39q31 23 49 61.5t18 85.5q0 77 -36 123.5
t-110 46.5q-38 0 -81 -24.5t-82 -76.5q6 -110 49 -174.5t124 -64.5q38 0 69 23z" />
    <glyph glyph-name="seven.lat" 
d="M244 335q45 139 144 277h-344v28h386v-18q-76 -101 -118.5 -195.5t-61.5 -194t-24 -232.5h-34q7 196 52 335z" />
    <glyph glyph-name="eight.lat" 
d="M137.5 11q-45.5 23 -71.5 63.5t-26 89.5q0 60 38.5 108t91.5 76v4q-40 26 -66 62.5t-26 83.5q0 44 21.5 79t58.5 55t82 20q79 0 124.5 -46.5t45.5 -119.5q0 -48 -28.5 -92.5t-63.5 -73.5v-4q53 -33 82.5 -68.5t29.5 -93.5q0 -46 -24 -84t-67 -60t-99 -22q-57 0 -102.5 23
zM378 486q0 58 -37 98t-101 40q-57 0 -93.5 -36t-36.5 -90q0 -45 24.5 -76t60.5 -50.5t93 -41.5q90 71 90 156zM323 34.5q36 18.5 55.5 50t19.5 69.5q0 48 -27.5 80.5t-66 52t-110.5 47.5q-122 -70 -122 -170q0 -41 21.5 -74.5t60 -53.5t86.5 -20q47 0 83 18.5z" />
    <glyph glyph-name="nine.lat" 
d="M364 573q54 -79 54 -221q0 -190 -65 -277t-167 -87q-76 0 -128 60l20 22q21 -27 49.5 -40.5t60.5 -13.5q87 0 142 79t56 252q-35 -43 -78 -67t-88 -24q-84 0 -130 51t-46 147q0 56 23 101t62 71t85 26q96 0 150 -79zM303 308.5q43 24.5 82 76.5q-6 110 -49 174.5
t-124 64.5q-38 0 -69 -23t-49 -61.5t-18 -85.5q0 -77 36 -123.5t110 -46.5q38 0 81 24.5z" />
    <glyph glyph-name="zero.pnumheb" horiz-adv-x="504" 
d="M125.5 62.5q-44.5 75.5 -44.5 215.5q0 139 44 213.5t127 74.5t127 -74.5t44 -213.5q0 -140 -44.5 -215.5t-126.5 -75.5t-126.5 75.5zM356.5 83q37.5 70 37.5 195t-37.5 193.5t-104.5 68.5t-104.5 -68.5t-37.5 -193.5t37.5 -195t104.5 -70t104.5 70z" />
    <glyph glyph-name="one.pnumheb" horiz-adv-x="336" 
d="M296 29v-30h-128h-100v30h100v474h-100v20l1 1q62 10 102 34h25v-529h100z" />
    <glyph glyph-name="two.pnumheb" horiz-adv-x="480" 
d="M66 19q105 107 162 173.5t86.5 120.5t29.5 102q0 57 -31.5 92.5t-94.5 35.5q-37 0 -71 -20.5t-62 -54.5h-2l-19 17v2q36 40 73.5 61t82.5 21q72 0 113 -42t41 -112q0 -54 -30.5 -110t-80.5 -114.5t-153 -167.5q45 3 91 3h201v-26h-336v19z" />
    <glyph glyph-name="three.pnumheb" 
d="M358.5 241q36.5 -39 36.5 -97q0 -71 -47 -114t-119 -43q-60 0 -100.5 21.5t-74.5 56.5v1l18 20h1q30 -33 67 -53t91 -20q59 0 96.5 36t37.5 93q0 63 -48.5 99t-150.5 36l-1 1v26l1 1q93 0 136 35t43 91q0 49 -32 79t-86 30q-37 0 -70.5 -17.5t-58.5 -45.5h-2l-17 19v2
q68 68 148 68q63 0 105 -36t42 -97q0 -53 -29.5 -88.5t-77.5 -51.5v-2q55 -11 91.5 -50z" />
    <glyph glyph-name="four.pnumheb" 
d="M430 169h-86v-170h-28v170h-257v16l266 373h19v-362h86v-27zM316 196v218q0 43 4 91l-2 1l-24 -36q-7 -9 -21 -31l-175 -243h218z" />
    <glyph glyph-name="five.pnumheb" 
d="M124.5 7.5q-39.5 20.5 -73.5 54.5v1l17 19h2q30 -32 66 -50.5t90 -18.5q38 0 71 20t52.5 56t19.5 81q0 70 -38 110t-104 40q-27 0 -50.5 -8t-55.5 -30l-23 15l21 259h250v-27h-224l-21 -212q26 16 50.5 24t54.5 8q75 0 122.5 -45t47.5 -132q0 -57 -25 -99t-65 -64
t-85 -22q-60 0 -99.5 20.5z" />
    <glyph glyph-name="six.pnumheb" 
d="M374 288q40 -45 40 -128q0 -49 -20 -88.5t-54.5 -62t-74.5 -22.5q-85 0 -131.5 69t-46.5 192q0 166 57 242t146 76q66 0 112 -53v-1l-18 -19h-1q-38 47 -95 47q-75 0 -122.5 -68t-48.5 -217q31 37 68 57.5t75 20.5q74 0 114 -45zM350.5 55.5q33.5 42.5 33.5 104.5
q0 67 -31 107t-95 40q-33 0 -70 -21.5t-70 -66.5q5 -95 42 -150.5t107 -55.5q50 0 83.5 42.5z" />
    <glyph glyph-name="seven.pnumheb" horiz-adv-x="470" 
d="M187 1q7 170 45 290.5t121 240.5h-286v27h326v-18q-65 -87 -101 -169t-52 -168.5t-21 -202.5l-1 -1h-30z" />
    <glyph glyph-name="eight.pnumheb" 
d="M169 7q-40 20 -63 55t-23 79q0 48 31 90.5t84 70.5q-40 26 -61 59t-21 70q0 59 41 97t101 38q69 0 109 -41t40 -104q0 -38 -22.5 -77t-60.5 -70q54 -33 77 -65.5t23 -76.5q0 -40 -21 -73.5t-59 -52.5t-86 -19q-49 0 -89 20zM377 421q0 50 -32 84.5t-87 34.5
q-49 0 -80.5 -31t-31.5 -78q0 -39 21.5 -65.5t52.5 -43.5t79 -36q78 62 78 135zM356.5 47q37.5 34 37.5 85q0 42 -24 70t-56.5 44.5t-95.5 41.5q-105 -61 -105 -147q0 -54 41 -91t104 -37q61 0 98.5 34z" />
    <glyph glyph-name="nine.pnumheb" 
d="M355 496.5q47 -69.5 47 -192.5q0 -166 -57 -241.5t-145 -75.5q-67 0 -112 52v1l17 20l2 -1q18 -22 42.5 -34t51.5 -12q75 0 123 67.5t49 216.5q-31 -37 -68 -57t-76 -20q-74 0 -114 45t-40 128q0 48 20.5 88t54.5 62.5t74 22.5q84 0 131 -69.5zM301.5 267.5
q37.5 21.5 70.5 66.5q-5 95 -42 150.5t-108 55.5q-33 0 -59.5 -19.5t-42 -53.5t-15.5 -74q0 -67 31 -107t95 -40q33 0 70.5 21.5z" />
    <glyph glyph-name="one.supsheb" horiz-adv-x="360" 
d="M178 740h-82v22q52 11 84 38h26v-390h-28v330z" />
    <glyph glyph-name="two.supsheb" horiz-adv-x="360" 
d="M58 430q78 73 117.5 115t59 76t19.5 67q0 45 -24.5 71.5t-65.5 26.5q-27 0 -51.5 -18t-42.5 -46l-20 18q17 30 49 51t67 21q54 0 86 -31t32 -91q0 -38 -19 -73.5t-50 -70t-93 -94.5l-16 -16h202v-26h-250v20z" />
    <glyph glyph-name="three.supsheb" horiz-adv-x="360" 
d="M99 419.5q-35 21.5 -57 52.5l24 18q19 -29 48.5 -47.5t63.5 -18.5q41 0 68.5 23.5t27.5 64.5q0 40 -38.5 62t-105.5 22v24q59 0 93.5 26t34.5 62q0 35 -24 56.5t-64 21.5q-23 0 -47.5 -14.5t-44.5 -39.5l-20 18q21 28 50.5 45t63.5 17q50 0 83 -27.5t33 -74.5
q0 -36 -21.5 -61.5t-56.5 -38.5q39 -7 66.5 -32.5t27.5 -65.5q0 -53 -36 -83.5t-92 -30.5q-42 0 -77 21.5z" />
    <glyph glyph-name="fraction.lat" horiz-adv-x="78" 
d="M206 672h32l-370 -684h-32z" />
    <glyph glyph-name="one.sups" horiz-adv-x="360" 
d="M178 740h-82v22q52 11 84 38h26v-390h-28v330z" />
    <glyph glyph-name="two.sups" horiz-adv-x="360" 
d="M58 430q78 73 117.5 115t59 76t19.5 67q0 45 -24.5 71.5t-65.5 26.5q-27 0 -51.5 -18t-42.5 -46l-20 18q17 30 49 51t67 21q54 0 86 -31t32 -91q0 -38 -19 -73.5t-50 -70t-93 -94.5l-16 -16h202v-26h-250v20z" />
    <glyph glyph-name="three.sups" horiz-adv-x="360" 
d="M99 419.5q-35 21.5 -57 52.5l24 18q19 -29 48.5 -47.5t63.5 -18.5q41 0 68.5 23.5t27.5 64.5q0 40 -38.5 62t-105.5 22v24q59 0 93.5 26t34.5 62q0 35 -24 56.5t-64 21.5q-23 0 -47.5 -14.5t-44.5 -39.5l-20 18q21 28 50.5 45t63.5 17q50 0 83 -27.5t33 -74.5
q0 -36 -21.5 -61.5t-56.5 -38.5q39 -7 66.5 -32.5t27.5 -65.5q0 -53 -36 -83.5t-92 -30.5q-42 0 -77 21.5z" />
    <glyph glyph-name="asterisk.lat" horiz-adv-x="386" 
d="M108 494l54 86l-88 34l8 24l92 -26l6 100h26l6 -98l92 24l8 -24l-88 -34l54 -86l-22 -16l-62 82l-64 -82z" />
    <glyph glyph-name="backslash.lat" horiz-adv-x="360" 
d="M2 710h30l320 -870h-30z" />
    <glyph glyph-name="periodcentered.lat" horiz-adv-x="208" 
d="M79 294.5q-11 10.5 -11 27.5q0 19 11 29.5t25 10.5q15 0 25.5 -10.5t10.5 -29.5q0 -17 -11 -27.5t-25 -10.5t-25 10.5z" />
    <glyph glyph-name="bullet.lat" horiz-adv-x="272" 
d="M69 187.5q-29 29.5 -29 76.5t29 76.5t67 29.5t67 -29.5t29 -76.5t-29 -76.5t-67 -29.5t-67 29.5z" />
    <glyph glyph-name="exclam.lat" horiz-adv-x="248" 
d="M108 608v62h32v-62l-4 -436h-24zM99 -1.5q-11 10.5 -11 27.5q0 19 11 29.5t25 10.5q15 0 25.5 -10.5t10.5 -29.5q0 -17 -11 -27.5t-25 -10.5t-25 10.5z" />
    <glyph glyph-name="exclamdown.lat" horiz-adv-x="248" 
d="M99 423q-11 11 -11 29q0 17 11 27.5t25 10.5t25 -10.5t11 -27.5q0 -18 -10.5 -29t-25.5 -11q-14 0 -25 11zM108 -130l4 436h24l4 -436v-62h-32v62z" />
    <glyph glyph-name="numbersign.lat" 
d="M120 218h-84v28h88l22 178h-90v28h92l26 198h28l-26 -198h156l26 198h28l-26 -198h82v-28h-84l-22 -178h86v-28h-90l-26 -218h-28l26 218h-156l-26 -218h-28zM308 246l22 178h-156l-22 -178h156z" />
    <glyph glyph-name="question.lat" horiz-adv-x="394" 
d="M162 202q0 51 20 90t59 90q35 46 52 77.5t17 70.5q0 52 -30.5 88t-89.5 36q-38 0 -73.5 -17.5t-60.5 -48.5l-20 18q69 76 156 76q70 0 110 -43t40 -107q0 -42 -18 -76.5t-56 -85.5q-39 -51 -58.5 -88.5t-19.5 -84.5q0 -7 2 -25h-28q-2 20 -2 30zM157 -1.5
q-11 10.5 -11 27.5q0 19 11 29.5t25 10.5q15 0 25.5 -10.5t10.5 -29.5q0 -17 -11 -27.5t-25 -10.5t-25 10.5z" />
    <glyph glyph-name="questiondown.lat" horiz-adv-x="394" 
d="M187 423q-11 11 -11 29q0 17 11 27.5t25 10.5t25 -10.5t11 -27.5q0 -18 -10.5 -29t-25.5 -11q-14 0 -25 11zM92 -161q-40 43 -40 107q0 42 18 76.5t56 85.5q39 51 58.5 88.5t19.5 84.5q0 7 -2 25h28q2 -20 2 -30q0 -51 -20 -90t-59 -90q-35 -46 -52 -77.5t-17 -70.5
q0 -52 30.5 -88t89.5 -36q38 0 73.5 17.5t60.5 48.5l20 -18q-69 -76 -156 -76q-70 0 -110 43z" />
    <glyph glyph-name="quotedbl.lat" horiz-adv-x="336" 
d="M84 634v60h38v-60l-6 -140h-26zM212 634v60h38v-60l-6 -140h-26z" />
    <glyph glyph-name="quotesingle.lat" horiz-adv-x="208" 
d="M84 634v60h38v-60l-6 -140h-26z" />
    <glyph glyph-name="slash.lat" horiz-adv-x="360" 
d="M328 710h30l-320 -870h-30z" />
    <glyph glyph-name="braceleft.lat" horiz-adv-x="270" 
d="M139.5 -125q-25.5 27 -25.5 99q0 38 4 108q4 68 4 102q0 82 -86 82v24q86 0 86 80q0 35 -4 105t-4 107q0 72 25.5 99t82.5 27h30v-22h-32q-46 0 -63 -25.5t-17 -82.5q0 -47 3 -92q0 -15 1.5 -46.5t1.5 -57.5q0 -45 -10.5 -69t-37.5 -33v-4q27 -9 37.5 -33.5t10.5 -68.5
q0 -26 -1.5 -57.5t-1.5 -46.5q-3 -45 -3 -92q0 -57 17 -82.5t63 -25.5h32v-22h-30q-57 0 -82.5 27z" />
    <glyph glyph-name="braceright.lat" horiz-adv-x="270" 
d="M18 -130h32q46 0 63 25.5t17 82.5q0 47 -3 92q0 15 -1.5 46.5t-1.5 57.5q0 44 10.5 68.5t37.5 33.5v4q-27 9 -37.5 33t-10.5 69q0 26 1.5 57.5t1.5 46.5q3 45 3 92q0 57 -17 82.5t-63 25.5h-32v22h30q57 0 82.5 -27t25.5 -99q0 -37 -4 -107t-4 -105q0 -80 86 -80v-24
q-86 0 -86 -82q0 -34 4 -102q4 -70 4 -108q0 -72 -25.5 -99t-82.5 -27h-30v22z" />
    <glyph glyph-name="bracketleft.lat" horiz-adv-x="270" 
d="M100 708h152v-22h-128v-816h128v-22h-152v860z" />
    <glyph glyph-name="bracketright.lat" horiz-adv-x="270" 
d="M18 -130h128v816h-128v22h152v-860h-152v22z" />
    <glyph glyph-name="parenleft.lat" horiz-adv-x="270" 
d="M124 40.5q-34 110.5 -34 237.5t34 237.5t98 214.5l18 -12q-60 -94 -91 -207t-31 -233t31 -233t91 -207l-18 -12q-64 104 -98 214.5z" />
    <glyph glyph-name="parenright.lat" horiz-adv-x="270" 
d="M30 -162q60 94 91 207t31 233t-31 233t-91 207l18 12q64 -104 98 -214.5t34 -237.5t-34 -237.5t-98 -214.5z" />
    <glyph glyph-name="emdash.lat" horiz-adv-x="800" 
d="M40 264h720v-28h-720v28z" />
    <glyph glyph-name="endash.lat" horiz-adv-x="480" 
d="M40 264h400v-28h-400v28z" />
    <glyph glyph-name="uni2010.lat" horiz-adv-x="294" 
d="M40 264h216v-30h-216v30z" />
    <glyph glyph-name="guillemotleft.lat" horiz-adv-x="388" 
d="M42 238v28l138 164l20 -18l-124 -160l124 -162l-20 -16zM176 238v28l138 164l20 -18l-124 -160l124 -162l-20 -16z" />
    <glyph glyph-name="guillemotright.lat" horiz-adv-x="388" 
d="M54 90l124 162l-124 160l20 18l138 -164v-28l-138 -164zM188 90l124 162l-124 160l20 18l138 -164v-28l-138 -164z" />
    <glyph glyph-name="guilsinglleft.lat" horiz-adv-x="254" 
d="M42 238v28l138 164l20 -18l-124 -160l124 -162l-20 -16z" />
    <glyph glyph-name="guilsinglright.lat" horiz-adv-x="254" 
d="M54 90l124 162l-124 160l20 18l138 -164v-28l-138 -164z" />
    <glyph glyph-name="quotedblbase.lat" horiz-adv-x="336" 
d="M139.5 65q10.5 -15 10.5 -43q0 -93 -78 -148l-16 18q34 29 49 56t15 67q-2 -1 -8 -1q-13 0 -23.5 8.5t-10.5 23.5q0 16 9.5 25t24.5 9q17 0 27.5 -15zM267.5 65q10.5 -15 10.5 -43q0 -93 -78 -148l-16 18q34 29 49 56t15 67q-2 -1 -8 -1q-13 0 -23.5 8.5t-10.5 23.5
q0 16 9.5 25t24.5 9q17 0 27.5 -15z" />
    <glyph glyph-name="quotedblleft.lat" horiz-adv-x="336" 
d="M136 706l16 -18q-34 -29 -49 -56t-15 -67q2 1 8 1q13 0 23.5 -8.5t10.5 -23.5q0 -16 -9.5 -25t-24.5 -9q-17 0 -27.5 15t-10.5 43q0 93 78 148zM231 632q-15 -27 -15 -67q2 1 8 1q13 0 23.5 -8.5t10.5 -23.5q0 -16 -9.5 -25t-24.5 -9q-17 0 -27.5 15t-10.5 43
q0 93 78 148l16 -18q-34 -29 -49 -56z" />
    <glyph glyph-name="quotedblright.lat" horiz-adv-x="336" 
d="M139.5 685q10.5 -15 10.5 -43q0 -93 -78 -148l-16 18q34 29 49 56t15 67q-2 -1 -8 -1q-13 0 -23.5 8.5t-10.5 23.5q0 16 9.5 25t24.5 9q17 0 27.5 -15zM267.5 685q10.5 -15 10.5 -43q0 -93 -78 -148l-16 18q34 29 49 56t15 67q-2 -1 -8 -1q-13 0 -23.5 8.5t-10.5 23.5
q0 16 9.5 25t24.5 9q17 0 27.5 -15z" />
    <glyph glyph-name="quoteleft.lat" horiz-adv-x="208" 
d="M103 632q-15 -27 -15 -67q2 1 8 1q13 0 23.5 -8.5t10.5 -23.5q0 -16 -9.5 -25t-24.5 -9q-17 0 -27.5 15t-10.5 43q0 93 78 148l16 -18q-34 -29 -49 -56z" />
    <glyph glyph-name="quoteright.lat" horiz-adv-x="208" 
d="M139.5 685q10.5 -15 10.5 -43q0 -93 -78 -148l-16 18q34 29 49 56t15 67q-2 -1 -8 -1q-13 0 -23.5 8.5t-10.5 23.5q0 16 9.5 25t24.5 9q17 0 27.5 -15z" />
    <glyph glyph-name="quotesinglbase.lat" horiz-adv-x="208" 
d="M139.5 65q10.5 -15 10.5 -43q0 -93 -78 -148l-16 18q34 29 49 56t15 67q-2 -1 -8 -1q-13 0 -23.5 8.5t-10.5 23.5q0 16 9.5 25t24.5 9q17 0 27.5 -15z" />
    <glyph glyph-name="Euro.001" 
d="M468 82q-33 -46 -72 -70t-92 -24q-87 0 -143.5 70.5t-70.5 191.5h-66v24l63 4q-1 14 -1 44q0 24 1 36h-63v24l65 4q13 124 74 195t157 71q42 0 78.5 -22.5t59.5 -55.5l-22 -20q-50 70 -116 70q-83 0 -134.5 -63t-62.5 -175h287v-28h-289q-1 -12 -1 -36q0 -30 1 -44h249
v-28h-246q12 -109 59.5 -171.5t122.5 -62.5q42 0 75 20.5t65 63.5z" />
    <glyph glyph-name="Euro.lat.001" 
d="M468 82q-33 -46 -72 -70t-92 -24q-87 0 -143.5 70.5t-70.5 191.5h-66v24l63 4q-1 14 -1 44q0 24 1 36h-63v24l65 4q13 124 74 195t157 71q42 0 78.5 -22.5t59.5 -55.5l-22 -20q-50 70 -116 70q-83 0 -134.5 -63t-62.5 -175h287v-28h-289q-1 -12 -1 -36q0 -30 1 -44h249
v-28h-246q12 -109 59.5 -171.5t122.5 -62.5q42 0 75 20.5t65 63.5z" />
    <glyph glyph-name="cent.lat" 
d="M280 84v-110h-28v111q-85 8 -137.5 68t-52.5 159q0 67 25.5 116t68.5 77t96 34v113h28v-112q43 -1 75 -17t61 -43l-18 -20q-54 51 -118 52v-400q70 1 130 56l18 -20q-70 -63 -148 -64zM137 175q43 -54 115 -62v397q-69 -8 -113.5 -62.5t-44.5 -135.5q0 -83 43 -137z" />
    <glyph glyph-name="dollar.lat" 
d="M368.5 36q-43.5 -43 -110.5 -48v-98h-30v99q-49 3 -91.5 25t-74.5 52l18 22q76 -72 164 -72q65 0 100.5 36t35.5 94q0 49 -20 82t-48.5 52.5t-78.5 44.5q-48 24 -77 43.5t-48.5 51.5t-19.5 80q0 62 39.5 104t100.5 47v99h30v-98q45 -3 75.5 -20.5t60.5 -49.5l-20 -20
q-33 33 -60.5 47.5t-71.5 14.5q-53 0 -87.5 -35t-34.5 -87q0 -41 18 -68.5t43.5 -44.5t71.5 -40q52 -25 83.5 -46.5t53.5 -59t22 -95.5q0 -69 -43.5 -112z" />
    <glyph glyph-name="Euro.lat" 
d="M468 82q-33 -46 -72 -70t-92 -24q-87 0 -143.5 70.5t-70.5 191.5h-66v24l63 4q-1 14 -1 44q0 24 1 36h-63v24l65 4q13 124 74 195t157 71q42 0 78.5 -22.5t59.5 -55.5l-22 -20q-50 70 -116 70q-83 0 -134.5 -63t-62.5 -175h287v-28h-289q-1 -12 -1 -36q0 -30 1 -44h249
v-28h-246q12 -109 59.5 -171.5t122.5 -62.5q42 0 75 20.5t65 63.5z" />
    <glyph glyph-name="florin.lat" 
d="M256 472l-7 -68h143v-28h-146l-30 -276q-10 -97 -44.5 -147.5t-101.5 -50.5q-33 0 -62 16l12 24q24 -12 54 -12q52 0 78 45.5t34 122.5l30 278h-98v24l66 4h35l7 66q10 97 43 149.5t95 52.5q22 0 37 -4.5t35 -13.5l-10 -26q-18 8 -31.5 12t-32.5 4q-88 0 -106 -172z" />
    <glyph glyph-name="sterling.lat" 
d="M418 28v-28h-360v18q54 31 80 84t26 116q0 36 -10 78h-100v26l66 2h26l-9 30q-13 47 -19 74.5t-6 57.5q0 77 44 121.5t120 44.5q86 0 140 -70l-22 -20q-24 29 -52.5 45.5t-67.5 16.5q-62 0 -96 -39t-34 -97q0 -29 6 -55.5t18 -70.5q9 -29 11 -38h167v-28h-161
q9 -36 9 -78q0 -63 -19 -106t-57 -80v-4h300z" />
    <glyph glyph-name="yen.lat" 
d="M220 168h-168v28h168v74h-168v28h156l-176 342h34l100 -202q44 -88 68 -138h4l31 62q30 59 39 76l100 202h32l-178 -342h158v-28h-170v-74h170v-28h-170v-168h-30v168z" />
    <glyph glyph-name="uni2215.lat" horiz-adv-x="78" 
d="M206 672h32l-370 -684h-32z" />
    <glyph glyph-name="percent.lat" horiz-adv-x="798" 
d="M78.5 312q-36.5 54 -36.5 154q0 98 36.5 152t101.5 54t101.5 -54t36.5 -152q0 -100 -36.5 -154t-101.5 -54t-101.5 54zM566 672h32l-370 -684h-32zM259 332.5q29 48.5 29 133.5t-29 132.5t-79 47.5t-79 -47.5t-29 -132.5t29 -133.5t79 -48.5t79 48.5zM516.5 42
q-36.5 54 -36.5 154q0 98 36.5 152t101.5 54t101.5 -54t36.5 -152q0 -100 -36.5 -154t-101.5 -54t-101.5 54zM697 62.5q29 48.5 29 133.5t-29 132.5t-79 47.5t-79 -47.5t-29 -132.5t29 -133.5t79 -48.5t79 48.5z" />
    <glyph glyph-name="perthousand.lat" horiz-adv-x="1150" 
d="M78.5 312q-36.5 54 -36.5 154q0 98 36.5 152t101.5 54t101.5 -54t36.5 -152q0 -100 -36.5 -154t-101.5 -54t-101.5 54zM562 672h32l-370 -684h-32zM259 332.5q29 48.5 29 133.5t-29 132.5t-79 47.5t-79 -47.5t-29 -132.5t29 -133.5t79 -48.5t79 48.5zM512.5 42
q-36.5 54 -36.5 154q0 98 36.5 152t101.5 54t101.5 -54t36.5 -152q0 -100 -36.5 -154t-101.5 -54t-101.5 54zM868.5 42q-36.5 54 -36.5 154q0 98 36.5 152t101.5 54t101.5 -54t36.5 -152q0 -100 -36.5 -154t-101.5 -54t-101.5 54zM693 62.5q29 48.5 29 133.5t-29 132.5
t-79 47.5t-79 -47.5t-29 -132.5t29 -133.5t79 -48.5t79 48.5zM1049 62.5q29 48.5 29 133.5t-29 132.5t-79 47.5t-79 -47.5t-29 -132.5t29 -133.5t79 -48.5t79 48.5z" />
    <glyph glyph-name="uni0327.cap.001" horiz-adv-x="0" 
 />
    <glyph glyph-name="uni0327.cap.002" horiz-adv-x="0" 
 />
    <glyph glyph-name="uni0327.cap.003" horiz-adv-x="0" 
 />
    <glyph glyph-name="uni0327.cap.004" horiz-adv-x="0" 
 />
    <glyph glyph-name="uni0327.cap.005" horiz-adv-x="0" 
 />
    <glyph glyph-name="uni0308.cap" horiz-adv-x="0" 
d="M-119 736.5q-9 8.5 -9 23.5t9 23.5t23 8.5t23 -8.5t9 -23.5t-9 -23.5t-23 -8.5t-23 8.5zM73 736.5q-9 8.5 -9 23.5t9 23.5t23 8.5t23 -8.5t9 -23.5t-9 -23.5t-23 -8.5t-23 8.5z" />
    <glyph glyph-name="uni0307.cap" horiz-adv-x="0" 
d="M-24 734q-10 10 -10 26q0 15 10 24.5t24 9.5t24 -9.5t10 -24.5q0 -16 -10 -26t-24 -10t-24 10z" />
    <glyph glyph-name="gravecomb.cap" horiz-adv-x="0" 
d="M-104 822l22 24l118 -120l-14 -16z" />
    <glyph glyph-name="acutecomb.cap" horiz-adv-x="0" 
d="M-36 726l118 120l22 -24l-126 -112z" />
    <glyph glyph-name="uni030B.cap" horiz-adv-x="0" 
d="M-76 720l86 146l26 -16l-92 -140zM62 720l86 146l26 -16l-92 -140z" />
    <glyph glyph-name="uni0302.cap" horiz-adv-x="0" 
d="M-130 726l116 114h28l116 -114l-14 -16l-114 100h-4l-114 -100z" />
    <glyph glyph-name="uni030C.cap" horiz-adv-x="0" 
d="M-130 824l14 16l114 -100h4l114 100l14 -16l-116 -114h-28z" />
    <glyph glyph-name="uni0306.cap" horiz-adv-x="0" 
d="M-93 749q-33 37 -39 85l26 4q6 -43 32.5 -71.5t73.5 -28.5t73.5 28.5t32.5 71.5l26 -4q-6 -48 -39 -85t-93 -37t-93 37z" />
    <glyph glyph-name="uni030A.cap" horiz-adv-x="0" 
d="M-60 723.5q-24 23.5 -24 60.5q0 38 24 61t60 23q35 0 59.5 -23.5t24.5 -60.5t-24.5 -60.5t-59.5 -23.5q-36 0 -60 23.5zM41.5 738.5q16.5 16.5 16.5 45.5q0 28 -17 45t-41 17q-26 0 -43 -17t-17 -45q0 -30 17 -46t43 -16q25 0 41.5 16.5z" />
    <glyph glyph-name="tildecomb.cap" horiz-adv-x="0" 
d="M31 733.5q-19 11.5 -43 34.5q-21 19 -34.5 27.5t-31.5 8.5q-23 0 -39 -22t-19 -58l-24 2q2 45 23.5 75.5t58.5 30.5q28 0 47 -11.5t43 -34.5q21 -19 34.5 -27.5t31.5 -8.5q23 0 38 21.5t20 58.5l24 -2q-2 -45 -23.5 -75.5t-58.5 -30.5q-28 0 -47 11.5z" />
    <glyph glyph-name="uni0304.cap" horiz-adv-x="0" 
d="M-120 774h240v-28h-240v28z" />
    <glyph glyph-name="uni0327.cap" horiz-adv-x="0" 
 />
    <glyph glyph-name="alphalatin" horiz-adv-x="540" 
d="M107 53q-53 65 -53 185q0 75 29 132.5t78 88.5t107 31q41 0 73.5 -14t70.5 -44h2l2 46h28v-432q0 -15 5.5 -22.5t14.5 -7.5q8 0 18 2l6 -26q-16 -4 -26 -4q-27 0 -37.5 18t-10.5 58h-2q-76 -76 -160 -76q-92 0 -145 65zM333.5 37q38.5 21 80.5 63v296q-40 35 -75 50.5
t-73 15.5q-50 0 -91.5 -30t-65 -81.5t-23.5 -112.5q0 -101 44 -161.5t124 -60.5q41 0 79.5 21z" />
    <glyph glyph-name="gammalatin" horiz-adv-x="422" 
d="M232 26q31 -70 43.5 -104t12.5 -64q0 -42 -19 -67t-57 -25t-57 25t-19 67q0 29 11.5 61.5t43.5 107.5l-179 451h34l114 -300q7 -20 30 -76q6 -14 11 -26.5t9 -23.5h4q4 11 9 23.5t11 26.5q23 56 30 76l114 300h32zM245.5 -189q10.5 17 10.5 45q0 30 -11.5 68t-30.5 76h-4
q-18 -37 -30 -76.5t-12 -67.5t10.5 -45t33.5 -17t33.5 17z" />
    <glyph glyph-name="ismall" horiz-adv-x="298" 
d="M42 28h92v422h-92v28h214v-28h-92v-422h92v-28h-214v28z" />
    <glyph glyph-name="rsmall" horiz-adv-x="466" 
d="M386 0l-141 216h-119v-216h-30v478h146q167 0 167 -128q0 -60 -36.5 -93.5t-96.5 -39.5l144 -217h-34zM232 244q68 0 106.5 27t38.5 79q0 100 -145 100h-106v-206h106z" />
    <glyph glyph-name="rsmallinverted" horiz-adv-x="466" 
d="M370 478v-478h-146q-78 0 -122.5 31.5t-44.5 98.5q0 60 36.5 94.5t95.5 40.5l-143 213h34l141 -212h119v212h30zM340 238h-106q-68 0 -106.5 -28t-38.5 -80t38 -77t107 -25h106v210z" />
    <glyph glyph-name="upsilonlatin" horiz-adv-x="528" 
d="M153 19.5q-47 31.5 -72 83.5t-25 113q0 78 28.5 136t69.5 96v2h-110v28h162v-20q-53 -35 -85.5 -95.5t-32.5 -140.5q0 -55 20.5 -102t60.5 -75.5t95 -28.5t95 28.5t60.5 75.5t20.5 102q0 80 -32.5 140.5t-85.5 95.5v20h162v-28h-110v-2q41 -38 69.5 -96t28.5 -136
q0 -61 -25 -113t-72 -83.5t-111 -31.5t-111 31.5z" />
    <glyph glyph-name="glottalstopreversedsupmod" horiz-adv-x="270" 
d="M135 610q-59 36 -89 72t-30 89q0 58 37.5 90t96.5 32q68 0 117 -57l-17 -19q-41 51 -100 51q-49 0 -77 -26t-28 -70q0 -46 28 -79t90 -66v-217h-28v200z" />
    <glyph glyph-name="litre" horiz-adv-x="360" 
d="M342 40q-52 -52 -108 -52q-55 0 -91.5 46t-36.5 128v23q-35 -31 -60 -49l-16 22q39 29 76 64v316q0 102 30.5 149t81.5 47q47 0 76.5 -37t29.5 -105q0 -92 -53 -193.5t-135 -184.5v-42q0 -80 28 -118t72 -38q29 0 48.5 11t41.5 33zM159.5 665q-23.5 -41 -23.5 -117v-295
q70 76 113 165t43 172q0 61 -20 88.5t-54 27.5q-35 0 -58.5 -41z" />
    <glyph glyph-name="ZWNJ" horiz-adv-x="0" 
d="M-104 792l78 83l-78 82l23 27l81 -84l79 82l24 -25l-79 -82l79 -83l-24 -24l-79 80l-81 -81z" />
    <glyph glyph-name="ZWJ" horiz-adv-x="0" 
d="M-150 894h301v-109h-34v73h-233v-73h-34v109z" />
    <glyph glyph-name="lefttorightembed" horiz-adv-x="0" 
d="M14 792l63 66h-76v36h76l-63 63l25 27l105 -109l-105 -108zM-129 894h88v-36h-88v36z" />
    <glyph glyph-name="righttoleftembed" horiz-adv-x="0" 
d="M-144 875l105 109l25 -26l-63 -64h76v-36h-75l62 -66l-25 -24zM41 894h88v-36h-88v36z" />
    <glyph glyph-name="popdirectionformat" horiz-adv-x="0" 
d="M-19 924l-60 -63l-25 26l104 107l104 -107l-25 -26l-62 64v-160h-36v159z" />
    <glyph glyph-name="circledotted" horiz-adv-x="592" 
d="M274.5 434.5q-8.5 8.5 -8.5 23.5t8.5 23.5t20.5 8.5q14 0 22.5 -8.5t8.5 -23.5t-8.5 -23.5t-22.5 -8.5q-12 0 -20.5 8.5zM168.5 408.5q-8.5 8.5 -8.5 22.5q0 16 8 24t21 8t21.5 -8t8.5 -24q0 -14 -8 -22.5t-22 -8.5q-12 0 -20.5 8.5zM381 408q-8 9 -8 23q0 15 8 23t20 8
q13 0 21.5 -8t8.5 -23q0 -14 -8 -23t-22 -9q-12 0 -20 9zM89.5 327q-8.5 9 -8.5 24t8.5 23t20.5 8q14 0 22.5 -8t8.5 -23q0 -16 -8.5 -24.5t-22.5 -8.5q-12 0 -20.5 9zM459.5 326q-8.5 9 -8.5 23t8.5 22.5t20.5 8.5q13 0 21.5 -8t8.5 -23t-8 -23.5t-22 -8.5q-12 0 -20.5 9z
M62 215.5q-8 8.5 -8 23.5t8 23t20 8q15 0 23.5 -8t8.5 -23t-9 -23.5t-23 -8.5q-12 0 -20 8.5zM486.5 215.5q-8.5 8.5 -8.5 23.5t8.5 23t21.5 8q12 0 21 -8t9 -23t-8 -23.5t-22 -8.5q-13 0 -21.5 8.5zM89.5 106q-8.5 9 -8.5 23q0 15 8 23.5t21 8.5q14 0 22.5 -8.5t8.5 -23.5
q0 -14 -8.5 -23t-22.5 -9q-12 0 -20.5 9zM459.5 106q-8.5 9 -8.5 23q0 15 8.5 23.5t20.5 8.5q13 0 21.5 -8.5t8.5 -23.5q0 -14 -8 -23t-22 -9q-12 0 -20.5 9zM168 24q-8 9 -8 25q0 14 8 21.5t21 7.5t21.5 -7.5t8.5 -21.5q0 -16 -8 -25t-22 -9q-13 0 -21 9zM381 24
q-8 9 -8 25q0 14 8 21.5t20 7.5q13 0 21.5 -7.5t8.5 -21.5q0 -16 -8 -25t-22 -9q-12 0 -20 9zM274 -3.5q-8 8.5 -8 23.5t8.5 23t20.5 8q14 0 22.5 -8t8.5 -23t-8.5 -23.5t-22.5 -8.5q-13 0 -21 8.5z" />
    </font>
</defs>
</svg>
